<?xml version="1.0" encoding="UTF-8"?>
<svg width="17px" height="14px" viewBox="0 0 17 14" version="1.1" xmlns="http://www.w3.org/2000/svg" xmlns:xlink="http://www.w3.org/1999/xlink">
    <!-- Generator: Sketch 50.2 (55047) - http://www.bohemiancoding.com/sketch -->
    <title>fast-2</title>
    <desc>Created with Sketch.</desc>
    <defs></defs>
    <g id="Page-1" stroke="none" stroke-width="1" fill="none" fill-rule="evenodd">
        <g id="Group-6" transform="translate(-308.000000, -107.000000)" fill-rule="nonzero">
            <g id="Group-5-Copy" transform="translate(252.000000, 99.000000)">
                <g id="fast-2" transform="translate(56.000000, 8.000000)">
                    <g id="Group" transform="translate(0.287765, 0.335677)">
                        <path d="M3.00879575,11.2285518 C2.49971104,10.3026844 2.25191316,9.27926067 2.25228783,8.26252422 L0.0308495734,8.26252422 C0.030600032,9.67591113 0.375818442,11.0999191 1.08486511,12.3892625 C1.39011608,12.9470646 2.06831291,13.1394236 2.59962953,12.8188252 C3.13094613,12.4983579 3.31417169,11.7863539 3.00879575,11.2285518 Z" id="Shape" fill="#FFFFFF"></path>
                        <path d="M13.5428283,8.26265537 C13.543203,9.27926067 13.2954051,10.3026844 12.7863204,11.2285518 C12.4809445,11.7863539 12.66417,12.4983579 13.1954866,12.8188252 C13.7268032,13.1394236 14.405,12.9470645 14.710251,12.3893937 C15.4192977,11.0999191 15.764641,9.67604224 15.764267,8.26265537 L13.5428283,8.26265537 Z" id="Shape" fill="#FF3838" opacity="0.584542411"></path>
                        <path d="M2.30087323,7.48758068 C2.39654517,6.72470053 2.63497568,5.98017779 3.01029456,5.30016808 L1.08249204,4.13172106 C0.562915845,5.07856834 0.232185617,6.11812036 0.09829483,7.1859952 C0.0535812865,7.54252166 0.0309747343,7.90219514 0.0309747343,8.26252422 L2.25228783,8.26252422 C2.25241272,8.00329184 2.2686495,7.74432169 2.30087323,7.48758068 Z" id="Shape" fill="#FFFFFF"></path>
                        <path d="M1.08249204,4.13172106 L3.01016964,5.30016808 C3.2528467,4.86050891 3.552852,4.44786129 3.90831204,4.07455092 C4.26552067,3.69966708 4.65869996,3.38549368 5.07610947,3.13203077 L3.96151866,1.10537636 C3.3792436,1.45875583 2.83081593,1.89710378 2.33259733,2.42015789 C1.83762607,2.93980279 1.42009164,3.51622443 1.08249204,4.13172106 Z" id="Shape" fill="#FFFFFF"></path>
                        <path d="M3.96151866,1.10537636 L5.07610947,3.13203077 C5.9461498,2.60399392 6.92185394,2.33990993 7.89755807,2.33990993 L7.89755807,0.000131115729 C6.53654324,0.000131115729 5.17540349,0.368458763 3.96151866,1.10537636 Z" id="Shape" fill="#FFFFFF"></path>
                        <polygon id="Shape" fill="#FFFFFF" points="5.97887314 11.8996451 9.81624302 11.8996451 9.81624302 12.973945 5.97887314 12.973945"></polygon>
                    </g>
                    <path d="M2.62036261,3.09151339 C2.70217088,3.09151339 2.78397913,3.05873238 2.84642823,2.99317031 C2.846678,2.99303917 2.84755229,2.99212132 2.84830167,2.99133456 C2.9730749,2.8620462 2.97544798,2.65106746 2.85304781,2.51863211 C2.73002314,2.38567223 2.5275633,2.38239415 2.40079173,2.51155139 C2.39941784,2.51299377 2.39529617,2.51718974 2.39392232,2.51876323 C2.26939887,2.64988734 2.26939887,2.86217731 2.39417209,2.99317031 C2.45674609,3.05886349 2.53855432,3.09151339 2.62036261,3.09151339 Z" id="Shape" fill="#FF3838"></path>
                    <path d="M16.301703,7.47787748 C16.0672692,5.60778528 15.2414428,3.84652609 13.9764745,2.518501 C12.4294865,0.89439762 10.3729139,0 8.18532334,0 C6.47571785,0 4.83892796,0.54639422 3.4518094,1.58004564 C3.30780187,1.68743631 3.27395447,1.89697266 3.37612115,2.04815877 C3.4782878,2.19934487 3.67787501,2.23487951 3.82200743,2.12761997 C3.9251733,2.05078125 4.02983791,1.97708951 4.13587641,1.90615134 L4.93122765,3.35245041 C4.5885072,3.58781818 4.26627008,3.86173649 3.9700117,4.17276291 C3.67650112,4.48090457 3.41558896,4.8202538 3.19052253,5.18294313 L1.81289625,4.34807585 C1.95652908,4.11021668 2.11227704,3.88009387 2.28014012,3.65888746 C2.39005047,3.51386421 2.367319,3.30262324 2.22918169,3.18710286 C2.09091946,3.07158252 1.88983349,3.09557825 1.77979822,3.24047039 C0.855427232,4.45900687 0.263784834,5.92418778 0.0689437635,7.47774636 C-0.164740631,9.34088899 0.199961886,11.2639553 1.09535652,12.8921235 C1.28557637,13.2397336 1.59332534,13.4886072 1.96189971,13.5931131 C2.08592353,13.6283855 2.21182084,13.6456939 2.33696877,13.6456939 C2.58364257,13.6456939 2.8271939,13.5780339 3.04676478,13.4455984 C3.37786971,13.2457653 3.61492636,12.9228066 3.71447015,12.5358594 C3.81401396,12.1487809 3.7641796,11.7443942 3.57358507,11.3962596 C2.98206757,10.3205173 2.75100603,9.1001451 2.90562992,7.86705387 C3.05937951,6.64104336 3.58382674,5.52779955 4.42226783,4.64756333 C5.42744792,3.59227642 6.76385782,3.01126543 8.18532334,3.01126543 C9.60691378,3.01126543 10.9434486,3.59227642 11.9485037,4.64756333 C12.7869449,5.52766844 13.3112672,6.64104336 13.4651417,7.86705387 C13.5390813,8.45698129 13.5245931,9.04402398 13.4246747,9.61388942 L10.1208695,8.30186146 C10.0606687,7.86574264 9.86932476,7.46201147 9.56894472,7.14665797 C8.80631681,6.34601407 7.56545395,6.34601407 6.80282603,7.14665797 C6.04019809,7.94730183 6.04019809,9.2501511 6.80282603,10.050795 C7.18413999,10.4511169 7.68498145,10.6512124 8.18582293,10.6512124 C8.68678931,10.6512124 9.18763076,10.4511169 9.56894472,10.0506638 C9.62290077,9.99414936 9.67348448,9.93422562 9.72069595,9.87167944 L13.2058532,10.4694743 C13.0976914,10.7878437 12.9611777,11.0978211 12.7968118,11.3967841 C12.404257,12.1142953 12.6406892,13.0333442 13.3240068,13.4454674 C13.6549868,13.6453005 14.0402976,13.697619 14.4088718,13.5931131 C14.7774463,13.4886072 15.0851952,13.2396025 15.2750404,12.8927791 C16.1706848,11.2640865 16.5353873,9.34088899 16.301703,7.47787748 Z M3.01941211,11.7314129 C3.12445142,11.9235097 3.1520539,12.1469452 3.09709873,12.3608087 C3.04201867,12.5745409 2.91100054,12.753132 2.7281497,12.8634074 C2.54517392,12.9738139 2.33234752,13.0027923 2.12863871,12.9450977 C1.92505475,12.887272 1.75494352,12.7497228 1.64952951,12.5571014 C1.03228297,11.4346789 0.692560081,10.2019811 0.643724906,8.93401087 L2.23018087,8.93401087 C2.2812642,9.91416365 2.55041965,10.8787127 3.01941211,11.7314129 Z M2.27164705,7.77946296 C2.25141354,7.94009 2.23767476,8.10124157 2.22955639,8.26252422 L0.644973903,8.26252422 C0.654715941,8.03069677 0.673825378,7.79834483 0.703051522,7.56546839 C0.819206792,6.63960098 1.08823733,5.74808808 1.49378154,4.93000472 L2.87040866,5.76434746 C2.56465806,6.3943989 2.35970022,7.07703105 2.27164705,7.77946296 Z M7.25495724,9.57599456 C6.74175083,9.03720553 6.74175083,8.16037852 7.25495724,7.62158952 C7.76828851,7.0826694 8.60335736,7.08280051 9.11668864,7.62158952 C9.22435083,7.73461852 9.31103011,7.8645625 9.37485307,8.0057832 L8.46272206,7.64348725 C8.23678137,7.55379835 7.98910839,7.57058224 7.76529095,7.69108531 C7.52323841,7.82129156 7.33651571,8.06400232 7.26607316,8.3401497 C7.19563062,8.616166 7.24171802,8.92417654 7.38934762,9.16413368 C7.52586126,9.38586457 7.73219296,9.5306256 7.97062347,9.57153632 L8.93271371,9.73649048 C8.42013181,10.1077028 7.71083537,10.0544664 7.25495724,9.57599456 Z M9.62702241,9.17527924 C9.62614809,9.1751481 9.62527378,9.17501698 9.62439947,9.17475472 L8.07378933,8.90883503 C7.99972472,8.89611597 7.95288795,8.84248621 7.92653444,8.79987088 C7.87607559,8.71778716 7.85971393,8.6081674 7.88381926,8.51375804 C7.90792462,8.41934867 7.97424554,8.33306901 8.05705296,8.28848681 C8.08565462,8.2731453 8.12449795,8.25832825 8.16796249,8.25832825 C8.18981968,8.25832825 8.21292583,8.26213084 8.23640667,8.27144066 L9.70183638,8.85336953 C9.70483387,8.85468075 9.70795638,8.85586086 9.71107879,8.857041 L11.1853763,9.44251019 L9.62702241,9.17527924 Z M8.50506253,2.34882636 L8.50506253,0.678960681 C9.62839619,0.727738887 10.707641,1.03338919 11.6817214,1.5689001 L10.8861204,3.01572367 C10.1523438,2.62353141 9.34487755,2.39511317 8.50506253,2.34882636 Z M4.6891751,1.56929348 C5.66837638,1.03063559 6.74699657,0.727214358 7.86558415,0.678567334 L7.86558415,2.34882636 C7.02576918,2.39511317 6.21830282,2.62353141 5.48452634,3.01572367 L4.6891751,1.56929348 Z M11.439419,3.35245041 L12.2352698,1.90536461 C12.6961439,2.21403078 13.1284164,2.57763795 13.5242185,2.99317031 C13.9198958,3.40857153 14.2658635,3.86212987 14.5596239,4.34689574 L13.180249,5.18307425 C12.9551826,4.8202538 12.6941455,4.48090457 12.400635,4.17276291 C12.1043766,3.86173649 11.7821395,3.58781818 11.439419,3.35245041 Z M13.500238,5.76434746 L14.8796129,4.92830008 C15.2834086,5.74179412 15.5503158,6.62950444 15.6677201,7.56546839 C15.6968213,7.79821371 15.7159308,8.03069677 15.7257976,8.26252422 L14.1412153,8.26252422 C14.1330968,8.10124157 14.1192332,7.94009 14.0991246,7.77946296 C14.0110714,7.07703105 13.8061136,6.3943989 13.500238,5.76434746 Z M14.7207425,12.5576259 C14.6157031,12.7497228 14.4455919,12.887272 14.242008,12.9449666 C14.038424,13.0026612 13.8254727,12.9738139 13.6426219,12.8634074 C13.2650549,12.6356448 13.1342865,12.1278011 13.3509848,11.7320685 C13.5524455,11.3657077 13.7169362,10.9787604 13.8432082,10.5788318 L14.2328904,10.6457051 C14.2503761,10.648721 14.2676121,10.6501634 14.2847231,10.6501634 C14.427107,10.6501634 14.5553774,10.5499845 14.5933464,10.4012897 C14.6359367,10.234631 14.5512557,10.0614161 14.3976311,10.0003121 L14.027433,9.85345316 C14.0863849,9.55042535 14.124354,9.24307041 14.1405907,8.93401087 L15.7269218,8.93401087 C15.6780866,10.2021122 15.3383637,11.4348101 14.7207425,12.5576259 Z" id="Shape" fill="#FF3838"></path>
                </g>
            </g>
        </g>
    </g>
</svg>