<?xml version="1.0" encoding="UTF-8"?>
<svg width="19px" height="23px" viewBox="0 0 19 23" version="1.1" xmlns="http://www.w3.org/2000/svg" xmlns:xlink="http://www.w3.org/1999/xlink">
    <!-- Generator: Sketch 50.2 (55047) - http://www.bohemiancoding.com/sketch -->
    <title>turn-left</title>
    <desc>Created with Sketch.</desc>
    <defs></defs>
    <g id="Page-1" stroke="none" stroke-width="1" fill="none" fill-rule="evenodd">
        <g id="Artboard" transform="translate(-344.000000, -307.000000)">
            <g id="turn-left" transform="translate(344.000000, 308.000000)">
                <g id="Group" transform="translate(10.000000, 9.000000)"></g>
                <path d="M8.95888721,21 L8.63146499,21 L8.63146499,17.304123 L8.95888721,17.304123 C11.9014115,17.304123 14.2953268,14.9158242 14.2953268,11.9802539 C14.2953268,9.04468359 11.9014115,6.65642578 8.95888721,6.65642578 L6.26390297,6.65642578 L7.02568179,7.41644531 L4.8199397,9.61701563 L0,4.80850781 L4.8199397,0 L7.02568179,2.20057031 L6.26390297,2.96058984 L8.95888721,2.96058984 C11.3747567,2.96058984 13.645457,3.89853516 15.3526244,5.60170898 C17.0597506,7.3048418 18,9.57013477 18,11.9803359 C18,14.3905371 17.0598328,16.6558301 15.3526244,18.3589629 C13.645457,20.0620547 11.3747567,21 8.95888721,21 Z M9.28630944,17.9486016 L9.28630944,20.3405098 C11.4044813,20.2600781 13.3834041,19.3995703 14.8895711,17.8969629 C16.4730711,16.3172051 17.3451555,14.2159336 17.3451555,11.9802949 C17.3451555,9.74465625 16.4730711,7.64338477 14.8895711,6.06362695 C13.3061121,4.48386914 11.199863,3.61388672 8.95888721,3.61388672 L4.68299301,3.61388672 L6.09961628,2.20057031 L4.81989859,0.923876953 L0.926106619,4.8084668 L4.81989859,8.69305664 L6.09961628,7.41636328 L4.68299301,6.00304687 L8.95888721,6.00304687 C12.2625051,6.00304687 14.9501713,8.68436133 14.9501713,11.9802129 C14.9502124,15.1664707 12.4382212,17.7783867 9.28630944,17.9486016 Z" id="Shape" stroke="#FF3838" stroke-width="0.7" fill="#FF3838" fill-rule="nonzero"></path>
            </g>
        </g>
    </g>
</svg>