<?xml version="1.0" encoding="UTF-8"?>
<svg width="27px" height="21px" viewBox="0 0 27 21" version="1.1" xmlns="http://www.w3.org/2000/svg" xmlns:xlink="http://www.w3.org/1999/xlink">
    <!-- Generator: Sketch 50.2 (55047) - http://www.bohemiancoding.com/sketch -->
    <title>fast-2</title>
    <desc>Created with Sketch.</desc>
    <defs></defs>
    <g id="Page-1" stroke="none" stroke-width="1" fill="none" fill-rule="evenodd">
        <g id="Artboard" transform="translate(-342.000000, -308.000000)" fill-rule="nonzero">
            <g id="fast-2" transform="translate(342.000000, 308.000000)">
                <g id="Group" transform="translate(0.000000, 1.000000)">
                    <path d="M4.940047,17.2227412 C4.10419684,15.8026137 3.69734531,14.2328509 3.69796047,12.6733454 L0.0506511654,12.6733454 C0.050241229,14.8412471 0.617044466,17.0254398 1.78120586,19.0030794 C2.28238783,19.8586554 3.39589783,20.1537025 4.26824987,19.6619574 C5.14060186,19.1704135 5.44143413,18.0783172 4.940047,17.2227412 Z" id="Shape" fill="#FFFFFF"></path>
                    <path d="M22.2355434,12.6735466 C22.2361585,14.2328509 21.829307,15.8026137 20.9934568,17.2227412 C20.4920697,18.0783172 20.792902,19.1704135 21.665254,19.6619574 C22.537606,20.1537025 23.651116,19.8586554 24.152298,19.0032806 C25.3164594,17.0254398 25.8834677,14.8414482 25.8828529,12.6735466 L22.2355434,12.6735466 Z" id="Shape" fill="#FF3838" opacity="0.584542411"></path>
                    <path d="M3.7777313,11.4847102 C3.93481205,10.3145783 4.3262836,9.17260352 4.94250785,8.12958112 L1.77730959,6.33737667 C0.924233801,7.78968376 0.381218254,9.38418462 0.161387187,11.022128 C0.0879734271,11.5689806 0.050856441,12.1206602 0.050856441,12.6733454 L3.69796047,12.6733454 C3.69816552,12.2757258 3.72482417,11.8785085 3.7777313,11.4847102 Z" id="Shape" fill="#FFFFFF"></path>
                    <path d="M1.77730959,6.33737667 L4.94230274,8.12958112 C5.34074657,7.45521668 5.83331583,6.82228349 6.41693448,6.24968712 C7.00342408,5.67467732 7.64897278,5.19278731 8.3343043,4.80401712 L6.50429275,1.69546449 C5.54827366,2.23749015 4.64782755,2.90984339 3.82981811,3.71212188 C3.01714037,4.5091712 2.33160374,5.39330664 1.77730959,6.33737667 Z" id="Shape" fill="#FFFFFF"></path>
                    <path d="M6.50429275,1.69546449 L8.3343043,4.80401712 C9.76279614,3.99409594 11.364774,3.58903478 12.9667519,3.58903478 L12.9667519,0.00020110984 C10.7321445,0.00020110984 8.49733202,0.565154794 6.50429275,1.69546449 Z" id="Shape" fill="#FFFFFF"></path>
                    <polygon id="Shape" fill="#FFFFFF" points="9.81652353 18.2520872 16.1169803 18.2520872 16.1169803 19.8998856 9.81652353 19.8998856"></polygon>
                </g>
                <path d="M4.49749565,5 C4.62475972,5 4.75202374,4.95141783 4.84917192,4.85425343 C4.84956049,4.85405906 4.85092058,4.8526988 4.85208633,4.8515328 C5.04618832,4.65992463 5.04987996,4.34724956 4.85946961,4.15097749 C4.66808775,3.95392807 4.35313351,3.94906986 4.15592284,4.14048371 C4.15378556,4.14262134 4.14737375,4.14883987 4.14523653,4.15117181 C3.95152311,4.34550061 3.95152311,4.66011894 4.1456251,4.85425343 C4.24296756,4.95161214 4.37023158,5 4.49749565,5 Z" id="Shape" fill="#FF3838"></path>
                <path d="M26.886273,11.5080573 C26.4996235,8.63008447 25.1375955,5.91959988 23.0512949,3.87583961 C20.4998614,1.37643056 17.107975,0 13.5000016,0 C10.6803647,0 7.98082196,0.840871758 5.69305987,2.43160653 C5.45554956,2.59687508 5.39972535,2.91934044 5.56822793,3.15200784 C5.73673046,3.38467524 6.06590785,3.43936118 6.30362414,3.27429442 C6.47377467,3.1560437 6.64639706,3.04263602 6.8212854,2.93346593 L8.133051,5.15924357 C7.56780527,5.52146211 7.0363425,5.94300788 6.54772624,6.42166105 C6.06364191,6.89587476 5.63332183,7.41811524 5.2621218,7.97627491 L2.99001525,6.69145838 C3.22690757,6.32540572 3.48378128,5.97125891 3.76063633,5.63083398 C3.94191047,5.40765086 3.90441966,5.08256221 3.67659105,4.90478247 C3.4485564,4.72700278 3.11690715,4.76393093 2.93542697,4.98691226 C1.41087026,6.86217535 0.435079804,9.11701115 0.113730189,11.5078555 C-0.271683369,14.3751333 0.329817193,17.3346306 1.80658346,19.8402952 C2.12031133,20.3752486 2.62787893,20.7582519 3.23576529,20.9190809 C3.44031667,20.9733633 3.64795796,21 3.85436332,21 C4.26120018,21 4.66288717,20.8958748 5.02502344,20.6920637 C5.57111181,20.3845311 5.9620872,19.8875147 6.12626388,19.2920234 C6.29044056,18.6963303 6.20824921,18.0740004 5.89390339,17.5382398 C4.91831892,15.8827294 4.53723121,14.0046412 4.79225099,12.1069791 C5.04582881,10.2202139 5.91079487,8.50699067 7.29362817,7.15235377 C8.95146259,5.5283231 11.1555914,4.63417797 13.5000016,4.63417797 C15.8446178,4.63417797 18.0489526,5.5283231 19.706581,7.15235377 C21.0894143,8.50678889 21.9541744,10.2202139 22.2079582,12.1069791 C22.3299062,13.0148462 22.306011,13.9182738 22.1412163,14.7952665 L16.6922804,12.776125 C16.5929916,12.1049612 16.2774098,11.4836403 15.7819959,10.998328 C14.5242005,9.76617946 12.4776566,9.76617946 11.2198613,10.998328 C9.96206591,12.2304765 9.96206591,14.2354925 11.2198613,15.467641 C11.8487589,16.0837153 12.6747922,16.3916515 13.5008256,16.3916515 C14.3270649,16.3916515 15.1530981,16.0837153 15.7819959,15.4674392 C15.870985,15.3804664 15.9544123,15.288247 16.0322777,15.1919917 L21.780316,16.1119663 C21.6019258,16.6019199 21.3767751,17.0789587 21.1056878,17.5390469 C20.4582507,18.6432587 20.8481961,20.0576263 21.9751857,20.691862 C22.521068,20.9993946 23.1565575,21.0799101 23.7644439,20.9190809 C24.3723302,20.7582519 24.8798978,20.3750468 25.1930077,19.8413041 C26.670186,17.3348324 27.2716865,14.3751333 26.886273,11.5080573 Z M4.97991094,18.0540229 C5.15315133,18.3496497 5.19867585,18.6935051 5.10803878,19.0226296 C5.01719572,19.3515523 4.80110872,19.6263945 4.49953447,19.7961025 C4.19775418,19.9660123 3.84674152,20.0106085 3.51076642,19.9218196 C3.17499725,19.8328289 2.89443434,19.6211479 2.72057596,19.3247139 C1.70255683,17.5973651 1.14225494,15.7003084 1.06171153,13.7489694 L3.678239,13.7489694 C3.76249026,15.2573726 4.20640593,16.7417625 4.97991094,18.0540229 Z M3.74662879,11.9721814 C3.71325784,12.2193779 3.6905986,12.4673816 3.67720904,12.7155871 L1.06377149,12.7155871 C1.07983894,12.3588169 1.11135596,12.0012396 1.15955838,11.6428551 C1.35113221,10.2179942 1.79484185,8.84600304 2.46370225,7.58701608 L4.7341609,8.87102538 C4.22988919,9.84064115 3.89185408,10.8911759 3.74662879,11.9721814 Z M11.9655572,14.7369483 C11.1191305,13.9077805 11.1191305,12.5583902 11.9655572,11.7292225 C12.8121898,10.899853 14.1894613,10.9000548 15.0360939,11.7292225 C15.2136602,11.9031682 15.3566196,12.1031451 15.4618822,12.3204762 L13.9575128,11.762922 C13.5848708,11.6248955 13.176386,11.650725 12.807246,11.8361729 C12.4080309,12.0365534 12.1000708,12.4100724 11.9838906,12.8350486 C11.8677103,13.259823 11.9437219,13.7338349 12.187206,14.1031162 C12.4123567,14.4443483 12.7526577,14.6671279 13.145899,14.7300873 L14.7326658,14.9839431 C13.8872691,15.5552192 12.7174329,15.4732912 11.9655572,14.7369483 Z M15.8777828,14.1202687 C15.8763408,14.1200669 15.8748988,14.1198651 15.8734569,14.1194615 L13.3160495,13.7102252 C13.1938955,13.6906512 13.116648,13.6081178 13.0731834,13.5425351 C12.9899621,13.4162126 12.9629769,13.2475136 13.0027336,13.1022226 C13.0424904,12.9569316 13.1518729,12.8241518 13.2884464,12.7555421 C13.3356189,12.7319323 13.3996828,12.7091297 13.4713685,12.7091297 C13.5074173,12.7091297 13.5455261,12.7149817 13.5842529,12.729309 L16.0011728,13.6248667 C16.0061166,13.6268846 16.0112664,13.6287007 16.0164163,13.6305169 L18.4479617,14.531523 L15.8777828,14.1202687 Z M14.0273445,3.61471935 L14.0273445,1.04488452 C15.8800486,1.11995159 17.6600372,1.59033122 19.2665792,2.41445414 L17.9544016,4.64103896 C16.7441907,4.03747585 15.4124438,3.68595229 14.0273445,3.61471935 Z M7.73383593,2.41505953 C9.34882374,1.58609357 11.1277822,1.11914437 12.9726586,1.04427918 L12.9726586,3.61471935 C11.5875594,3.68595229 10.2558124,4.03747585 9.04560154,4.64103896 L7.73383593,2.41505953 Z M18.8669522,5.15924357 L20.1795417,2.93225519 C20.9396572,3.40727607 21.6526001,3.96684825 22.305393,4.60633055 C22.9579799,5.24561101 23.5285815,5.94361327 24.0130778,6.68964226 L21.7380874,7.97647669 C21.3668874,7.41811524 20.9363613,6.89587476 20.4522769,6.42166105 C19.9636607,5.94300788 19.4321979,5.52146211 18.8669522,5.15924357 Z M22.2658423,8.87102538 L24.5408328,7.58439273 C25.2068093,8.83631697 25.647017,10.2024561 25.8406508,11.6428551 C25.8886472,12.0010378 25.9201642,12.3588169 25.9364377,12.7155871 L23.3230002,12.7155871 C23.3096106,12.4673816 23.2867453,12.2193779 23.2535804,11.9721814 C23.1083551,10.8911759 22.77032,9.84064115 22.2658423,8.87102538 Z M24.2788093,19.325521 C24.1055688,19.6211479 23.8250059,19.8328289 23.4892368,19.9216178 C23.1534676,20.0104068 22.802249,19.9660123 22.5006747,19.7961025 C21.8779568,19.4455879 21.6622818,18.6640434 22.0196803,18.0550318 C22.3519475,17.491222 22.6232407,16.8957306 22.8315,16.2802618 L23.4741993,16.3831762 C23.5030383,16.3878175 23.5314654,16.3900372 23.5596865,16.3900372 C23.7945189,16.3900372 24.006074,16.2358672 24.068696,16.0070339 C24.1389398,15.7505549 23.9992763,15.4839863 23.7459045,15.3899507 L23.1353402,15.1639424 C23.2325691,14.6975987 23.295191,14.2245957 23.3219702,13.7489694 L25.9382916,13.7489694 C25.8577482,15.7005102 25.2974463,17.597567 24.2788093,19.325521 Z" id="Shape" fill="#FF3838"></path>
            </g>
        </g>
    </g>
</svg>