<?xml version="1.0" encoding="UTF-8"?>
<svg width="20px" height="19px" viewBox="0 0 20 19" version="1.1" xmlns="http://www.w3.org/2000/svg" xmlns:xlink="http://www.w3.org/1999/xlink">
    <!-- Generator: Sketch 50.2 (55047) - http://www.bohemiancoding.com/sketch -->
    <title>no-plug</title>
    <desc>Created with Sketch.</desc>
    <defs></defs>
    <g id="Page-1" stroke="none" stroke-width="1" fill="none" fill-rule="evenodd">
        <g id="Group-6" transform="translate(-233.000000, -30.000000)" fill="#FF3838" fill-rule="nonzero">
            <g id="Group-10" transform="translate(193.000000, 15.000000)">
                <g id="Group-9" transform="translate(0.000000, 15.000000)">
                    <g id="no-plug" transform="translate(40.547945, 0.000000)">
                        <path d="M9.31506849,0 C4.23977525,0 0,4.30966016 0,9.5 C0,14.6760528 4.22576627,19 9.31506849,19 C14.3903618,19 18.630137,14.6903399 18.630137,9.5 C18.630137,4.32394726 14.4043707,0 9.31506849,0 Z M3.52593536,15.4040645 C0.409535531,12.225832 0.285455908,7.31889649 3.15253211,4.00232032 L6.58127783,7.49913672 C6.28290454,8.06245703 6.18076627,8.72055468 6.30739298,9.36625782 C6.38180436,9.74577539 6.31528895,10.1375391 6.12003638,10.4694082 L5.37355736,11.738252 C5.24467465,11.9572715 5.27855094,12.2376328 5.4556464,12.4182441 L5.84160317,12.8118262 L4.68376926,13.9926465 C4.4706143,14.2100332 4.4706143,14.5624609 4.68376926,14.7798476 C4.89688785,14.9972343 5.24252782,14.9972343 5.4556464,14.7798476 L6.61348031,13.5990274 L6.99943707,13.9926465 C7.17645976,14.1732207 7.45132706,14.2078438 7.66619221,14.0763653 L8.91037243,13.3150664 C9.23578125,13.1159004 9.61984588,13.0480274 9.99204837,13.1239903 C10.6251819,13.2530938 11.2704687,13.1489649 11.8228232,12.844668 L14.7057642,15.7848438 C11.4537136,18.7088399 6.64233519,18.5822968 3.52593536,15.4040645 Z M10.9910894,11.9965332 C10.7401648,12.0720879 10.4714105,12.0864492 10.2060766,12.0323809 C9.96450342,11.9830625 9.71998287,11.9692207 9.47906464,11.989334 L7.41999786,9.88938867 C7.43975599,9.6436875 7.42614725,9.39434961 7.37782534,9.14798047 C7.32477312,8.87741601 7.33885488,8.60328907 7.41297517,8.34738282 L10.9910894,11.9965332 Z M8.04418022,7.41667968 L9.47491653,5.95753907 C9.64975599,6.13588672 13.0373481,9.59069532 13.3343386,9.89358203 L11.9036023,11.3527226 L8.04418022,7.41667968 Z M8.31777397,12.3793907 L7.46995719,12.8981797 C6.89380565,12.3105899 6.77303724,12.1874238 6.52884418,11.9383828 L7.03753425,11.0737344 L8.31777397,12.3793907 Z M15.4776049,14.9977168 L12.6754795,12.1399609 L14.4921725,10.2872012 C14.7053275,10.0698144 14.7053275,9.71738672 14.4921725,9.5 L14.1062158,9.10641797 L15.490122,7.69503711 C15.7032769,7.47765039 15.7032769,7.12522266 15.490122,6.90783593 C15.2770034,6.69044922 14.9313998,6.69044922 14.7182448,6.90783593 L13.3343386,8.3192168 L11.0186708,5.95753907 L12.4025771,4.5461582 C12.6157321,4.32877149 12.6157321,3.97634375 12.4025771,3.75895703 C12.1894585,3.54157032 11.8438549,3.54157032 11.6306999,3.75895703 L10.2467937,5.17033789 L9.86087329,4.77675586 C9.64775471,4.55936914 9.30215111,4.55936914 9.08899614,4.77675586 L7.27230308,6.62951563 L3.92440925,3.21515625 C5.48268194,1.81405468 7.39871147,1.11291016 9.31506849,1.11291016 C11.3980779,1.11291016 13.4810873,1.94059766 15.1042016,3.59593555 C18.2206014,6.77420508 18.3446447,11.6811035 15.4776049,14.9977168 Z" id="Shape"></path>
                    </g>
                </g>
            </g>
        </g>
    </g>
</svg>