<?xml version="1.0" encoding="UTF-8"?>
<svg width="8px" height="17px" viewBox="0 0 8 17" version="1.1" xmlns="http://www.w3.org/2000/svg" xmlns:xlink="http://www.w3.org/1999/xlink">
    <!-- Generator: Sketch 50.2 (55047) - http://www.bohemiancoding.com/sketch -->
    <title>celsius</title>
    <desc>Created with Sketch.</desc>
    <defs></defs>
    <g id="Page-1" stroke="none" stroke-width="1" fill="none" fill-rule="evenodd">
        <g id="Group-6" transform="translate(-219.000000, -31.000000)" fill="#FF3838" fill-rule="nonzero">
            <g id="Group-10" transform="translate(193.000000, 15.000000)">
                <g id="Group-9" transform="translate(0.000000, 15.000000)">
                    <g id="celsius" transform="translate(26.301370, 1.117647)">
                        <path d="M4.18283123,11.2708216 L4.18283123,6.68800129 C4.18283123,6.41351813 3.96460964,6.1909642 3.69546967,6.1909642 C3.42632973,6.1909642 3.20823356,6.41351813 3.20823356,6.68800129 L3.20823356,11.2708216 C2.47380504,11.4869802 1.93502347,12.1781764 1.93502347,12.9958702 C1.93502347,13.9858515 2.72475989,14.7912665 3.69546967,14.7912665 C4.66617952,14.7912665 5.45604132,13.9858515 5.45604132,12.9958702 C5.45604132,12.1781764 4.91713433,11.4869802 4.18283123,11.2708216 Z M3.69546967,13.7973202 C3.26216188,13.7973202 2.90962115,13.4377805 2.90962115,12.9958702 C2.90962115,12.5538321 3.26216188,12.1942924 3.69546967,12.1942924 C4.12877748,12.1942924 4.48144363,12.55396 4.48144363,12.9958702 C4.48144363,13.4377805 4.12890289,13.7973202 3.69546967,13.7973202 Z" id="Shape"></path>
                        <path d="M6.04724621,10.0887276 L6.04724621,2.39833833 C6.04724621,1.07593312 4.99225775,0 3.69546967,0 C2.39880707,0 1.34381856,1.07593312 1.34381856,2.39833833 L1.34381856,10.0887276 C0.497896362,10.8016676 0,11.8699264 0,12.9958702 C0,15.0739356 1.65785699,16.7647059 3.69546967,16.7647059 C5.73320779,16.7647059 7.39106478,15.0739356 7.39106478,12.9958702 C7.39106478,11.8699264 6.89304298,10.8016676 6.04724621,10.0887276 Z M3.69546967,15.7707596 C2.19525899,15.7707596 0.974597678,14.5258646 0.974597678,12.9958702 C0.974597678,12.1023291 1.40075683,11.2579031 2.11461733,10.7372037 C2.24254033,10.6438334 2.31841624,10.4932897 2.31841624,10.3328974 L2.31841624,2.39833833 C2.31841624,1.62400413 2.93620906,0.993946308 3.69546967,0.993946308 C4.45485572,0.993946308 5.07264857,1.62400413 5.07264857,2.39833833 L5.07264857,10.3328974 C5.07264857,10.4932897 5.14852445,10.6438334 5.27644745,10.7372037 C5.99030796,11.2579031 6.4164671,12.1023291 6.4164671,12.9958702 C6.4164671,14.5258646 5.19580579,15.7707596 3.69546967,15.7707596 Z" id="Shape"></path>
                    </g>
                </g>
            </g>
        </g>
    </g>
</svg>