<?xml version="1.0" encoding="UTF-8"?>
<svg width="49px" height="14px" viewBox="0 0 49 14" version="1.1" xmlns="http://www.w3.org/2000/svg" xmlns:xlink="http://www.w3.org/1999/xlink">
    <!-- Generator: Sketch 50.2 (55047) - http://www.bohemiancoding.com/sketch -->
    <title>پیچ شدید</title>
    <desc>Created with Sketch.</desc>
    <defs></defs>
    <g id="Page-1" stroke="none" stroke-width="1" fill="none" fill-rule="evenodd">
        <g id="Group-6" transform="translate(-119.000000, -213.000000)" fill="#FF3838" stroke="#FF3838" stroke-width="0.200000018">
            <g id="Group-5" transform="translate(113.000000, 201.000000)">
                <path d="M49.5188004,20.2136121 C49.5188004,20.0643699 49.5687663,19.9400032 49.6686996,19.8405084 C49.768633,19.7410136 49.8904797,19.6912669 50.0342435,19.6912669 L50.6180618,19.6912669 C50.7407869,19.6948203 50.8740294,19.6957086 51.0177932,19.6939319 C51.161557,19.6921552 51.3070718,19.6841602 51.454342,19.6699467 C51.6016122,19.6557332 51.7462504,19.6353015 51.888261,19.6086511 C52.0302715,19.5820007 52.1608842,19.5446907 52.280103,19.49672 C52.3993217,19.4487492 52.5045131,19.3892309 52.5956804,19.3181632 C52.6868477,19.2470954 52.7552221,19.1618154 52.8008057,19.0623206 C52.8709344,18.909525 52.8910961,18.6918833 52.8612914,18.4093891 C52.8314867,18.1268949 52.7604825,17.7973232 52.6482766,17.4206642 C52.6097059,17.3069558 52.5649995,17.1834775 52.5141562,17.0502255 C52.4633129,16.9169735 52.413347,16.7934952 52.3642569,16.6797868 C52.308154,16.5447581 52.2502987,16.4115081 52.1906893,16.2800328 L53.1269024,15.8109881 C53.1269024,15.8145415 53.1435577,15.8509632 53.1768688,15.9202542 C53.21018,15.9895452 53.2513799,16.0828202 53.30047,16.200082 C53.3495601,16.3173438 53.403909,16.4532588 53.4635184,16.6078311 C53.5231277,16.7624034 53.5792298,16.9267451 53.6318263,17.100861 C53.9579246,18.120683 53.998248,18.9166296 53.7527977,19.4887249 C53.5038409,20.0608201 53.0620369,20.4374735 52.4273724,20.6186962 C52.3326987,20.6471233 52.2117286,20.6693316 52.0644584,20.6853219 C51.9171882,20.7013121 51.7664138,20.7128604 51.6121307,20.7199672 C51.4578476,20.727074 51.3105796,20.7315156 51.1703223,20.7332923 C51.030065,20.735069 50.9213671,20.7359574 50.8442256,20.7359574 L50.0342435,20.7359574 C49.8904797,20.7359574 49.768633,20.6862107 49.6686996,20.5867159 C49.5687663,20.487221 49.5188004,20.3628544 49.5188004,20.2136121 Z M53.1479409,21.7273473 L54,22.5908159 L53.1374217,23.4649446 L52.2853626,22.601476 L53.1479409,21.7273473 Z M50.8494852,21.7326773 L51.7015443,22.601476 L50.838966,23.4756048 L49.9869069,22.6068061 L50.8494852,21.7326773 Z M52.0171218,23.4169742 L52.7955461,24.2058221 L52.0118621,25 L51.2334378,24.2111521 L52.0171218,23.4169742 Z M44.9587064,20.2136121 C44.9587064,20.0643699 45.0077957,19.9391149 45.1059758,19.8378434 C45.204156,19.7365719 45.3268793,19.6859369 45.4741495,19.6859369 L45.8738809,19.6859369 C46.1684213,19.6859369 46.450685,19.6681702 46.7206804,19.6326363 C46.9906758,19.5971025 47.2282331,19.5313658 47.4333594,19.4354244 C47.6384858,19.3394829 47.8006559,19.2088979 47.9198747,19.0436654 C48.0390934,18.878433 48.0934423,18.6661213 48.082923,18.4067241 C48.0759101,18.2077344 48.0592548,18.0016411 48.0329566,17.7884379 C48.0066583,17.5752347 47.9549392,17.3318314 47.8777977,17.0582206 L48.8613474,16.7757278 C48.8929053,16.9000963 48.9227095,17.0306813 48.950761,17.1674867 C48.9788124,17.3042921 49.0033571,17.4437604 49.0243957,17.5858959 C49.0454343,17.7280313 49.0638428,17.871053 49.0796218,18.0149651 C49.0954007,18.1588773 49.1067964,18.3001223 49.1138093,18.4387044 C49.1208222,18.5701797 49.1366009,18.7087597 49.1611459,18.8544485 C49.185691,19.0001374 49.2295207,19.1351641 49.2926365,19.2595326 C49.3557523,19.3839011 49.4425353,19.4869478 49.5529879,19.5686757 C49.6634406,19.6504036 49.8080788,19.6912669 49.9869069,19.6912669 C50.1341771,19.6912669 50.2586536,19.7410136 50.3603402,19.8405084 C50.4620268,19.9400032 50.5128693,20.0643699 50.5128693,20.2136121 C50.5128693,20.2882333 50.4988438,20.3566349 50.4707923,20.4188192 C50.4427408,20.4810035 50.4050472,20.5360801 50.3577104,20.5840508 C50.3103735,20.6320216 50.2560246,20.6693316 50.194662,20.695982 C50.1332995,20.7226324 50.0675548,20.7359574 49.9974261,20.7359574 C49.6432764,20.7359574 49.3504935,20.671109 49.1190689,20.5414104 C48.8876443,20.4117118 48.6982998,20.2491468 48.5510295,20.0537105 C48.4247979,20.1780791 48.2617512,20.2837907 48.0618845,20.3708487 C47.8620178,20.4579067 47.6419924,20.528085 47.4018017,20.5813858 C47.161611,20.6346866 46.9100282,20.6737733 46.6470457,20.698647 C46.3840631,20.7235207 46.1263441,20.7359574 45.8738809,20.7359574 L45.4741495,20.7359574 C45.3268793,20.7359574 45.204156,20.6862107 45.1059758,20.5867159 C45.0077957,20.487221 44.9587064,20.3628544 44.9587064,20.2136121 Z M47.1467099,22.7613776 L46.2946509,23.6248462 L45.4320725,22.7560476 L46.2841316,21.8872489 L47.1467099,22.7613776 Z M49.3031558,22.7667077 L48.4510967,23.6355064 L47.5885184,22.7613776 L48.4405774,21.897909 L49.3031558,22.7667077 Z M42.2456906,20.1827639 L43.0418957,20.9903685 L42.2358609,21.8079435 L41.4396558,21.0003389 L42.2456906,20.1827639 Z M40.0979027,20.1877491 L40.8941078,21.0003389 L40.088073,21.8179139 L39.2918679,21.0053241 L40.0979027,20.1877491 Z M41.1889986,21.7630766 L41.9163959,22.5008882 L41.1840838,23.243685 L40.4566865,22.5058734 L41.1889986,21.7630766 Z M41.3348254,24.9520295 C40.8369119,24.9520295 40.3635504,24.8800745 39.9147269,24.7361624 C39.4659035,24.5922502 39.0652994,24.3905985 38.7129029,24.1312013 C38.3605063,23.8718041 38.0677235,23.5644408 37.8345457,23.2091021 C37.6013678,22.8537634 37.4497169,22.4655618 37.3795882,22.0444854 C37.3094595,21.6234091 37.332251,21.1765775 37.4479633,20.703977 C37.5636756,20.2313766 37.7968499,19.7481233 38.1474933,19.2542025 C38.5682653,18.7567284 39.0942224,18.3587551 39.7253805,18.0602706 C40.1566718,17.8577276 40.6019822,17.6996042 41.061325,17.5858959 C41.5206678,17.4721875 41.9712377,17.3886842 42.4130483,17.3353834 L41.845009,17.0582206 C41.4768334,16.8698911 41.1402209,16.7073261 40.8351611,16.5705207 C40.5301014,16.4337153 40.2758888,16.3511003 40.0725157,16.3226732 C39.5851214,16.2551589 39.1450706,16.4310489 38.75235,16.8503485 C38.6366377,16.9782704 38.542842,17.1008604 38.4709602,17.2181222 C38.3990783,17.3353839 38.3473592,17.4259939 38.3158013,17.4899549 L38.2895031,17.5539155 L37.3217323,17.1488315 C37.3287452,17.1346179 37.3471537,17.0955313 37.3769584,17.0315703 C37.4067631,16.9676094 37.4497162,16.8885477 37.5058192,16.7943829 C37.5619221,16.7002182 37.6302965,16.5962832 37.7109445,16.4825748 C37.7915925,16.3688665 37.8862648,16.2533831 37.9949642,16.1361214 C38.3035303,15.7914429 38.6445259,15.5480395 39.0179611,15.4059041 C39.3913962,15.2637686 39.7884939,15.2211286 40.2092659,15.2779828 C40.5038063,15.31707 40.8202572,15.4121217 41.158628,15.5631406 C41.4969989,15.7141596 41.8783178,15.8962679 42.3025962,16.1094711 C42.6847975,16.301354 43.0915377,16.498564 43.522829,16.701107 C43.9541203,16.90365 44.4239754,17.0902 44.9324082,17.2607626 L44.7325425,18.2841328 C44.7255297,18.2841328 44.6930956,18.2832445 44.6352395,18.2814678 C44.5773833,18.2796911 44.4967366,18.2779145 44.3932968,18.2761378 C44.289857,18.2743611 44.1671337,18.2752494 44.0251231,18.2788028 C43.8831125,18.2823562 43.726202,18.2894628 43.5543868,18.300123 C43.5473739,18.3392103 43.5429909,18.3933986 43.5412377,18.4626896 C43.5394845,18.5319807 43.5438674,18.607489 43.5543868,18.6892169 C43.5649061,18.7709448 43.5859443,18.8562248 43.6175022,18.9450595 C43.6490601,19.0338941 43.6963963,19.1173974 43.7595121,19.195572 C43.8436665,19.2986202 43.9392154,19.3821235 44.0461616,19.4460845 C44.1531078,19.5100454 44.2758311,19.5606804 44.4143353,19.597991 C44.5528394,19.6353015 44.7097499,19.6601749 44.8850716,19.6726117 C45.0603933,19.6850486 45.2585038,19.6912669 45.4794091,19.6912669 C45.5495378,19.6912669 45.616159,19.7054802 45.6792748,19.7339073 C45.7423906,19.7623344 45.7976161,19.8005328 45.844953,19.8485035 C45.8922899,19.8964742 45.9299834,19.9524392 45.9580349,20.0164002 C45.9860864,20.0803611 46.0001119,20.1496511 46.0001119,20.2242722 C46.0001119,20.3699611 45.9492694,20.4916628 45.8475828,20.5893809 C45.7458962,20.687099 45.6231729,20.7359574 45.4794091,20.7359574 C45.1568172,20.7359574 44.864911,20.7173024 44.6036817,20.6799918 C44.3424524,20.6426812 44.1084015,20.5867162 43.9015219,20.5120951 C43.6946424,20.437474 43.511434,20.344199 43.3518912,20.2322673 C43.1923485,20.1203356 43.0529699,19.987974 42.9337511,19.8351784 C42.8075195,19.6646158 42.7075877,19.4754008 42.6339526,19.2675277 C42.5603174,19.0596546 42.5182409,18.8366829 42.5077216,18.598606 C42.4972023,18.5239849 42.4972023,18.4564715 42.5077216,18.396064 C42.115001,18.4458114 41.7170268,18.5186547 41.3137869,18.6145961 C40.9105471,18.7105376 40.5248452,18.8437876 40.1566697,19.0143501 C40.0725152,19.0534374 39.97346,19.1067374 39.8595009,19.1742517 C39.7455418,19.2417661 39.6254483,19.3226044 39.4992167,19.4167692 C39.372985,19.5109339 39.2476319,19.6193106 39.1231535,19.7419024 C38.9986751,19.8644943 38.8838412,20.0030743 38.7786482,20.1576466 C38.6734552,20.3122189 38.584919,20.4827789 38.5130372,20.6693317 C38.4411553,20.8558845 38.3964489,21.0610895 38.3789167,21.2849528 C38.3508653,21.7397863 38.4262525,22.1395363 38.6050806,22.4842148 C38.7839087,22.8288933 39.0311085,23.1140483 39.3466876,23.3396884 C39.6622666,23.5653284 40.0234238,23.7296701 40.4301701,23.8327183 C40.8369164,23.9357665 41.2541757,23.9748532 41.6819606,23.9499795 C42.1097455,23.9251058 42.5252516,23.8336075 42.9284915,23.6754818 C43.3317314,23.517356 43.687629,23.2890544 43.9961952,22.9905699 L44.6746867,23.800738 C44.4257299,24.0246014 44.1645045,24.210263 43.8910027,24.3577286 C43.6175009,24.5051941 43.337867,24.6224541 43.0520927,24.7095121 C42.7663183,24.7965701 42.4787951,24.8587534 42.1895143,24.896064 C41.9002336,24.9333745 41.6153401,24.9520295 41.3348254,24.9520295 Z M23.6887869,20.2189422 C23.6887869,20.1514278 23.7010593,20.0865795 23.7256043,20.0243952 C23.7501493,19.962211 23.7843365,19.9071343 23.828167,19.8591636 C23.8719974,19.8111929 23.9237165,19.7729945 23.9833259,19.7445674 C24.0429352,19.7161404 24.1060501,19.6983737 24.1726723,19.6912669 C24.3795519,19.6912669 24.5662667,19.6504036 24.7328223,19.5686757 C24.8993779,19.4869478 25.0466459,19.3776828 25.1746307,19.2408774 C25.3026155,19.104072 25.4156963,18.946837 25.5138765,18.7691677 C25.6120566,18.5914984 25.6962097,18.4058367 25.7663384,18.2121771 C25.8364671,18.0185176 25.895199,17.8230842 25.9425358,17.6258713 C25.9898727,17.4286583 26.0310726,17.2429966 26.066137,17.0688807 L27.1075425,17.2927429 C27.0794911,17.3780242 27.0453038,17.4881775 27.0049799,17.6232062 C26.9646559,17.7582349 26.9252091,17.9030333 26.8866383,18.0576056 C26.8480675,18.2121779 26.8147569,18.3703012 26.7867055,18.5319803 C26.758654,18.6936594 26.7446285,18.8437877 26.7446285,18.9823698 C26.7446285,19.0783113 26.7533944,19.1715863 26.7709266,19.2621976 C26.7884588,19.352809 26.818263,19.4336473 26.8603402,19.504715 C26.9024174,19.5757828 26.9602727,19.6326361 27.0339078,19.6752768 C27.1075429,19.7179174 27.200462,19.7392374 27.3126679,19.7392374 C27.491496,19.7392374 27.6519129,19.6894907 27.7939235,19.5899959 C27.935934,19.4905011 28.0621637,19.3608044 28.1726164,19.200902 C28.283069,19.0409996 28.3786179,18.8597796 28.4592659,18.6572366 C28.5399139,18.4546935 28.6091649,18.2486002 28.667021,18.0389504 C28.7248772,17.8293006 28.7730899,17.6258722 28.8116607,17.4286593 C28.8502315,17.2314463 28.8800357,17.059998 28.9010743,16.9143091 L29.9109221,17.100861 L29.8819942,17.2740877 C29.8627088,17.3895728 29.8399173,17.5299295 29.8136191,17.695162 C29.7873208,17.8603944 29.7636527,18.0362844 29.7426141,18.2228372 C29.7215755,18.40939 29.7110564,18.5755084 29.7110564,18.7211972 C29.7110564,18.8526725 29.7206989,18.9779275 29.7399843,19.096966 C29.7592697,19.2160044 29.7908271,19.3208278 29.8346576,19.4114391 C29.878488,19.5020505 29.9363433,19.5766705 30.0082252,19.6353014 C30.080107,19.6939322 30.1686432,19.7285772 30.2738362,19.7392374 C30.4351321,19.7605577 30.5692512,19.758781 30.6761974,19.7339073 C30.7831436,19.7090336 30.8681734,19.6761653 30.9312892,19.6353014 C30.994405,19.5944374 31.0408645,19.5509091 31.0706692,19.504715 C31.1004739,19.458521 31.1206356,19.4247644 31.1311549,19.403444 L31.1258953,19.403444 C31.1749853,19.3252695 31.2091725,19.2364362 31.2284579,19.1369414 C31.2477433,19.0374465 31.2573859,18.9308465 31.2573859,18.8171382 C31.2573859,18.6145951 31.2302114,18.3960651 31.1758617,18.1615416 C31.121512,17.9270181 31.0566439,17.6969398 30.9812556,17.4712997 C30.9058673,17.2456597 30.8269737,17.036013 30.7445725,16.8423534 C30.6621713,16.6486939 30.5929203,16.4950122 30.5368174,16.3813038 L31.4572516,15.8909389 C31.4747837,15.9264728 31.5080944,15.9948744 31.5571844,16.096146 C31.6062745,16.1974175 31.6623766,16.3217841 31.7254924,16.4692497 C31.7886082,16.6167152 31.8543528,16.7828336 31.9227283,16.9676097 C31.9911037,17.1523858 32.053342,17.3469308 32.1094449,17.5512505 C32.1655479,17.7555702 32.2120074,17.9643286 32.248825,18.1775318 C32.2856425,18.390735 32.304051,18.598605 32.304051,18.801148 C32.304051,19.1067393 32.2619745,19.3830109 32.1778201,19.6299713 C32.0936656,19.8769317 31.9674359,20.0874667 31.7991271,20.2615826 C31.6308183,20.4356986 31.4195589,20.5698369 31.1653424,20.6640016 C30.911126,20.7581664 30.6139602,20.8034714 30.2738362,20.799918 C30.1370853,20.799918 30.0020896,20.778598 29.8688451,20.7359574 C29.7356006,20.6933167 29.6076177,20.6355751 29.4848926,20.5627306 C29.3621674,20.4898862 29.24821,20.4046062 29.143017,20.3068881 C29.037824,20.2091699 28.9484113,20.1034583 28.8747762,19.9897499 C28.6643902,20.238487 28.4259563,20.435697 28.1594673,20.5813858 C27.8929784,20.7270747 27.6107147,20.799918 27.3126679,20.799918 C27.1829298,20.799918 27.0488107,20.7830397 26.9103066,20.7492825 C26.7718025,20.7155253 26.6394366,20.6648903 26.513205,20.597376 C26.3869734,20.5298616 26.2721394,20.4463583 26.1686996,20.3468635 C26.0652599,20.2473686 25.9854897,20.1318853 25.9293868,20.00041 C25.7190007,20.2242734 25.4805668,20.40194 25.2140779,20.5334153 C24.9475889,20.6648906 24.6285083,20.7341806 24.2568263,20.7412874 L24.1726723,20.7412874 C24.1060501,20.737734 24.0429352,20.721744 23.9833259,20.6933169 C23.9237165,20.6648898 23.8719974,20.6275798 23.828167,20.5813858 C23.7843365,20.5351918 23.7501493,20.4810035 23.7256043,20.4188192 C23.7010593,20.3566349 23.6887869,20.2900099 23.6887869,20.2189422 Z M29.3008057,14.398524 L30.1528648,13.5350554 L31.0154432,14.4091841 L30.1633841,15.2726527 L29.3008057,14.398524 Z M26.9918308,14.3931939 L27.8438899,13.5243952 L28.7064682,14.398524 L27.8544091,15.2673227 L26.9918308,14.3931939 Z M28.2594002,12.7888479 L29.0378245,12 L29.8215085,12.7941779 L29.0430842,13.5830258 L28.2594002,12.7888479 Z M20.3278872,20.7359574 C19.9176345,20.7359574 19.5345624,20.6489007 19.1786594,20.4747847 C18.8227564,20.3006688 18.4975395,20.0590421 18.2029991,19.7498975 L18.7973366,18.902419 C19.0077226,19.1014087 19.2198587,19.259532 19.4337511,19.3767938 C19.6476436,19.4940555 19.858903,19.5757822 20.0675358,19.6219762 C20.2761686,19.6681702 20.4812919,19.6814952 20.6829118,19.6619516 C20.8845317,19.642408 21.0800125,19.5953263 21.2693599,19.5207052 C21.448188,19.4496375 21.5945794,19.3723525 21.7085385,19.2888479 C21.8224976,19.2053433 21.9092805,19.1333883 21.9688899,19.0729807 L20.3068487,15.0221402 L21.2641003,14.6170562 C21.3763061,14.8942203 21.5113018,15.226457 21.6690913,15.6137761 C21.8023358,15.9477945 21.9688889,16.3590928 22.1687556,16.8476835 C22.3686223,17.3362741 22.6035498,17.9056958 22.8735452,18.5559656 C22.9436739,18.7265281 23.0059121,18.8819865 23.0602619,19.0223452 C23.1146116,19.162704 23.1838626,19.2817407 23.268017,19.3794588 C23.3521714,19.4771769 23.4643756,19.5535736 23.6046329,19.6086511 C23.7448903,19.6637286 23.9342349,19.6912669 24.1726723,19.6912669 C24.3164361,19.6912669 24.4391594,19.7410136 24.540846,19.8405084 C24.6425326,19.9400032 24.6933751,20.0643699 24.6933751,20.2136121 C24.6933751,20.3628544 24.6425326,20.487221 24.540846,20.5867159 C24.4391594,20.6862107 24.3164361,20.7359574 24.1726723,20.7359574 C23.9447542,20.7359574 23.7422607,20.7173024 23.5651858,20.6799918 C23.3881109,20.6426812 23.2320769,20.5920462 23.0970792,20.5280853 C22.9620815,20.4641243 22.8437412,20.388616 22.7420546,20.301558 C22.640368,20.2145 22.5527085,20.1230017 22.4790734,20.0270603 C22.3738804,20.1052348 22.2537869,20.1869614 22.1187892,20.2722427 C21.9837915,20.357524 21.8286341,20.4356973 21.6533124,20.5067651 C21.4569522,20.5849396 21.2535821,20.6426812 21.0431961,20.6799918 C20.83281,20.7173024 20.5943761,20.7359574 20.3278872,20.7359574 Z M14.721128,22.5748257 L13.8690689,23.4382944 L13.0064906,22.5694957 L13.8585497,21.700697 L14.721128,22.5748257 Z M16.8775739,22.5801558 L16.0255148,23.4489545 L15.1629364,22.5748257 L16.0149955,21.7113571 L16.8775739,22.5801558 Z M12.1859893,20.2136121 C12.1859893,20.0643699 12.2359552,19.9400032 12.3358885,19.8405084 C12.4358219,19.7410136 12.5576686,19.6912669 12.7014324,19.6912669 L13.2852507,19.6912669 C13.4079758,19.6948203 13.5412183,19.6957086 13.6849821,19.6939319 C13.8287459,19.6921552 13.9742607,19.6841602 14.1215309,19.6699467 C14.2688011,19.6557332 14.4134393,19.6353015 14.5554499,19.6086511 C14.6974604,19.5820007 14.8280731,19.5446907 14.9472919,19.49672 C15.0665106,19.4487492 15.171702,19.3892309 15.2628693,19.3181632 C15.3540366,19.2470954 15.422411,19.1618154 15.4679946,19.0623206 C15.5381233,18.909525 15.558285,18.6918833 15.5284803,18.4093891 C15.4986756,18.1268949 15.4276714,17.7973232 15.3154655,17.4206642 C15.2768948,17.3069558 15.2321884,17.1834775 15.1813451,17.0502255 C15.1305018,16.9169735 15.0805359,16.7934952 15.0314458,16.6797868 C14.9753429,16.5447581 14.9174876,16.4115081 14.8578782,16.2800328 L15.7940913,15.8109881 C15.7940913,15.8145415 15.8107466,15.8509632 15.8440577,15.9202542 C15.8773689,15.9895452 15.9185688,16.0828202 15.9676589,16.200082 C16.016749,16.3173438 16.0710979,16.4532588 16.1307073,16.6078311 C16.1903166,16.7624034 16.2464187,16.9267451 16.2990152,17.100861 C16.6251135,18.120683 16.6654369,18.9166296 16.4199866,19.4887249 C16.1710298,20.0608201 15.7292258,20.4374735 15.0945613,20.6186962 C14.9998876,20.6471233 14.8789175,20.6693316 14.7316473,20.6853219 C14.5843771,20.7013121 14.4336027,20.7128604 14.2793196,20.7199672 C14.1250365,20.727074 13.9777685,20.7315156 13.8375112,20.7332923 C13.6972538,20.735069 13.588556,20.7359574 13.5114145,20.7359574 L12.7014324,20.7359574 C12.5576686,20.7359574 12.4358219,20.6862107 12.3358885,20.5867159 C12.2359552,20.487221 12.1859893,20.3628544 12.1859893,20.2136121 Z M9.12488809,20.7359574 C8.71463537,20.7359574 8.33156325,20.6489007 7.97566025,20.4747847 C7.61975725,20.3006688 7.29454042,20.0590421 7,19.7498975 L7.59433751,18.902419 C7.80472352,19.1014087 8.01685957,19.259532 8.23075201,19.3767938 C8.44464446,19.4940555 8.65590391,19.5757822 8.86453671,19.6219762 C9.0731695,19.6681702 9.27829278,19.6814952 9.47991271,19.6619516 C9.68153264,19.642408 9.87701338,19.5953263 10.0663608,19.5207052 C10.2451889,19.4496375 10.3915803,19.3723525 10.5055394,19.2888479 C10.6194985,19.2053433 10.7062814,19.1333883 10.7658908,19.0729807 L9.1038496,15.0221402 L10.0611012,14.6170562 C10.173307,14.8942203 10.3083027,15.226457 10.4660922,15.6137761 C10.5993367,15.9477945 10.7658898,16.3590928 10.9657565,16.8476835 C11.1656232,17.3362741 11.4005507,17.9056958 11.6705461,18.5559656 C11.7406748,18.7265281 11.802913,18.8819865 11.8572628,19.0223452 C11.9116125,19.162704 11.9808635,19.2817407 12.0650179,19.3794588 C12.1491723,19.4771769 12.2613765,19.5535736 12.4016338,19.6086511 C12.5418912,19.6637286 12.7312358,19.6912669 12.9696732,19.6912669 C13.113437,19.6912669 13.2361603,19.7410136 13.3378469,19.8405084 C13.4395335,19.9400032 13.490376,20.0643699 13.490376,20.2136121 C13.490376,20.3628544 13.4395335,20.487221 13.3378469,20.5867159 C13.2361603,20.6862107 13.113437,20.7359574 12.9696732,20.7359574 C12.7417551,20.7359574 12.5392616,20.7173024 12.3621867,20.6799918 C12.1851118,20.6426812 12.0290778,20.5920462 11.8940801,20.5280853 C11.7590824,20.4641243 11.6407421,20.388616 11.5390555,20.301558 C11.4373689,20.2145 11.3497094,20.1230017 11.2760743,20.0270603 C11.1708813,20.1052348 11.0507878,20.1869614 10.9157901,20.2722427 C10.7807924,20.357524 10.625635,20.4356973 10.4503133,20.5067651 C10.2539531,20.5849396 10.050583,20.6426812 9.84019696,20.6799918 C9.62981094,20.7173024 9.39137704,20.7359574 9.12488809,20.7359574 Z" id="پیچ-شدید"></path>
            </g>
        </g>
    </g>
</svg>