<?xml version="1.0" encoding="UTF-8"?>
<svg width="11px" height="24px" viewBox="0 0 11 24" version="1.1" xmlns="http://www.w3.org/2000/svg" xmlns:xlink="http://www.w3.org/1999/xlink">
    <!-- Generator: Sketch 50.2 (55047) - http://www.bohemiancoding.com/sketch -->
    <title>celsius</title>
    <desc>Created with Sketch.</desc>
    <defs></defs>
    <g id="Page-1" stroke="none" stroke-width="1" fill="none" fill-rule="evenodd">
        <g id="Artboard" transform="translate(-345.000000, -306.000000)" fill="#FF3838" fill-rule="nonzero">
            <g id="celsius" transform="translate(345.000000, 306.000000)">
                <path d="M6.19198576,16.0879239 L6.19198576,9.69351574 C6.19198576,9.31052945 5.88210152,9 5.49991094,9 C5.1177204,9 4.80801424,9.31052945 4.80801424,9.69351574 L4.80801424,16.0879239 C3.7650935,16.38953 3,17.353956 3,18.494884 C3,19.8762046 4.12146041,21 5.49991094,21 C6.87836156,21 8,19.8762046 8,18.494884 C8,17.353956 7.23472842,16.38953 6.19198576,16.0879239 Z M5.49991094,19.6131469 C4.88459485,19.6131469 4.38397151,19.1114812 4.38397151,18.494884 C4.38397151,17.8781083 4.88459485,17.3764426 5.49991094,17.3764426 C6.11522706,17.3764426 6.61602849,17.8782867 6.61602849,18.494884 C6.61602849,19.1114812 6.11540515,19.6131469 5.49991094,19.6131469 Z" id="Shape"></path>
                <path d="M9.00001695,14.44281 L9.00001695,3.43341066 C9.00001695,1.5402832 7.429895,0 5.49990666,0 C3.57010505,0 1.99998305,1.5402832 1.99998305,3.43341066 L1.99998305,14.44281 C0.741010955,15.46344 0,16.9927368 0,18.6046143 C0,21.5795288 2.46736126,24 5.49990666,24 C8.53263874,24 11,21.5795288 11,18.6046143 C11,16.9927368 10.2588024,15.46344 9.00001695,14.44281 Z M5.49990666,22.5770874 C3.2671678,22.5770874 1.45047767,20.7949219 1.45047767,18.6046143 C1.45047767,17.3254395 2.08472332,16.1165771 3.14715015,15.3711548 C3.33753584,15.2374878 3.45046072,15.0219727 3.45046072,14.7923584 L3.45046072,3.43341066 C3.45046072,2.32489012 4.3699116,1.42291261 5.49990666,1.42291261 C6.6300884,1.42291261 7.54953933,2.32489012 7.54953933,3.43341066 L7.54953933,14.7923584 C7.54953933,15.0219727 7.66246416,15.2374878 7.85284985,15.3711548 C8.91527668,16.1165771 9.54952233,17.3254395 9.54952233,18.6046143 C9.54952233,20.7949219 7.7328322,22.5770874 5.49990666,22.5770874 Z" id="Shape"></path>
            </g>
        </g>
    </g>
</svg>