<?xml version="1.0" encoding="utf-8"?>
<!-- Generator: Adobe Illustrator 23.0.1, SVG Export Plug-In . SVG Version: 6.00 Build 0)  -->
<svg version="1.1" id="Layer_1" xmlns="http://www.w3.org/2000/svg" xmlns:xlink="http://www.w3.org/1999/xlink" x="0px" y="0px"
	 viewBox="0 0 841.9 305.1" style="enable-background:new 0 0 841.9 305.1;" xml:space="preserve">
<style type="text/css">
	.st0{opacity:0.6;}
	.st1{opacity:2.000000e-02;fill:url(#SVGID_1_);stroke:#FFFFFF;stroke-miterlimit:10;enable-background:new    ;}
	
		.st2{opacity:0.5;fill:none;stroke:#1089FF;stroke-width:0.9513;stroke-linecap:round;stroke-miterlimit:10;stroke-dasharray:4.509;enable-background:new    ;}
	.st3{opacity:0.63;fill:#FFFFFF;enable-background:new    ;}
	.st4{opacity:0.63;fill:#EAEAEA;enable-background:new    ;}
	.st5{fill:#FFFFFF;}
	.st6{fill:#C5D82E;}
	.st7{opacity:0.5;}
	.st8{fill:#80C2F9;}
	.st9{fill:#1089FF;}
	.st10{opacity:0.5;fill:#BCBCBC;enable-background:new    ;}
	.st11{fill:#E4E5FB;}
	.st12{opacity:0.5;fill:#1089FF;enable-background:new    ;}
</style>
<g class="st0">
	
		<linearGradient id="SVGID_1_" gradientUnits="userSpaceOnUse" x1="420.95" y1="0.4433" x2="420.95" y2="305.5433" gradientTransform="matrix(1 0 0 -1 0 305.5433)">
		<stop  offset="1.331947e-07" style="stop-color:#FFE6C1"/>
		<stop  offset="0.7011" style="stop-color:#C5D82E"/>
		<stop  offset="1" style="stop-color:#1089FF"/>
	</linearGradient>
	<rect y="0" class="st1" width="841.9" height="305.1"/>
	<path class="st2" d="M97.6,12.9c9.5,0.5,18.9,1,28.4,1.5c11.1,0.6,22.4,1.2,32.8,4.9c10.5,3.7,20.2,10.9,24.3,21.3
		c4.1,10.3,0.9,23.8-8.7,29.3"/>
	<path class="st2" d="M703.4,19.9c10.1-5.5,23-5.3,33,0.5s16.5,16.9,16.7,28.4s-5.9,22.9-15.6,29c-12.6,8-28.7,6.8-43.5,5.3"/>
	<path class="st3" d="M611.2,32.1c0.1,0.3,0.2,0.6,0.4,0.9l-1.2,1.2l2.9,2.9l1.2-1.2c0.3,0.1,0.6,0.3,0.9,0.4v1.8h4.2v-1.8
		c0.3-0.1,0.6-0.2,0.9-0.4l1.2,1.2l2.9-2.9l-1.2-1.2c0.1-0.3,0.3-0.6,0.4-0.9h1.8v-4.2h-1.8c-0.1-0.3-0.2-0.6-0.4-0.9l1.2-1.2
		l-2.9-2.9l-1.2,1.2c-0.3-0.1-0.6-0.3-0.9-0.4v-1.8h-4.2v1.8c-0.3,0.1-0.6,0.2-0.9,0.4l-1.2-1.2l-2.9,2.9l1.2,1.2
		c-0.1,0.3-0.3,0.6-0.4,0.9h-1.8v4.2H611.2z M613.3,30c0-2.3,1.9-4.2,4.2-4.2s4.2,1.9,4.2,4.2s-1.9,4.2-4.2,4.2S613.3,32.3,613.3,30
		z"/>
	<path class="st4" d="M67.7,47.7c-0.1,0.3-0.1,0.6-0.2,0.9l-1.7,0.3l0.8,3.9l1.7-0.3c0.2,0.3,0.3,0.5,0.5,0.8l-0.9,1.4l3.3,2.2
		l0.9-1.4c0.3,0.1,0.6,0.1,0.9,0.2l0.3,1.7l3.9-0.8L77,54.8c0.3-0.2,0.5-0.3,0.8-0.5l1.4,0.9l2.2-3.3L80,51c0.1-0.3,0.1-0.6,0.2-0.9
		l1.7-0.3l-0.9-4l-1.7,0.3c-0.2-0.3-0.3-0.5-0.5-0.8l0.9-1.4l-3.3-2.2l-0.9,1.4c-0.3-0.1-0.6-0.1-0.9-0.2l-0.3-1.7L70.4,42l0.3,1.7
		c-0.3,0.2-0.5,0.3-0.8,0.5l-1.4-0.9l-2.2,3.3L67.7,47.7z M70.5,47.1c1.2-1.9,3.7-2.4,5.6-1.1c1.9,1.2,2.4,3.7,1.1,5.6
		c-1.2,1.9-3.7,2.4-5.6,1.1C69.8,51.5,69.3,49,70.5,47.1z M87.5,52.8c-0.1,0.2-0.1,0.4-0.1,0.6l-1,0.2l0.5,2.5l1-0.2
		c0.1,0.2,0.2,0.3,0.3,0.5l-0.6,0.9l2.1,1.4l0.6-0.9c0.2,0.1,0.4,0.1,0.6,0.1l0.2,1l2.5-0.5l-0.2-1c0.2-0.1,0.3-0.2,0.5-0.3l0.9,0.6
		l1.4-2.1L95.3,55c0.1-0.2,0.1-0.4,0.1-0.6l1-0.2l-0.5-2.5l-1,0.2c-0.1-0.2-0.2-0.3-0.3-0.5l0.6-0.9L93,49.1L92.4,50
		c-0.2-0.1-0.4-0.1-0.6-0.1l-0.2-1l-2.5,0.5l0.2,1c-0.2,0.1-0.3,0.2-0.5,0.3L88,50.1l-1.4,2.1L87.5,52.8z M89.3,52.5
		c0.8-1.2,2.3-1.5,3.5-0.7s1.5,2.3,0.7,3.5S91.2,56.8,90,56S88.5,53.6,89.3,52.5z"/>
	<path class="st4" d="M763.3,137c-0.1,0.3-0.1,0.6-0.2,0.9l-1.7,0.3l0.8,3.9l1.7-0.3c0.2,0.3,0.3,0.5,0.5,0.8l-0.9,1.4l3.3,2.2
		l0.9-1.4c0.3,0.1,0.6,0.1,0.9,0.2l0.3,1.7l3.9-0.8l-0.3-1.7c0.3-0.2,0.5-0.3,0.8-0.5l1.4,0.9l2.2-3.3l-1.4-0.9
		c0.1-0.3,0.1-0.6,0.2-0.9l1.7-0.3l-0.8-3.9l-1.7,0.3c-0.2-0.3-0.3-0.5-0.5-0.8l0.9-1.4l-3.3-2.2l-0.9,1.4c-0.3-0.1-0.6-0.1-0.9-0.2
		l-0.3-1.7l-3.9,0.8l0.3,1.7c-0.3,0.2-0.5,0.3-0.8,0.5l-1.4-0.9l-2.2,3.3L763.3,137z M766.1,136.5c1.2-1.9,3.7-2.4,5.6-1.1
		c1.9,1.2,2.4,3.7,1.1,5.6c-1.2,1.9-3.7,2.4-5.6,1.1C765.4,140.8,764.9,138.3,766.1,136.5z M783.1,142.2c-0.1,0.2-0.1,0.4-0.1,0.6
		l-1,0.2l0.5,2.5l1-0.2c0.1,0.2,0.2,0.3,0.3,0.5l-0.6,0.9l2.1,1.4l0.6-0.9c0.2,0.1,0.4,0.1,0.6,0.1l0.2,1l2.5-0.5l-0.2-1
		c0.2-0.1,0.3-0.2,0.5-0.3l0.9,0.6l1.4-2.1l-0.9-0.6c0.1-0.2,0.1-0.4,0.1-0.6l1-0.2l-0.5-2.5l-1,0.2c-0.1-0.2-0.2-0.3-0.3-0.5
		l0.6-0.9l-2.1-1.4l-0.6,0.9c-0.2-0.1-0.4-0.1-0.6-0.1l-0.2-1l-2.5,0.5l0.2,1c-0.2,0.1-0.3,0.2-0.5,0.3l-0.9-0.6l-1.4,2.1
		L783.1,142.2z M784.9,141.8c0.8-1.2,2.3-1.5,3.5-0.7s1.5,2.3,0.7,3.5s-2.3,1.5-3.5,0.7C784.5,144.6,784.1,143,784.9,141.8z"/>
	<g>
		
			<ellipse transform="matrix(0.1222 -0.9925 0.9925 0.1222 490.6394 709.2264)" class="st5" cx="646.3" cy="77.2" rx="9.9" ry="9.9"/>
		<path class="st6" d="M646.5,79l2.8,4.8c0.2,0.3,0.6,0.5,1,0.3c0.3-0.2,0.5-0.6,0.3-1l-2.8-4.8c1.9-1.5,2.4-4.2,1.2-6.3
			c-1.4-2.3-4.4-3.1-6.7-1.8c-2.3,1.4-3.1,4.4-1.8,6.7C641.7,79,644.3,79.8,646.5,79z M641.7,76.2c-1-1.7-0.4-3.8,1.3-4.7
			c1.7-1,3.8-0.4,4.7,1.3c1,1.7,0.4,3.8-1.3,4.7C644.8,78.4,642.6,77.8,641.7,76.2z"/>
	</g>
	<g>
		<path class="st5" d="M17,22.9c0,6,4.9,11,11,11s11-4.9,11-11s-4.9-11-11-11S17,16.9,17,22.9z"/>
		<path class="st6" d="M25.4,27v0.6h-0.1V30h5.3v-2.5h-0.1V27c0-1.3,0.5-2.5,1.4-3.7c0.9-1.2,1.3-2.6,1.1-4.1
			c-0.4-2.2-2.2-3.9-4.4-4.2c-1.5-0.2-2.9,0.3-4,1.2c-1.1,1-1.7,2.4-1.7,3.8c0,1.2,0.4,2.3,1.2,3.2C24.9,24.4,25.4,25.7,25.4,27z
			 M29.4,27v0.2h-0.5c0.5-1.8,1.1-4.2,0.6-4.7c-0.2-0.2-0.5-0.2-0.7-0.1h-0.1C28.5,22.2,28.3,22,28,22l0,0c-0.3,0-0.5,0.1-0.7,0.4
			c-0.2-0.1-0.4-0.1-0.5-0.1s-0.3,0.1-0.4,0.3c-0.4,0.8,0.2,3.3,0.6,4.5h-0.5V27c0-1.5-0.6-3-1.7-4.3c-0.6-0.7-0.9-1.6-0.9-2.5
			c0-1.2,0.5-2.3,1.4-3c0.9-0.8,2-1.1,3.2-1c1.7,0.2,3.2,1.6,3.5,3.3c0.2,1.2-0.1,2.3-0.8,3.2C30,24,29.4,25.5,29.4,27z M27.6,27.2
			c-0.5-1.6-1-3.8-0.7-4.3c0,0,0,0,0-0.1c0,0,0.1,0,0.2,0.1c-0.1,0.3,0,0.6,0.1,0.8c0.1,0.1,0.3,0.2,0.4,0.1
			c0.3-0.1,0.4-0.3,0.3-0.6c0-0.1-0.1-0.3-0.2-0.4c0.1-0.2,0.3-0.2,0.3-0.2c0.1,0,0.1,0.1,0.2,0.1c0,0,0,0.1,0.1,0.1
			C28.1,23,28,23.1,28,23.3c0,0.2,0.1,0.3,0.2,0.4c0.2,0.1,0.3,0.1,0.5-0.1s0.2-0.5,0.1-0.7c0,0,0.1,0,0.1-0.1c0.1,0,0.1,0,0.2,0
			c0.2,0.3-0.2,2.4-0.8,4.3h-0.7V27.2z"/>
	</g>
	<g class="st7">
		<path class="st8" d="M691.4,25.3c0.3-0.3,10.3-9.5,10.3-9.5l1.8,1.1L691.4,25.3z"/>
		<polygon class="st9" points="703.5,17 705.7,22.4 691.4,25.3 		"/>
		<polygon class="st9" points="705.7,22.4 691.4,25.3 705.6,18.2 		"/>
		<polygon class="st8" points="705.6,18.2 691.4,25.3 708.5,20.3 		"/>
	</g>
	<g class="st7">
		<path class="st8" d="M829.2,192.5c-0.5-0.1-17.1-0.7-17.1-0.7l-0.8,2.4L829.2,192.5z"/>
		<polygon class="st9" points="811.3,194.2 813.5,201.1 829.2,192.5 		"/>
		<polygon class="st9" points="813.5,201.1 829.2,192.5 810.3,197.1 		"/>
		<polygon class="st8" points="810.3,197.1 829.2,192.5 809.2,201.3 		"/>
	</g>
	<g class="st7">
		<path class="st8" d="M98.8,8.7c-0.1,0.3-1.1,4.1-1.1,4.1l-8.7,5L98.8,8.7z"/>
		<polygon class="st9" points="100.4,16 97.6,12.9 88.9,17.8 		"/>
		<polygon class="st9" points="100.4,16 96.6,15.8 88.9,17.8 		"/>
		<polygon class="st8" points="96.6,15.8 95.2,20.5 88.9,17.8 		"/>
	</g>
	<g class="st7">
		<path class="st8" d="M25.1,165c0.4,0.3,4.9,5.7,4.9,5.7l17.7,1.4L25.1,165z"/>
		<polygon class="st9" points="27.9,177.9 30.1,170.7 47.7,172.1 		"/>
		<polygon class="st9" points="27.9,177.9 33.9,174.7 47.7,172.1 		"/>
		<polygon class="st8" points="33.9,174.7 39.6,181.2 47.7,172.1 		"/>
	</g>
	<g>
		<path class="st10" d="M133.2,50.1h19.9c1.6,0,2.8,1.3,2.8,2.8v13.5c0,1.6-1.3,2.8-2.8,2.8h-1.4l3.1,3.2l-8.2-3.2h-13.5
			c-1.6,0-2.8-1.3-2.8-2.8V52.9C130.3,51.3,131.6,50.1,133.2,50.1z"/>
		<path class="st5" d="M132.2,67.8h18c2.1,0,3.8-1.7,3.8-3.8V52.4c0-2.1-1.7-3.8-3.8-3.8h-18c-2.1,0-3.8,1.7-3.8,3.8V64
			C128.4,66.1,130.1,67.8,132.2,67.8z"/>
		<polyline class="st5" points="148.8,66.8 152.9,71 142.3,66.8 		"/>
		<path class="st11" d="M151.3,55h-20c-0.4,0-0.7-0.3-0.7-0.7s0.3-0.7,0.7-0.7h20c0.4,0,0.7,0.3,0.7,0.7S151.7,55,151.3,55z
			 M152,58.2c0-0.4-0.3-0.7-0.7-0.7h-20c-0.4,0-0.7,0.3-0.7,0.7s0.3,0.7,0.7,0.7h20C151.7,58.9,152,58.6,152,58.2z M152,62.1
			c0-0.4-0.3-0.7-0.7-0.7h-20c-0.4,0-0.7,0.3-0.7,0.7s0.3,0.7,0.7,0.7h20C151.7,62.8,152,62.5,152,62.1z"/>
	</g>
	<g>
		<path class="st10" d="M24.8,124.2h19.9c1.6,0,2.8,1.3,2.8,2.8v13.5c0,1.6-1.3,2.8-2.8,2.8h-1.4l3.1,3.2l-8.2-3.2H24.8
			c-1.6,0-2.8-1.3-2.8-2.8V127C22,125.5,23.3,124.2,24.8,124.2z"/>
		<path class="st5" d="M23.9,141.9h18c2.1,0,3.8-1.7,3.8-3.8v-11.6c0-2.1-1.7-3.8-3.8-3.8h-18c-2.1,0-3.8,1.7-3.8,3.8v11.6
			C20.1,140.2,21.8,141.9,23.9,141.9z"/>
		<polyline class="st5" points="40.5,141 44.6,145.1 33.9,141 		"/>
		<path class="st11" d="M42.9,129.2h-20c-0.4,0-0.7-0.3-0.7-0.7s0.3-0.7,0.7-0.7h20c0.4,0,0.7,0.3,0.7,0.7
			C43.7,128.8,43.3,129.2,42.9,129.2z M43.7,132.3c0-0.4-0.3-0.7-0.7-0.7H23c-0.4,0-0.7,0.3-0.7,0.7s0.3,0.7,0.7,0.7h20
			C43.3,133.1,43.7,132.8,43.7,132.3z M43.7,136.2c0-0.4-0.3-0.7-0.7-0.7H23c-0.4,0-0.7,0.3-0.7,0.7s0.3,0.7,0.7,0.7h20
			C43.3,137,43.7,136.7,43.7,136.2z"/>
	</g>
	<g>
		<path class="st10" d="M822.9,121.2H803c-1.6,0-2.8,1.3-2.8,2.8v13.5c0,1.6,1.3,2.8,2.8,2.8h1.4l-3.1,3.2l8.2-3.2H823
			c1.6,0,2.8-1.3,2.8-2.8V124C825.7,122.4,824.5,121.2,822.9,121.2z"/>
		<path class="st5" d="M820.3,138.8h-18c-2.1,0-3.8-1.7-3.8-3.8v-11.6c0-2.1,1.7-3.8,3.8-3.8h18c2.1,0,3.8,1.7,3.8,3.8V135
			C824.1,137.1,822.4,138.8,820.3,138.8z"/>
		<polyline class="st5" points="803.7,137.9 799.6,142 810.2,137.9 		"/>
		<path class="st11" d="M800.5,125.3c0-0.4,0.3-0.7,0.7-0.7h20c0.4,0,0.7,0.3,0.7,0.7c0,0.4-0.3,0.7-0.7,0.7h-20
			C800.8,126.1,800.5,125.7,800.5,125.3z M801.2,130h20c0.4,0,0.7-0.3,0.7-0.7s-0.3-0.7-0.7-0.7h-20c-0.4,0-0.7,0.3-0.7,0.7
			C800.5,129.6,800.8,130,801.2,130z M801.2,133.9h20c0.4,0,0.7-0.3,0.7-0.7s-0.3-0.7-0.7-0.7h-20c-0.4,0-0.7,0.3-0.7,0.7
			C800.5,133.5,800.8,133.9,801.2,133.9z"/>
	</g>
	<g>
		<path class="st10" d="M812.8,52.4h-19.9c-1.6,0-2.8,1.3-2.8,2.8v13.5c0,1.6,1.3,2.8,2.8,2.8h1.4l-3.1,3.2l8.2-3.2h13.5
			c1.6,0,2.8-1.3,2.8-2.8V55.3C815.6,53.7,814.4,52.4,812.8,52.4z"/>
		<path class="st5" d="M810.2,70.1h-18c-2.1,0-3.8-1.7-3.8-3.8V54.6c0-2.1,1.7-3.8,3.8-3.8h18c2.1,0,3.8,1.7,3.8,3.8v11.6
			C814,68.4,812.3,70.1,810.2,70.1z"/>
		<polyline class="st5" points="793.6,69.1 789.5,73.3 800.1,69.1 		"/>
		<path class="st11" d="M790.4,56.6c0-0.4,0.3-0.7,0.7-0.7h20c0.4,0,0.7,0.3,0.7,0.7s-0.3,0.7-0.7,0.7h-20
			C790.7,57.3,790.4,57,790.4,56.6z M791.1,61.2h20c0.4,0,0.7-0.3,0.7-0.7s-0.3-0.7-0.7-0.7h-20c-0.4,0-0.7,0.3-0.7,0.7
			C790.4,60.9,790.7,61.2,791.1,61.2z M791.1,65.1h20c0.4,0,0.7-0.3,0.7-0.7c0-0.4-0.3-0.7-0.7-0.7h-20c-0.4,0-0.7,0.3-0.7,0.7
			C790.4,64.8,790.7,65.1,791.1,65.1z"/>
	</g>
	<path class="st12" d="M57.3,87.5c0,1.8,1.5,3.3,3.3,3.3s3.3-1.5,3.3-3.3s-1.5-3.3-3.3-3.3C58.7,84.3,57.3,85.7,57.3,87.5z"/>
	<circle class="st12" cx="708.5" cy="52.4" r="3.6"/>
	<circle class="st12" cx="781.2" cy="162.4" r="3.6"/>
	<circle class="st12" cx="815.6" cy="160.5" r="3.6"/>
	<circle class="st12" cx="553.3" cy="31.4" r="3.4"/>
	<path class="st12" d="M64.9,141.4c0,1.3,1.1,2.4,2.4,2.4s2.4-1.1,2.4-2.4s-1.1-2.4-2.4-2.4C65.9,139,64.9,140,64.9,141.4z"/>
	<circle class="st12" cx="275.5" cy="62.7" r="2.8"/>
	<circle class="st12" cx="320" cy="30" r="2.4"/>
	<circle class="st12" cx="461.2" cy="20.5" r="2.4"/>
	<circle class="st12" cx="28" cy="93.3" r="2.4"/>
	<circle class="st12" cx="745.6" cy="106.1" r="2.4"/>
	<circle class="st12" cx="615.1" cy="76.6" r="2.4"/>
	<circle class="st12" cx="17" cy="201.3" r="2.4"/>
</g>
</svg>
