<?xml version="1.0" encoding="utf-8"?>
<!-- Generator: Adobe Illustrator 23.0.1, SVG Export Plug-In . SVG Version: 6.00 Build 0)  -->
<svg version="1.1" id="cloud-euro" xmlns="http://www.w3.org/2000/svg" xmlns:xlink="http://www.w3.org/1999/xlink" x="0px" y="0px"
	 viewBox="0 0 512 512" style="enable-background:new 0 0 512 512;" xml:space="preserve">
<style type="text/css">
	.st0{opacity:0.49;fill:#C5D82E;enable-background:new    ;}
	.st1{fill:#C5D82E;}
	.st2{fill:#FFFFFF;}
	.st3{fill:#3A5A7D;}
</style>
<g>
	<circle class="st0" cx="196.3" cy="187.7" r="129.7"/>
	<circle class="st1" cx="196.3" cy="187.7" r="75.1"/>
	<g>
		<path class="st2" d="M188.6,324.3h190.3c33,0,59.7-26.5,59.7-59.3s-26.7-59.3-59.7-59.3c-2.2,0-4.4,0.1-6.5,0.4
			c1.2-5.6,1.9-11.4,1.9-17.3c0-44.3-36.2-80.2-80.8-80.2c-37.9,0-69.5,25.9-78.3,60.7c-7.2-3.8-15.4-6-24.1-6
			c-25.4,0-46.4,18.3-50.4,42.4c-0.3,0-0.5,0-0.8,0c-33,0-59.7,26.5-59.7,59.3c0,32.7,26.7,59.3,59.7,59.3h9.4"/>
		<path class="st3" d="M378.9,331.1H188.6c-3.8,0-6.8-3.1-6.8-6.8s3.1-6.8,6.8-6.8h190.3c29.2,0,52.9-23.5,52.9-52.4
			s-23.7-52.4-52.9-52.4c-1.9,0-3.9,0.1-5.8,0.3c-2.2,0.3-4.3-0.6-5.8-2.2c-1.5-1.6-2-3.9-1.6-6c1.2-5.3,1.8-10.6,1.8-15.8
			c0-40.4-33.2-73.3-74-73.3c-34,0-63.5,22.9-71.7,55.6c-0.5,2-1.9,3.7-3.8,4.6c-1.9,0.8-4.1,0.8-6-0.2c-6.4-3.4-13.6-5.2-20.9-5.2
			c-21.7,0-40.1,15.4-43.7,36.7c-0.6,3.3-3.4,5.7-6.7,5.7c-0.2,0-0.7,0-0.8,0c-29.1,0-52.8,23.5-52.8,52.4s23.7,52.4,52.9,52.4h9.4
			c3.8,0,6.8,3.1,6.8,6.8s-3.1,6.8-6.8,6.8H140c-36.7,0-66.6-29.6-66.6-66.1c0-34.9,27.3-63.5,61.8-65.9c6.8-24.9,29.5-42.5,56-42.5
			c6.7,0,13.5,1.2,19.8,3.5c12.2-34.7,45.1-58.2,82.6-58.2c48.3,0,87.6,39,87.6,87c0,3.3-0.2,6.7-0.6,10.1
			c35.9,0.9,64.9,30.2,64.9,66.1C445.4,301.4,415.6,331.1,378.9,331.1L378.9,331.1z"/>
	</g>
	<g>
		<path class="st3" d="M346.5,191.1c-3.8,0-6.8-3.1-6.8-6.8c0-24.5-19.9-44.4-44.4-44.4c-3.8,0-6.8-3.1-6.8-6.8s3.1-6.8,6.8-6.8
			c32,0,58,26,58,58C353.3,188.1,350.2,191.1,346.5,191.1z"/>
		<circle class="st3" cx="97.3" cy="122.9" r="10.2"/>
		<circle class="st3" cx="349.9" cy="81.9" r="10.2"/>
		<circle class="st3" cx="162.1" cy="126.3" r="6.8"/>
		<circle class="st3" cx="428.4" cy="372.1" r="6.8"/>
		<circle class="st3" cx="414.7" cy="413" r="6.8"/>
		<circle class="st3" cx="134.8" cy="385.7" r="6.8"/>
		<circle class="st3" cx="93.9" cy="180.9" r="6.8"/>
	</g>
</g>
</svg>
