<?xml version="1.0" encoding="utf-8"?>
<!-- Generator: Adobe Illustrator 23.0.1, SVG Export Plug-In . SVG Version: 6.00 Build 0)  -->
<svg version="1.1" id="Layer_1" xmlns="http://www.w3.org/2000/svg" xmlns:xlink="http://www.w3.org/1999/xlink" x="0px" y="0px"
	 viewBox="0 0 800 1233.3" style="enable-background:new 0 0 800 1233.3;" xml:space="preserve">
<style type="text/css">
	.st0{fill:url(#SVGID_1_);enable-background:new    ;}
	.st1{opacity:0.41;}
	.st2{fill:#A8D4FF;}
	.st3{fill:#7CBEFF;}
	.st4{fill:#51A9FF;}
	.st5{fill:#2593FF;}
	.st6{fill:#D3E9FF;}
</style>
<linearGradient id="SVGID_1_" gradientUnits="userSpaceOnUse" x1="400" y1="-44.0244" x2="400" y2="1189.2756" gradientTransform="matrix(1 0 0 -1 0 1189.2756)">
	<stop  offset="0" style="stop-color:#FFFFFF"/>
	<stop  offset="0.5279" style="stop-color:#DDEEFF"/>
	<stop  offset="0.7425" style="stop-color:#F7FBFF"/>
	<stop  offset="1" style="stop-color:#FFFFFF"/>
</linearGradient>
<rect class="st0" width="800" height="1233.3"/>
<g id="OBJECTS">
	<g id="_x30_4">
	</g>
	<g id="_x30_3">
	</g>
	<g id="_x30_2">
	</g>
	<g id="TITTLE">
	</g>
	<g id="_x30_1">
	</g>
	<g id="SHADOW">
		<g>
			<g class="st1">
				<g>
					<polyline class="st2" points="344.4,199.2 361,199.2 361,185.8 379,185.8 379,200.8 389.2,200.8 389.2,169 399,169 399,185.8 
						402.6,185.8 402.6,205.5 402.6,209 416,209 416,148.6 438.3,123.4 442.7,123.4 442.7,194.4 450.1,194.4 450.1,186.2 474,186.2 
						474,194.4 481.1,194.4 481.1,121.9 489,121.9 489,115.5 505.1,115.5 505.1,122.2 513,122.2 513,189.8 527.1,189.8 527.1,196.4 
						540.8,196.4 540.8,165 544.3,162.3 562.8,162.3 566.4,165.8 566.4,203.1 576.2,203.1 576.2,224.7 585.6,224.7 585.6,246.3 
						585.6,283.6 220.4,283.6 220.4,278.2 246.3,278.2 246.3,237.3 258.5,237.3 258.5,169.3 264,169.3 264,164.7 278.1,164.7 
						278.1,169 283.2,169 283.2,208.6 293.4,208.6 293.4,202.3 319,202.3 319,193.7 322.5,193.7 					"/>
				</g>
				<g>
					<rect x="304" y="274.5" class="st2" width="53.8" height="4.6"/>
					<path class="st2" d="M323.9,105.8c-0.2,0-0.3,0.2-0.3,0.3v1c0,0.2,0.2,0.3,0.3,0.3h13.9c0.2,0,0.3-0.2,0.3-0.3v-0.9
						c0-0.2-0.2-0.3-0.3-0.3L323.9,105.8L323.9,105.8z"/>
					<path class="st2" d="M339.6,105.5v-1c0-0.2-0.2-0.3-0.3-0.3h-16.8c-0.2,0-0.3,0.2-0.3,0.3v1c0,0.2,0.2,0.3,0.3,0.3h16.8
						C339.5,105.8,339.6,105.7,339.6,105.5z"/>
					<path class="st2" d="M359.5,263.1h-57.3c-1,0-1.8,0.8-1.8,1.8v3.7c0,0.5,0.4,0.7,0.7,0.7h0.7l2,5.1h53.8l2-5.1h0.7
						c0.5,0,0.7-0.4,0.7-0.7v-3.7C361.3,263.9,360.5,263.1,359.5,263.1z"/>
					<path class="st2" d="M342,262.7l-5.2-153.6H335l0,0h-3.7l0,0h5.5c0.2,0,0.3-0.2,0.3-0.3v-1c0-0.2-0.2-0.3-0.3-0.3H325
						c-0.2,0-0.3,0.2-0.3,0.3v1c0,0.2,0.2,0.3,0.3,0.3h5.5l0,0h-3.7l0,0H325l-5.2,153.6H342z"/>
					<path class="st2" d="M331,86.7h-20.1l11.7,17.3h10.1l0,0h1.8l0,0l0,0h4l0,0l0,0h0.3L351,86.7v-1.8c0-0.2-0.2-0.4-0.4-0.4h-2.1
						c0.2,0,0.4-0.2,0.4-0.4V83c0-0.2-0.2-0.4-0.4-0.4H347c0.2,0,0.4-0.2,0.4-0.4v-1.1c0-0.2-0.2-0.4-0.4-0.4h-1.9
						c0.2,0,0.4-0.2,0.4-0.4v-1.4c0-0.2-0.2-0.4-0.4-0.4h-28.6c-0.2,0-0.4,0.2-0.4,0.4V80c0,0.2,0.2,0.4,0.4,0.4h-1.9
						c-0.2,0-0.4,0.2-0.4,0.4v1.1c0,0.2,0.2,0.4,0.4,0.4h-1.5c-0.2,0-0.4,0.2-0.4,0.4v1.1c0,0.2,0.2,0.4,0.4,0.4H311
						c-0.2,0-0.4,0.2-0.4,0.4v1.8h20.2v0.3L331,86.7L331,86.7z"/>
					<path class="st2" d="M320.2,78.5h21.4c0.2,0,0.4-0.2,0.4-0.4v-1c0-0.2-0.2-0.4-0.4-0.4h-21.4c-0.2,0-0.4,0.2-0.4,0.4v1
						C319.8,78.3,320,78.5,320.2,78.5z"/>
					<path class="st2" d="M330.8,68.8c-3.6,0-6.4,3.5-6.4,7.7h12.7C337.2,72.2,334.4,68.8,330.8,68.8z"/>
					<polygon class="st2" points="331,68.6 331.9,68.7 330.9,11.1 329.9,68.7 330.6,68.6 					"/>
				</g>
				<g>
					<rect x="364.1" y="256.3" class="st3" width="0.2" height="0.3"/>
					<path class="st3" d="M604.1,267.5v-12.9h-6.3v-29h-8.6v17.3h-9V237h-8.6v-20.4h-16.9V208H530v7.5h-11.4v-10.3H508v-24h-4.3
						l-14.5,9.8v9.8h-9v9.8h-9.5v-28.7h-4.6v-4.7h-3.6v4.3h-4.7v44h-13.4v-18.8h-14.9v10.2h-19.4v-18.3h-4v-3.9h-10.6v3.6h-3.2v16.9
						h-5.1v-13.7c0-1.5,0-3.2,0-4.8v-0.9l0,0c-0.3-17.7-2.5-41.1-13-39.9c-8.4,0.9-10.2,23.1-10.3,39.9l0,0v18.6h-6.2v-20.2h-24.6
						v20h-14.9v9.5h-4.7v-40.8h-4.3v-11.1h-1.6v11h-5.2V224h-13.8v-9.8h-10.5v-4.7H264v5.2h-15v25.6h-8.6v38.9h-36.1v4.3l412.8,0.8
						v-16.5L604.1,267.5L604.1,267.5z"/>
				</g>
				<path class="st4" d="M608.1,278.2v-14.7h-14.5v-11.3h-7v4.7h-12.1v-10.6h-12.1v-17.4h-4.1V226h-10.6v2.9H543v17.4h-11.8v-8.2
					h-24.4v-9.7h-35.7V252h-32.4v-7.7h-8.2v-12.4h-10v-5h-2.2c-0.1-0.7-0.1-1.5-0.2-2.2c-0.7-8.5-1-20.9-1-20.9l-6.6-0.5l-3.4-3.7
					h-1.8l-0.2,0.7l-6.9,0.7l-6.9-0.7l-0.2-0.7h-1.8l-3.4,3.7l-6.6,0.5c0,0-0.3,12.4-1,20.9c-0.7,8.6-1.3,14.3-1.3,14.3l-12.5,10.3
					v-8.5H356v-9.7h-3.3v-3.6h-25.4v3.6H324v24.7h-7.4v-18h-7.7v18h-14.7V247h-3.8v-4.7h-25v4.7h-3.8v8.8h-7.7v-24.7H243v24.7h-12.6
					v3.8v19.8h-24.7v2.3v2.1h413v-2.3v-3.3H608.1L608.1,278.2z M387.2,256.6c3-8.3,9.1-10.6,11-11.1c1.2,0.4,4.4,1.5,7.2,4.7v6.5
					h-18.2V256.6z"/>
				<g>
					<polygon class="st5" points="617.4,283.6 0,283.6 0,275.8 214.1,275.8 214.1,269.4 225.5,269.4 225.5,250.6 234.9,250.6 
						234.9,269.4 245.5,269.4 245.5,260.5 247.6,260.5 247.6,258.3 261.1,258.3 261.1,260.5 262.9,260.5 262.9,269.3 267,269.3 
						267,256.1 273.7,256.1 273.7,269.9 275.9,269.9 275.9,265.4 282.1,265.4 282.1,257.8 291.1,257.8 291.1,268.4 300.9,268.4 
						300.9,246.9 305.8,246.9 305.8,244 331.8,244 331.8,247.8 335.6,247.8 335.6,269.5 341,269.5 341,264.3 345.9,264.3 
						345.9,269.5 351.3,269.5 351.3,261.7 363.1,261.7 363.1,269.9 363.1,272.3 369.8,272.3 374.5,272.3 374.5,235.7 378,235.7 
						378,233.7 383.7,233.7 383.7,236 386.8,236 386.8,265.1 398.6,265.1 398.6,248.7 410.4,248.7 410.4,259 437.2,259 437.2,269.9 
						449,269.9 449,243.4 462.6,243.4 462.6,264.3 472,264.3 472,270.5 481.4,270.5 481.4,265.1 486.1,265.1 486.1,251 491.7,251 
						491.7,247.2 516.2,247.2 516.2,251 521.5,251 521.5,266.9 526.2,266.9 526.2,271.6 532.1,271.6 532.1,260.5 558.9,260.5 
						558.9,266.6 582.2,266.6 582.2,274.6 595.1,274.6 595.1,270.2 602.8,270.2 602.8,274.6 612.5,274.6 612.5,279.9 800,279.9 
						800,283.6 					"/>
				</g>
				<g>
					<path class="st6" d="M800,283.5v2.2H618.7v0.9H617v5.6h-8.9v2.2h-4v4.7h-6.3v15.4h-8.6v-9.1h-3.6v9.6h-9.5v11.2h-9.8v19.7
						l-3.6,1.9h-18.4l-3.6-1.4v-16.6h-13.6v3.6H513v35.7h-7.9v3.6H489v-3.3h-7.9V331h-7v4.3h-3.6v2.2h-4.7v2.5h-3.6v-2.2h-4.7v-2.6
						h-7.4v-4.3h-7.5v37.5h-4.3l-22.4-13.3v-31.9h-5.8v5.4h-4v2.1h-3.6v4.8h-3.6v8.9h-9.8v-16.8h-1.9c0,0.7,0,1.3,0,2.1v0.5l0,0
						c-0.3,9.4-2.5,21.7-13,21.1c-6.8-0.4-9.3-8.1-10-15.7h-3.3v-7h-3.2v2.7h-13.4l-22,0.2h-3.6v-4.6h-5.5v10.4h-4.3v5.8h-1.6v-5.8
						h-5.2v-10.4h-9v-3.3h-10v21h-5.2v2.2h-14v-2.7h-5.5v-23.9h-9.5v-8.7h-5.8v-4.8h-2.7v-8.3h-5.5v2.7h-9.5v-9.9H214v-3.3H0v-4.2
						l203.5-0.1h2.2h256.4l154.8-0.2L800,283.5L800,283.5z"/>
				</g>
				<g>
					<rect x="313.1" y="284.2" class="st6" width="36.1" height="3.1"/>
					<path class="st6" d="M326.5,400.7c-0.1,0-0.2-0.1-0.2-0.2v-0.7c0-0.1,0.1-0.2,0.2-0.2h9.4c0.1,0,0.2,0.1,0.2,0.2v0.7
						c0,0.1-0.1,0.2-0.2,0.2H326.5z"/>
					<path class="st6" d="M337,400.9v0.7c0,0.1-0.1,0.2-0.2,0.2h-11.2c-0.1,0-0.2-0.1-0.2-0.2v-0.7c0-0.1,0.1-0.2,0.2-0.2h11.2
						C336.9,400.7,337,400.8,337,400.9z"/>
					<path class="st6" d="M350.4,295h-38.5c-0.7,0-1.2-0.6-1.2-1.2v-2.5c0-0.3,0.2-0.6,0.6-0.6h0.5l1.3-3.4h36.1l1.3,3.4h0.6
						c0.3,0,0.6,0.2,0.6,0.6v2.5C351.6,294.5,351.1,295,350.4,295z"/>
					<path class="st6" d="M338.6,295.4l-3.5,103.1h-1.2l0,0h-2.5l0,0h3.7c0.1,0,0.2,0.1,0.2,0.2v0.7c0,0.1-0.1,0.2-0.2,0.2h-7.9
						c-0.1,0-0.2-0.1-0.2-0.2v-0.7c0-0.1,0.1-0.2,0.2-0.2h3.7l0,0h-2.5l0,0h-1.3l-3.5-103.1H338.6L338.6,295.4z"/>
					<path class="st6" d="M331.3,413.6h-13.6l7.9-11.6h6.8l0,0h1.1l0,0l0,0h2.7l0,0l0,0h0.2l8.1,11.6v1.2c0,0.1-0.1,0.3-0.3,0.3
						h-1.4c0.2,0,0.3,0.1,0.3,0.3v0.7c0,0.2-0.1,0.3-0.3,0.3h-1c0.2,0,0.3,0.1,0.3,0.3v0.7c0,0.2-0.1,0.3-0.3,0.3h-1.1
						c0.2,0,0.3,0.1,0.3,0.3v0.7c0,0.2-0.1,0.3-0.3,0.3h-19.2c-0.2,0-0.3-0.1-0.3-0.3V418c0-0.2,0.1-0.3,0.3-0.3h-1.2
						c-0.2,0-0.3-0.1-0.3-0.3v-0.7c0-0.2,0.1-0.3,0.3-0.3h-1c-0.2,0-0.3-0.1-0.3-0.3v-0.7c0-0.2,0.1-0.3,0.3-0.3h-1.4
						c-0.1,0-0.3-0.1-0.3-0.3v-1.2L331.3,413.6L331.3,413.6z"/>
					<path class="st6" d="M324,419h14.3c0.2,0,0.3,0.1,0.3,0.3v0.7c0,0.2-0.1,0.3-0.3,0.3H324c-0.2,0-0.3-0.1-0.3-0.3v-0.7
						C323.7,419.2,323.8,419,324,419z"/>
					<path class="st6" d="M331.2,425.5c-2.3,0-4.3-2.3-4.3-5.2h8.5C335.4,423.2,333.6,425.5,331.2,425.5z"/>
					<polygon class="st6" points="331.3,425.7 331.9,425.6 331.2,464.3 330.6,425.6 331,425.6 					"/>
				</g>
			</g>
		</g>
	</g>
</g>
</svg>
