<?xml version="1.0" encoding="utf-8"?>
<!-- Generator: Adobe Illustrator 23.0.1, SVG Export Plug-In . SVG Version: 6.00 Build 0)  -->
<svg version="1.1" id="Layer_1" xmlns="http://www.w3.org/2000/svg" xmlns:xlink="http://www.w3.org/1999/xlink" x="0px" y="0px"
	 viewBox="0 0 1348.1 592.9" style="enable-background:new 0 0 1348.1 592.9;" xml:space="preserve">
<style type="text/css">
	.st0{fill:url(#SVGID_1_);}
	.st1{opacity:0.41;}
	.st2{fill:#A8D4FF;}
	.st3{fill:#7CBEFF;}
	.st4{fill:#51A9FF;}
	.st5{fill:#2593FF;}
	.st6{fill:#D3E9FF;}
</style>
<g id="DESIGNED_BY_FREEPIK">
</g>
<g id="OBJECTS">
	<g id="_x30_4">
	</g>
	<g id="_x30_3">
	</g>
	<g id="_x30_2">
	</g>
	<g id="TITTLE">
	</g>
	<g id="_x30_1">
	</g>
	<g id="SHADOW">
		<g>
			
				<linearGradient id="SVGID_1_" gradientUnits="userSpaceOnUse" x1="674.05" y1="699.1" x2="674.05" y2="106.2" gradientTransform="matrix(-1 0 0 1 1348.1 -106.2)">
				<stop  offset="0" style="stop-color:#FFFFFF"/>
				<stop  offset="0.5279" style="stop-color:#DDEEFF"/>
				<stop  offset="0.7425" style="stop-color:#F7FBFF"/>
				<stop  offset="1" style="stop-color:#FFFFFF"/>
			</linearGradient>
			<rect y="0" class="st0" width="1348.1" height="592.9"/>
			<g class="st1">
				<g>
					<polyline class="st2" points="345.8,240.4 349.3,240.4 349.3,249 374.9,249 374.9,255.3 385.1,255.3 385.1,215.7 390.2,215.7 
						390.2,211.4 404.3,211.4 404.3,216 409.8,216 409.8,284 422,284 422,324.9 447.9,324.9 447.9,330.3 82.7,330.3 82.7,293 
						82.7,271.4 92.1,271.4 92.1,249.8 101.9,249.8 101.9,212.5 105.5,209 124,209 127.5,211.7 127.5,243.1 141.2,243.1 
						141.2,236.5 155.3,236.5 155.3,168.9 163.2,168.9 163.2,162.2 179.3,162.2 179.3,168.6 187.2,168.6 187.2,241.1 194.3,241.1 
						194.3,232.9 218.2,232.9 218.2,241.1 225.6,241.1 225.6,170.1 230,170.1 252.3,195.3 252.3,255.7 265.7,255.7 265.7,252.2 
						265.7,232.5 269.3,232.5 269.3,215.7 279.1,215.7 279.1,247.5 289.3,247.5 289.3,232.5 307.3,232.5 307.3,245.9 323.9,245.9 
											"/>
				</g>
				<g>
					<rect x="310.5" y="321.2" class="st2" width="53.8" height="4.6"/>
					<path class="st2" d="M344.4,152.5l-13.9,0.1c-0.1,0-0.3,0.1-0.3,0.3v0.9c0,0.1,0.1,0.3,0.3,0.3h13.9c0.1,0,0.3-0.1,0.3-0.3v-1
						C344.7,152.7,344.6,152.5,344.4,152.5L344.4,152.5z"/>
					<path class="st2" d="M329,152.5h16.8c0.1,0,0.3-0.1,0.3-0.3v-1c0-0.1-0.1-0.3-0.3-0.3H329c-0.1,0-0.3,0.1-0.3,0.3v1
						C328.7,152.4,328.8,152.5,329,152.5z"/>
					<path class="st2" d="M307.3,311.6v3.7c0,0.3,0.2,0.7,0.7,0.7h0.7l2,5.1h53.8l2-5.1h0.7c0.3,0,0.7-0.2,0.7-0.7v-3.7
						c0-1-0.8-1.8-1.8-1.8h-57.3C307.8,309.8,307,310.6,307.3,311.6z"/>
					<path class="st2" d="M348.5,309.4l-5.2-153.6h-1.8l0,0h-3.7l0,0h5.5c0.1,0,0.3-0.1,0.3-0.3v-1c0-0.1-0.1-0.3-0.3-0.3h-11.8
						c-0.1,0-0.3,0.1-0.3,0.3v1c0,0.1,0.1,0.3,0.3,0.3h5.5l0,0h-3.7l0,0h-1.8l-5.2,153.6H348.5z"/>
					<path class="st2" d="M337.5,133.4v-0.3h20.2v-1.8c0-0.2-0.2-0.4-0.4-0.4h-2.1c0.2,0,0.4-0.2,0.4-0.4v-1.1
						c0-0.2-0.2-0.4-0.4-0.4h-1.5c0.2,0,0.4-0.2,0.4-0.4v-1.1c0-0.2-0.2-0.4-0.4-0.4h-1.9c0.2,0,0.4-0.2,0.4-0.4v-1.1
						c0-0.2-0.2-0.4-0.4-0.4h-28.6c-0.2,0-0.4,0.2-0.4,0.4v1.4c0,0.2,0.2,0.4,0.4,0.4h-1.9c-0.2,0-0.4,0.2-0.4,0.4v1.1
						c0,0.2,0.2,0.4,0.4,0.4h-1.5c-0.2,0-0.4,0.2-0.4,0.4v1.1c0,0.2,0.2,0.4,0.4,0.4h-2.1c-0.2,0-0.4,0.2-0.4,0.4v1.8l12.2,17.3h0.3
						l0,0l0,0h4l0,0l0,0h1.8l0,0h10.1l11.7-17.3h-20.1H337.5z"/>
					<path class="st2" d="M348.5,124.8v-1c0-0.2-0.2-0.4-0.4-0.4h-21.4c-0.2,0-0.4,0.2-0.4,0.4v1c0,0.2,0.2,0.4,0.4,0.4h21.4
						C348.3,125.2,348.5,125,348.5,124.8z"/>
					<path class="st2" d="M331.2,123.2h12.7c0-4.2-2.8-7.7-6.4-7.7C333.9,115.5,331.1,118.9,331.2,123.2z"/>
					<polygon class="st2" points="337.7,115.3 338.4,115.4 337.4,57.8 336.4,115.4 337.3,115.3 					"/>
				</g>
				<g>
					<rect x="304" y="303" class="st3" width="0.2" height="0.3"/>
					<path class="st3" d="M64.2,314.2l-13,0.3V331l412.8-0.8v-4.3h-36.1V287h-8.6v-25.6h-15v-5.2h-14.1v4.7h-10.5v9.8h-13.8v-41.2
						h-5.2v-11h-1.6v11.1h-4.3v40.8h-4.7v-9.5h-14.9v-20h-24.6v20.2h-6.2v-18.6l0,0c-0.1-16.8-1.9-39-10.3-39.9
						c-10.5-1.2-12.7,22.2-13,39.9l0,0v0.9c0,1.6,0,3.3,0,4.8v13.7H276V245h-3.2v-3.6h-10.6v3.9h-4v18.3h-19.4v-10.2h-14.9v18.8
						h-13.4v-44h-4.7v-4.3h-3.6v4.7h-4.6v28.7h-9.5v-9.8h-9v-9.8l-14.5-9.8h-4.3v24h-10.6v10.3h-11.4v-7.5h-24.7v8.6H96.7v20.4h-8.6
						v5.9h-9v-17.3h-8.6v29h-6.3V314.2L64.2,314.2z"/>
				</g>
				<path class="st4" d="M60.2,324.9H49.6v3.3v2.3h413v-2.1v-2.3h-24.7v-19.8v-3.8h-12.6v-24.7h-10.9v24.7h-7.7v-8.8h-3.8V289h-25
					v4.7h-3.8v8.8h-14.7v-18h-7.7v18h-7.4v-24.7H341v-3.6h-25.4v3.6h-3.3v9.7h-8.5v8.5l-12.5-10.3c0,0-0.6-5.7-1.3-14.3
					c-0.7-8.5-1-20.9-1-20.9l-6.6-0.5l-3.4-3.7h-1.8L277,247l-6.9,0.7l-6.9-0.7l-0.2-0.7h-1.8l-3.4,3.7l-6.6,0.5
					c0,0-0.3,12.4-1,20.9c-0.1,0.7-0.1,1.5-0.2,2.2h-2.2v5h-10V291h-8.2v7.7h-32.4v-23.6h-35.7v9.7h-24.4v8.2h-11.8v-17.4h-4.7v-2.9
					H110v2.9h-4.1V293H93.8v10.6H81.7v-4.7h-7v11.3H60.2V324.9L60.2,324.9z M281.1,303.4h-18.2v-6.5c2.8-3.2,6-4.3,7.2-4.7
					c1.9,0.5,8,2.8,11,11.1V303.4z"/>
				<g>
					<polygon class="st5" points="0,330.3 0,326.6 55.8,326.6 55.8,321.3 65.5,321.3 65.5,316.9 73.2,316.9 73.2,321.3 86.1,321.3 
						86.1,313.3 109.4,313.3 109.4,307.2 136.2,307.2 136.2,318.3 142.1,318.3 142.1,313.6 146.8,313.6 146.8,297.7 152.1,297.7 
						152.1,293.9 176.6,293.9 176.6,297.7 182.2,297.7 182.2,311.8 186.9,311.8 186.9,317.2 196.3,317.2 196.3,311 205.7,311 
						205.7,290.1 219.3,290.1 219.3,316.6 231.1,316.6 231.1,305.7 257.9,305.7 257.9,295.4 269.7,295.4 269.7,311.8 281.5,311.8 
						281.5,282.7 284.6,282.7 284.6,280.4 290.3,280.4 290.3,282.4 293.8,282.4 293.8,319 298.5,319 305.2,319 305.2,316.6 
						305.2,308.4 317,308.4 317,316.2 322.4,316.2 322.4,311 327.3,311 327.3,316.2 332.7,316.2 332.7,294.5 336.5,294.5 
						336.5,290.7 362.5,290.7 362.5,293.6 367.4,293.6 367.4,315.1 377.2,315.1 377.2,304.5 386.2,304.5 386.2,312.1 392.4,312.1 
						392.4,316.6 394.6,316.6 394.6,302.8 401.3,302.8 401.3,316 405.4,316 405.4,307.2 407.2,307.2 407.2,305 420.7,305 
						420.7,307.2 422.8,307.2 422.8,316.1 433.4,316.1 433.4,297.3 442.8,297.3 442.8,316.1 454.2,316.1 454.2,322.5 1348.1,322.5 
						1348.1,330.3 50.9,330.3 					"/>
				</g>
				<g>
					<path class="st6" d="M0,330.2l51.4-0.1l154.8,0.2h256.4h2.2l883.3,0.1v4.2H454.3v3.3h-11.4v9.9h-9.5v-2.7h-5.5v8.3h-2.7v4.8
						h-5.8v8.7h-9.5v23.9h-5.5v2.7h-14v-2.2h-5.2v-21h-10v3.3h-9V384H361v5.8h-1.6V384h-4.3v-10.4h-5.5v4.6H346l-22-0.2h-13.4v-2.7
						h-3.2v7h-3.3c-0.7,7.6-3.2,15.3-10,15.7c-10.5,0.6-12.7-11.7-13-21.1l0,0v-0.5c0-0.8,0-1.4,0-2.1h-1.9v16.8h-9.8v-8.9h-3.6
						v-4.8h-3.6v-2.1h-4v-5.4h-5.8v31.9L230,415.1h-4.3v-37.5h-7.5v4.3h-7.4v2.6h-4.7v2.2h-3.6v-2.5h-4.7V382h-3.6v-4.3h-7v38.4
						h-7.9v3.3h-16.1v-3.6h-7.9v-35.7h-14.1v-3.6h-13.6v16.6l-3.6,1.4h-18.4l-3.6-1.9v-19.7h-9.8v-11.2h-9.5v-9.6h-3.6v9.1h-8.6
						v-15.4h-6.3v-4.7h-4v-2.2h-8.9v-5.6h-1.7v-0.9H0L0,330.2L0,330.2z"/>
				</g>
				<g>
					<rect x="319.1" y="330.9" class="st6" width="36.1" height="3.1"/>
					<path class="st6" d="M332.4,447.4c-0.1,0-0.2-0.1-0.2-0.2v-0.7c0-0.1,0.1-0.2,0.2-0.2h9.4c0.1,0,0.2,0.1,0.2,0.2v0.7
						c0,0.1-0.1,0.2-0.2,0.2H332.4z"/>
					<path class="st6" d="M331.5,447.4h11.2c0.1,0,0.2,0.1,0.2,0.2v0.7c0,0.1-0.1,0.2-0.2,0.2h-11.2c-0.1,0-0.2-0.1-0.2-0.2v-0.7
						C331.3,447.5,331.4,447.4,331.5,447.4z"/>
					<path class="st6" d="M316.6,340.5V338c0-0.4,0.3-0.6,0.6-0.6h0.6l1.3-3.4h36.1l1.3,3.4h0.5c0.4,0,0.6,0.3,0.6,0.6v2.5
						c0,0.6-0.5,1.2-1.2,1.2h-38.5C317.2,341.7,316.7,341.2,316.6,340.5z"/>
					<path class="st6" d="M329.7,342.1h15l-3.5,103.1h-1.3l0,0h-2.5l0,0h3.7c0.1,0,0.2,0.1,0.2,0.2v0.7c0,0.1-0.1,0.2-0.2,0.2h-7.9
						c-0.1,0-0.2-0.1-0.2-0.2v-0.7c0-0.1,0.1-0.2,0.2-0.2h3.7l0,0h-2.5l0,0h-1.2L329.7,342.1L329.7,342.1z"/>
					<path class="st6" d="M337,460.3h13.7v1.2c0,0.2-0.2,0.3-0.3,0.3H349c0.2,0,0.3,0.1,0.3,0.3v0.7c0,0.2-0.1,0.3-0.3,0.3h-1
						c0.2,0,0.3,0.1,0.3,0.3v0.7c0,0.2-0.1,0.3-0.3,0.3h-1.2c0.2,0,0.3,0.1,0.3,0.3v0.7c0,0.2-0.1,0.3-0.3,0.3h-19.2
						c-0.2,0-0.3-0.1-0.3-0.3v-0.7c0-0.2,0.1-0.3,0.3-0.3h-1.1c-0.2,0-0.3-0.1-0.3-0.3v-0.7c0-0.2,0.1-0.3,0.3-0.3h-1
						c-0.2,0-0.3-0.1-0.3-0.3v-0.7c0-0.2,0.1-0.3,0.3-0.3h-1.4c-0.2,0-0.3-0.2-0.3-0.3v-1.2l8.1-11.6h0.2l0,0l0,0h2.7l0,0l0,0h1.1
						l0,0h6.8l7.9,11.6H337L337,460.3z"/>
					<path class="st6" d="M344.6,466v0.7c0,0.2-0.1,0.3-0.3,0.3H330c-0.2,0-0.3-0.1-0.3-0.3V466c0-0.2,0.1-0.3,0.3-0.3h14.3
						C344.5,465.7,344.6,465.9,344.6,466z"/>
					<path class="st6" d="M332.9,467h8.5c0,2.9-2,5.2-4.3,5.2C334.7,472.2,332.9,469.9,332.9,467z"/>
					<polygon class="st6" points="337.3,472.3 337.7,472.3 337.1,511 336.4,472.3 337,472.4 					"/>
				</g>
			</g>
		</g>
	</g>
</g>
</svg>
