<?xml version="1.0" encoding="UTF-8"?>
<svg width="94px" height="20px" viewBox="0 0 94 20" version="1.1" xmlns="http://www.w3.org/2000/svg" xmlns:xlink="http://www.w3.org/1999/xlink">
    <!-- Generator: Sketch 50.2 (55047) - http://www.bohemiancoding.com/sketch -->
    <title>Shape Copy</title>
    <desc>Created with Sketch.</desc>
    <defs>
        <linearGradient x1="50%" y1="0%" x2="50%" y2="100%" id="linearGradient-1">
            <stop stop-color="#DFDFDF" offset="0%"></stop>
            <stop stop-color="#C0E6FC" offset="100%"></stop>
        </linearGradient>
    </defs>
    <g id="Page-1" stroke="none" stroke-width="1" fill="none" fill-rule="evenodd">
        <g id="Artboard" transform="translate(-330.000000, -7.000000)" fill="url(#linearGradient-1)" fill-rule="nonzero">
            <g id="ciry-animation" transform="translate(20.000000, 7.000000)">
                <path d="M380.766004,17.5670381 C380.054788,16.4290923 378.774599,15.6467546 377.281045,15.6467546 L377.209923,15.6467546 C376.783193,11.9484308 373.724964,9.1035663 369.955519,9.1035663 C367.537384,9.1035663 365.474857,10.2415121 364.123547,12.0195524 C363.198966,10.1703905 361.563168,8.67683663 359.571763,8.03674212 C357.935966,3.34271575 353.526426,0 348.334549,0 C342.573698,0 337.737429,4.12505348 336.670604,9.53029597 C335.959388,9.31693113 335.177051,9.17468791 334.323591,9.17468791 C330.483024,9.17468791 327.353673,12.090674 326.998065,15.8601194 C326.642457,15.7889978 326.286849,15.7178762 325.931241,15.7178762 C324.295444,15.7178762 322.873012,16.7135787 322.232917,18.136011 C318.036742,18.5627407 313.98281,19.1317135 310,19.8429297 L321.877309,19.8429297 L381.406098,19.8429297 L403.809406,19.8429297 C403.738284,19.7718081 394.492475,18.491619 380.766004,17.5670381 Z" id="Shape-Copy"></path>
            </g>
        </g>
    </g>
</svg>