<?xml version="1.0" encoding="utf-8"?>
<!-- Generator: Adobe Illustrator 23.0.1, SVG Export Plug-In . SVG Version: 6.00 Build 0)  -->
<svg version="1.1" id="Layer_1" xmlns="http://www.w3.org/2000/svg" xmlns:xlink="http://www.w3.org/1999/xlink" x="0px" y="0px"
	 viewBox="0 0 42 30" style="enable-background:new 0 0 42 30;" xml:space="preserve">
<style type="text/css">
	.st0{fill:#C5D82E;}
	.st1{fill:#3A5A7D;}
</style>
<title>email</title>
<desc>Created with Sketch.</desc>
<g id="Page-1">
	<g id="web-design-copy" transform="translate(-1101.000000, -435.000000)">
		<g id="email" transform="translate(1101.000000, 435.000000)">
			<path id="Shape" class="st0" d="M3.6,6.4l15.1,15.1c1.1,1.1,2.9,1.1,4.1,0l17.9-18h-40L3.6,6.4z"/>
			<g id="Group">
				<path class="st1" d="M37.9,0H3.6C1.6,0,0,1.6,0,3.6v22.9c0,2,1.6,3.6,3.6,3.6h34.3c2,0,3.6-1.6,3.6-3.6V3.6
					C41.4,1.6,39.9,0,37.9,0z M40,26.4c0,1.2-0.9,2.1-2.1,2.1H3.6c-1.2,0-2.1-0.9-2.1-2.1V3.6c0-1.2,0.9-2.1,2.1-2.1h34.3
					c1.2,0,2.1,0.9,2.1,2.1V26.4z"/>
				<path class="st1" d="M37.4,3.1L22.2,18.2c-0.9,0.9-2.2,0.9-3,0L4.1,3.1c-0.3-0.3-0.7-0.3-1,0s-0.3,0.7,0,1l15.1,15.1
					c0.7,0.7,1.6,1.1,2.5,1.1c0.9,0,1.9-0.4,2.5-1.1L38.4,4.1c0.3-0.3,0.3-0.7,0-1S37.6,2.8,37.4,3.1z"/>
				<path class="st1" d="M6.9,24.1l5.7-5.7c0.3-0.3,0.3-0.7,0-1c-0.3-0.3-0.7-0.3-1,0l-5.7,5.7c-0.3,0.3-0.3,0.7,0,1
					c0.1,0.1,0.4,0.2,0.5,0.2C6.6,24.3,6.8,24.2,6.9,24.1z"/>
				<path class="st1" d="M29.8,17.4c-0.3-0.3-0.7-0.3-1,0c-0.3,0.3-0.3,0.7,0,1l8.6,8.6c0.1,0.1,0.4,0.2,0.5,0.2s0.4-0.1,0.5-0.2
					c0.3-0.3,0.3-0.7,0-1L29.8,17.4z"/>
				<path class="st1" d="M17.9,12.9c0.2,0,0.4-0.1,0.5-0.2l5.7-5.7c0.3-0.3,0.3-0.7,0-1c-0.3-0.3-0.7-0.3-1,0l-5.7,5.7
					c-0.3,0.3-0.3,0.7,0,1C17.5,12.8,17.6,12.9,17.9,12.9z"/>
				<path class="st1" d="M17.9,10c0.2,0,0.4-0.1,0.5-0.2l2.9-2.9c0.3-0.3,0.3-0.7,0-1c-0.3-0.3-0.7-0.3-1,0l-2.9,2.9
					c-0.3,0.3-0.3,0.7,0,1C17.5,9.9,17.6,10,17.9,10z"/>
				<path class="st1" d="M23.1,8.8l-2.9,2.9c-0.3,0.3-0.3,0.7,0,1c0.1,0.1,0.4,0.2,0.5,0.2c0.1,0,0.4-0.1,0.5-0.2l2.9-2.9
					c0.3-0.3,0.3-0.7,0-1C23.8,8.5,23.4,8.5,23.1,8.8z"/>
				<path class="st1" d="M9.3,25.7h-5v-7.9c0-0.4-0.3-0.7-0.7-0.7s-0.7,0.3-0.7,0.7v7.9c0,0.8,0.6,1.4,1.4,1.4h5
					c0.4,0,0.7-0.3,0.7-0.7S9.7,25.7,9.3,25.7z"/>
				<path class="st1" d="M35,25.7H12.1c-0.4,0-0.7,0.3-0.7,0.7s0.3,0.7,0.7,0.7H35c0.4,0,0.7-0.3,0.7-0.7S35.4,25.7,35,25.7z"/>
			</g>
		</g>
	</g>
</g>
</svg>
