<?xml version="1.0" encoding="utf-8"?>
<!-- Generator: Adobe Illustrator 23.0.1, SVG Export Plug-In . SVG Version: 6.00 Build 0)  -->
<svg version="1.1" id="Layer_1" xmlns="http://www.w3.org/2000/svg" xmlns:xlink="http://www.w3.org/1999/xlink" x="0px" y="0px"
	 viewBox="0 0 801 698.4" style="enable-background:new 0 0 801 698.4;" xml:space="preserve">
<style type="text/css">
	.st0{opacity:0.5;}
	.st1{opacity:0.256;}
	.st2{fill:#F76262;stroke:#F76262;stroke-width:0.4;}
	.st3{fill:none;stroke:#C5D82E;stroke-width:3;stroke-linecap:round;stroke-linejoin:round;stroke-dasharray:10,20;}
	
		.st4{opacity:0.3;fill:none;stroke:#C5D82E;stroke-width:3;stroke-linecap:round;stroke-linejoin:round;stroke-dasharray:10,20;enable-background:new    ;}
	.st5{fill:#C5D82E;}
	.st6{opacity:0.67;fill:#C5D82E;enable-background:new    ;}
	.st7{opacity:0.4;fill:#C5D82E;enable-background:new    ;}
</style>
<g id="Page-1" transform="translate(321.54 5.449)" class="st0">
	<g id="web-design" transform="translate(0 -1596)">
		<g id="Group-10" transform="translate(-320 1592)">
			<g id="error-tab-copy" transform="translate(220 177)" class="st1">
				<g id="danger">
					<path id="Shape" class="st2" d="M334.1,244.9L195.2,15.2c-8.7-14.4-27.4-19-41.8-10.3c-4.2,2.5-7.7,6.1-10.3,10.3L4.4,244.9
						c-8.7,14.3-4,33,10.3,41.6c4.7,2.9,10.2,4.4,15.7,4.4H308c16.8,0,30.4-13.5,30.4-30.3C338.4,255.1,336.9,249.7,334.1,244.9
						L334.1,244.9z M315.3,264.7c-1.5,2.6-4.3,4.2-7.3,4.2H30.4c-4.6,0-8.4-3.7-8.4-8.3c0-1.5,0.4-3,1.2-4.3L162,26.6
						c2.4-4,7.5-5.2,11.5-2.8c1.2,0.7,2.1,1.7,2.8,2.8l138.8,229.7C316.7,258.9,316.8,262.1,315.3,264.7z"/>
					<path id="Shape-2" class="st2" d="M169.3,91c-8.4,0-14.9,4.5-14.9,12.4c0,24.3,2.9,59.2,2.9,83.4c0,6.3,5.5,9,12.1,9
						c4.9,0,11.9-2.7,11.9-9c0-24.3,2.9-59.2,2.9-83.4C184,95.5,177.3,91,169.3,91z"/>
					<path id="Shape-3" class="st2" d="M169.5,209.9c-8.7,0-15.7,7-15.7,15.7c0,8.7,7,15.7,15.7,15.7c8.4,0,15.5-7.3,15.5-15.7
						C185,217.1,178.1,210.1,169.5,209.9z"/>
				</g>
			</g>
			<path id="Rectangle-3-Copy-3" class="st3" d="M516.9,52.4L516.9,52.4C376.5-6.3,215.1,59.8,156.4,200.2
				C142.3,233.9,135,270,135,306.6v244.8c0,13.2,8.6,24.9,21.3,28.7C504,685.7,709.4,705,772.5,637.9
				c73.9-78.5-25.3-153.4-139.1-284.5S909.1,216.6,516.9,52.4z"/>
			<path id="Rectangle-3-Copy-3-2" class="st4" d="M219.6,95.3c-254.5-118-287.7-126.4-99.8-25l0,0c9.7,5.2,15.8,15.4,15.8,26.4
				v469.7c0,14.4,10.2,26.7,24.3,29.5c247.6,47.7,402.6,34.9,464.9-38.6c73.9-87,225-230,111.2-375.2S611.6,277.1,219.6,95.3z"/>
			<path id="Rectangle-3-Copy-6" class="st5" d="M413,4L413,4c13.8,0,25,11.2,25,25v3c0,13.8-11.2,25-25,25l0,0
				c-13.8,0-25-11.2-25-25v-3C388,15.2,399.2,4,413,4z"/>
			<path id="Rectangle-3-Copy-6_1_" class="st5" d="M750.1,73.1L750.1,73.1c5.4,0,9.8,4.4,9.8,9.8v1.2c0,5.4-4.4,9.8-9.8,9.8l0,0
				c-5.4,0-9.8-4.4-9.8-9.8v-1.2C740.3,77.5,744.7,73.1,750.1,73.1z"/>
			<path id="Rectangle-3-Copy-6_2_" class="st5" d="M155.1,136.1L155.1,136.1c5.4,0,9.8,4.4,9.8,9.8v1.2c0,5.4-4.4,9.8-9.8,9.8l0,0
				c-5.4,0-9.8-4.4-9.8-9.8v-1.2C145.3,140.5,149.7,136.1,155.1,136.1z"/>
			<path id="Rectangle-3-Copy-7" class="st6" d="M508.5,590L508.5,590c27.9,0,50.5,22.6,50.5,50.5v6c0,27.9-22.6,50.5-50.5,50.5l0,0
				c-27.9,0-50.5-22.6-50.5-50.5v-6C458,612.6,480.6,590,508.5,590z"/>
			<path id="Rectangle-3-Copy-7_1_" class="st7" d="M67.5,561.4L67.5,561.4c14.9,0,27,12.1,27,27v3.2c0,14.9-12.1,27-27,27l0,0
				c-14.9,0-27-12.1-27-27v-3.2C40.6,573.5,52.7,561.4,67.5,561.4z"/>
			<path id="Rectangle-3-Copy-7_2_" class="st7" d="M709.5,280.5L709.5,280.5c8.4,0,15.2,6.8,15.2,15.2v1.8
				c0,8.4-6.8,15.2-15.2,15.2l0,0c-8.4,0-15.2-6.8-15.2-15.2v-1.8C694.3,287.3,701.1,280.5,709.5,280.5z"/>
			<path id="Rectangle-3-Copy-7_3_" class="st7" d="M755.5,30.5L755.5,30.5c8.4,0,15.2,6.8,15.2,15.2v1.8c0,8.4-6.8,15.2-15.2,15.2
				l0,0c-8.4,0-15.2-6.8-15.2-15.2v-1.8C740.3,37.3,747.1,30.5,755.5,30.5z"/>
		</g>
	</g>
</g>
</svg>
