<?xml version="1.0" encoding="UTF-8"?>
<svg width="136px" height="125px" viewBox="0 0 136 125" version="1.1" xmlns="http://www.w3.org/2000/svg" xmlns:xlink="http://www.w3.org/1999/xlink">
    <!-- Generator: Sketch 50.2 (55047) - http://www.bohemiancoding.com/sketch -->
    <title>fast-2</title>
    <desc>Created with Sketch.</desc>
    <defs>
        <filter x="-73.2%" y="-83.3%" width="246.5%" height="273.3%" filterUnits="objectBoundingBox" id="filter-1">
            <feOffset dx="0" dy="2" in="SourceAlpha" result="shadowOffsetOuter1"></feOffset>
            <feGaussianBlur stdDeviation="17" in="shadowOffsetOuter1" result="shadowBlurOuter1"></feGaussianBlur>
            <feColorMatrix values="0 0 0 0 1   0 0 0 0 0.219607843   0 0 0 0 0.219607843  0 0 0 0.7 0" type="matrix" in="shadowBlurOuter1" result="shadowMatrixOuter1"></feColorMatrix>
            <feMerge>
                <feMergeNode in="shadowMatrixOuter1"></feMergeNode>
                <feMergeNode in="SourceGraphic"></feMergeNode>
            </feMerge>
        </filter>
    </defs>
    <g id="Page-1" stroke="none" stroke-width="1" fill="none" fill-rule="evenodd">
        <g id="web-design" transform="translate(-531.000000, -2075.000000)" fill-rule="nonzero">
            <g id="Group-5" transform="translate(248.000000, 2061.000000)">
                <g id="fast-2" filter="url(#filter-1)" transform="translate(316.000000, 45.000000)">
                    <g id="Group" transform="translate(1.235698, 1.372998)">
                        <path d="M12.9201229,45.9273097 C10.7340533,42.1403032 9.66998005,37.9542692 9.67158892,33.7955878 L0.132472279,33.7955878 C0.131400137,39.576659 1.6138086,45.4011728 4.6585384,50.6748784 C5.96932201,52.9564145 8.88157895,53.7432066 11.1631151,52.4318864 C13.444651,51.1211027 14.2314431,48.2088459 12.9201229,45.9273097 Z" id="Shape" fill="#FFFFFF"></path>
                        <path d="M58.154498,33.7961242 C58.1561069,37.9542692 57.0920337,42.1403032 54.905964,45.9273097 C53.5946438,48.2088459 54.3814359,51.1211027 56.6629719,52.4318864 C58.944508,53.7432066 61.8567649,52.9564145 63.1675486,50.6754148 C66.2122784,45.4011728 67.6952231,39.5771953 67.6936154,33.7961242 L58.154498,33.7961242 Z" id="Shape" fill="#D0021B"></path>
                        <path d="M9.88022032,30.6258939 C10.2910469,27.505542 11.3148956,24.4602761 12.926559,21.678883 L4.64834815,16.8996711 C2.41722686,20.77249 0.997032357,25.0244923 0.422089565,29.3923413 C0.230084348,30.8506149 0.133009153,32.3217605 0.133009153,33.7955878 L9.67158892,33.7955878 C9.67212522,32.7352689 9.74184783,31.6760226 9.88022032,30.6258939 Z" id="Shape" fill="#FFFFFF"></path>
                        <path d="M4.64834815,16.8996711 L12.9260226,21.678883 C13.9681064,19.8805778 15.2563645,18.192756 16.7827517,16.6658323 C18.3166476,15.1324729 20.0050057,13.8474328 21.7974113,12.8107123 L17.0112272,4.52123863 C14.5108696,5.96664041 12.1558567,7.75958238 10.0164474,9.89899167 C7.89098252,12.0244565 6.09804055,14.382151 4.64834815,16.8996711 Z" id="Shape" fill="#FFFFFF"></path>
                        <path d="M17.0112272,4.52123863 L21.7974113,12.8107123 C25.5334668,10.6509225 29.7232551,9.57075941 33.9130435,9.57075941 L33.9130435,0.000536292906 C28.0686857,0.000536292906 22.2237914,1.50707945 17.0112272,4.52123863 Z" id="Shape" fill="#FFFFFF"></path>
                        <path d="M33.9130435,0.000536292906 L33.9130435,9.57075941 C35.9269523,9.57075941 37.9408611,9.82015167 39.904355,10.3194722 L40.4626716,10.4685713 C42.38755,11.0070438 44.2593321,11.7873998 46.0286757,12.8107123 L50.8148598,4.52123863 C45.6028318,1.50707945 39.7579376,0.000536292906 33.9130435,0.000536292906 Z" id="Shape" fill="#FF8989" opacity="0.297935268"></path>
                        <path d="M46.0286757,12.8107123 C47.8216175,13.8468964 49.5094394,15.1319366 51.0433352,16.6658323 C52.5702589,18.192756 53.8579805,19.8805778 54.9000644,21.678883 L63.1782752,16.8996711 C61.7280464,14.382151 59.9356407,12.0244565 57.8096396,9.89899167 C55.6702303,7.75958238 53.3157537,5.96717684 50.8148598,4.52123863 L46.0286757,12.8107123 Z" id="Shape" fill="#FF3838" opacity="0.556082589"></path>
                        <path d="M63.1782752,16.8996711 L54.9000644,21.678883 C56.5117277,24.4602761 57.5355763,27.505542 57.9464031,30.6258939 C58.0842391,31.6760226 58.154498,32.7352689 58.1550343,33.7955878 L67.6936141,33.7955878 C67.6936141,32.3217605 67.5965389,30.8506149 67.4045338,29.3923413 C66.829591,25.0244923 65.4088601,20.7730263 63.1782752,16.8996711 Z" id="Shape" fill="#FF3838"></path>
                        <path d="M33.2126002,36.4214459 L39.8818292,37.5112628 L60.1035111,40.8150386 L40.9367849,33.5649671 L34.6183138,31.1745567 C33.2211814,30.6462743 31.6781679,31.6529605 31.2920123,33.0951445 C30.9053204,34.5373284 31.7387728,36.180635 33.2126002,36.4214459 Z" id="Shape" fill="#808080"></path>
                        <path d="M39.8818292,37.5107265 L33.2126002,36.4214459 C31.7387728,36.1800987 30.9053204,34.5373284 31.2920123,33.0951445 C31.6781679,31.6524242 33.2211814,30.6462743 34.6183138,31.1745567 L40.9367849,33.5649671 C40.8799343,31.8449657 40.1955806,30.142663 38.883188,28.8297339 C36.1393378,26.0858839 31.6910397,26.0858839 28.9471896,28.8297339 C26.2033395,31.5735842 26.2033395,36.0218822 28.9471896,38.7657323 C31.6910397,41.5095824 36.1393378,41.5095824 38.883188,38.7657323 C39.2709526,38.3785041 39.6034753,37.9569508 39.8818292,37.5107265 Z" id="Shape" fill="#E6E6E6"></path>
                        <polygon id="Shape" fill="#FFFFFF" points="25.6739846 48.6722326 42.1521023 48.6722326 42.1521023 53.0663616 25.6739846 53.0663616"></polygon>
                    </g>
                    <path d="M11.2521453,12.6449871 C11.6034397,12.6449871 11.9547339,12.5109054 12.2228977,12.2427417 C12.2239703,12.2422053 12.2277246,12.2384511 12.2309425,12.2352331 C12.7667334,11.7064145 12.7769237,10.8434639 12.251323,10.3017735 C11.7230405,9.75793757 10.8536541,9.74452943 10.3092821,10.2728117 C10.3033825,10.2787114 10.2856836,10.2958738 10.2797841,10.3023097 C9.74506572,10.838637 9.74506572,11.7069508 10.2808567,12.2427417 C10.5495567,12.5114416 10.9008509,12.6449871 11.2521453,12.6449871 Z" id="Shape" fill="#23374D"></path>
                    <path d="M70.0014302,30.5862056 C68.994744,22.9371067 65.4485484,15.7331594 60.0166262,10.3012372 C53.373677,3.65828801 44.5425129,0 35.1487414,0 C27.8074943,0 20.7789259,2.23487561 14.8224757,6.46274307 C14.2040904,6.9019951 14.0587457,7.75904609 14.4974614,8.37743135 C14.936177,8.99581661 15.793228,9.14116133 16.4121496,8.70244558 C16.8551559,8.38815789 17.3045981,8.08674206 17.7599399,7.79658892 L21.1752717,13.7122784 C19.7035897,14.6749856 18.3198656,15.7953733 17.0476973,17.0675415 C15.7873284,18.3279104 14.6669408,19.7159253 13.7004791,21.1994065 L7.78478979,17.784611 C8.40156604,16.8117133 9.07036613,15.8704591 9.79118993,14.9656751 C10.2631579,14.3724972 10.1655463,13.508474 9.57236842,13.0359696 C8.97865414,12.5634654 8.11516737,12.6616133 7.64266297,13.2542548 C3.67330517,18.2383439 1.13272311,24.2312643 0.296052632,30.5856693 C-0.707415652,38.2063429 0.858659863,46.0721182 4.70358975,52.7316934 C5.52041616,54.1534969 6.84192645,55.1714459 8.42462815,55.5988987 C8.95720105,55.7431708 9.4978189,55.813966 10.0352189,55.813966 C11.0944652,55.813966 12.1403032,55.5372211 13.0831664,54.9955306 C14.5049699,54.1781679 15.5229191,52.8571939 15.9503719,51.2744923 C16.3778246,49.6912543 16.16383,48.0372211 15.3453947,46.6132723 C12.805349,42.2132437 11.8131435,37.2216461 12.4771167,32.1780249 C13.1373356,27.1633653 15.3893736,22.609947 18.9897383,19.0095824 C23.3060999,14.6932208 29.0448012,12.3167548 35.1487414,12.3167548 C41.253218,12.3167548 46.9924557,14.6932208 51.3082808,19.0095824 C54.9086456,22.6094108 57.1601473,27.1633653 57.8209024,32.1780249 C58.1384081,34.5909611 58.0761942,36.9920981 57.6471324,39.3229763 L43.4602045,33.9564859 C43.2016948,32.1726616 42.3800415,30.5213101 41.0901746,29.2314431 C37.8153604,25.956629 32.4869493,25.956629 29.2121353,29.2314431 C25.9373212,32.5062571 25.9373212,37.8352045 29.2121353,41.1100186 C30.8495423,42.7474256 33.0002145,43.5658611 35.1508867,43.5658611 C37.3020953,43.5658611 39.4527674,42.7474256 41.0901746,41.1094822 C41.3218679,40.8783253 41.5390804,40.6332236 41.741812,40.3773956 L56.7074871,42.8225114 C56.2430278,44.124714 55.6568222,45.3925915 54.9510154,46.6154176 C53.265339,49.5502002 54.2806064,53.3093178 57.2148527,54.9949943 C58.6361198,55.812357 60.2906894,56.0263516 61.873391,55.5988987 C63.4560927,55.1714459 64.777603,54.1529605 65.5928204,52.734375 C69.438823,46.0726545 71.0048985,38.2063429 70.0014302,30.5862056 Z M12.9657108,47.9841247 C13.416762,48.7698441 13.5352903,49.6837457 13.2993063,50.5584954 C13.062786,51.4327087 12.5001788,52.1631865 11.7149957,52.6142377 C10.9292762,53.0658253 10.0153746,53.1843535 9.14062503,52.9483696 C8.26641158,52.7118493 7.53593396,52.1492419 7.08327378,51.3613773 C4.43274453,46.7704162 2.97393446,41.7284039 2.76423048,36.5421196 L9.57665904,36.5421196 C9.79601684,40.5511656 10.9518021,44.4963887 12.9657108,47.9841247 Z M9.75471968,31.8197583 C9.6678346,32.4767591 9.60883867,33.1359054 9.57397744,33.7955878 L2.76959382,33.7955878 C2.81142728,32.8473612 2.89348545,31.8969894 3.01898595,30.9444722 C3.51777034,27.1574657 4.67301913,23.5109768 6.41447368,20.1648313 L12.3258725,23.5774814 C11.0129434,26.1545338 10.1328303,28.9466533 9.75471968,31.8197583 Z M31.1536399,39.1679778 C28.9498712,36.9642091 28.9498712,33.3777888 31.1536399,31.1740203 C33.3579448,28.9697154 36.9438287,28.9702517 39.1481335,31.1740203 C39.6104477,31.6363344 39.9826587,32.1678346 40.256722,32.7454591 L36.3399242,31.263587 C35.3697082,30.8967391 34.3061713,30.965389 33.3450729,31.4582738 C32.3056708,31.9908467 31.5038616,32.9835884 31.201373,34.1130935 C30.8988844,35.2420624 31.0967892,36.5018951 31.730728,37.4833738 C32.3169336,38.3903032 33.2029462,38.9824085 34.2267949,39.1497426 L38.3581236,39.8244423 C36.1570366,41.3427846 33.1112342,41.1250358 31.1536399,39.1679778 Z M41.3395667,37.5289617 C41.3358124,37.5284253 41.332058,37.527889 41.3283037,37.5268163 L34.6698012,36.4391448 C34.3517591,36.387121 34.1506365,36.1677632 34.0374714,35.9934568 C33.8207952,35.6577159 33.7505363,35.2093464 33.8540474,34.8231908 C33.9575587,34.4370351 34.2423485,34.0841319 34.5979333,33.9017806 C34.7207522,33.8390304 34.88755,33.7784253 35.0741919,33.7784253 C35.1680492,33.7784253 35.2672697,33.7939788 35.3680992,33.832058 L41.6608267,36.2122784 C41.6736986,36.2176416 41.6871067,36.2224685 41.7005149,36.2272955 L48.0313215,38.6219966 L41.3395667,37.5289617 Z M36.5217391,9.60722966 L36.5217391,2.77710233 C41.3454662,2.9766162 45.9798699,4.22679487 50.1626859,6.41715529 L46.7462815,12.33499 C43.5953589,10.7308352 40.1280034,9.79655314 36.5217391,9.60722966 Z M20.1358696,6.4187643 C24.3406751,4.21553204 28.972397,2.97447076 33.7757437,2.77549346 L33.7757437,9.60722966 C30.1694794,9.79655314 26.7021239,10.7308352 23.5512014,12.33499 L20.1358696,6.4187643 Z M49.1222112,13.7122784 L52.5396881,7.79337103 C54.5187357,9.05588526 56.3749642,10.5431206 58.0745852,12.2427417 C59.7736698,13.9418264 61.2592963,15.7969823 62.520738,17.7797841 L56.59754,21.1999428 C55.6310784,19.7159253 54.5101545,18.3279104 53.2497855,17.0675415 C51.9776172,15.7953733 50.5938931,14.6749856 49.1222112,13.7122784 Z M57.9716103,23.5774814 L63.8948084,20.1578589 C65.6287543,23.4852331 66.7748856,27.1161685 67.2790332,30.9444722 C67.4039974,31.8964531 67.4860556,32.8473612 67.5284253,33.7955878 L60.7240418,33.7955878 C60.6891805,33.1359054 60.6296482,32.4767591 60.5432995,31.8197583 C60.1651888,28.9466533 59.2850758,26.1545338 57.9716103,23.5774814 Z M63.2126002,51.3635226 C62.7615489,52.1492419 62.0310713,52.7118493 61.1568578,52.9478333 C60.2826445,53.1838173 59.3682066,53.0658253 58.5830235,52.6142377 C56.9617063,51.6826373 56.4001716,49.605442 57.3306994,47.9868063 C58.1957952,46.4883081 58.9021381,44.9056064 59.444365,43.2698084 L61.1177059,43.5433352 C61.1927918,43.5556708 61.2668049,43.5615704 61.3402818,43.5615704 C61.9516948,43.5615704 62.5025028,43.1518163 62.6655463,42.5436213 C62.848434,41.8619493 62.484804,41.1534611 61.8251216,40.9035325 L60.2354477,40.302846 C60.4885941,39.0633939 60.6516376,37.8062429 60.7213601,36.5421196 L67.5332524,36.5421196 C67.3235484,41.7289402 65.8647383,46.7709526 63.2126002,51.3635226 Z" id="Shape" fill="#23374D"></path>
                    <path d="M43.3878003,48.6722326 L26.9096826,48.6722326 C26.1513158,48.6722326 25.5366849,49.2868635 25.5366849,50.0452303 L25.5366849,54.4393593 C25.5366849,55.197726 26.1513158,55.812357 26.9096826,55.812357 L43.3878003,55.812357 C44.146167,55.812357 44.7613344,55.197726 44.7613344,54.4393593 L44.7613344,50.0452303 C44.7613344,49.2868635 44.146167,48.6722326 43.3878003,48.6722326 Z M42.0148026,53.0663616 L28.2832166,53.0663616 L28.2832166,51.418228 L42.0148026,51.418228 L42.0148026,53.0663616 Z" id="Shape" fill="#23374D"></path>
                    <path d="M14.85251,33.7955878 C14.0941433,33.7955878 13.4795123,34.4102189 13.4795123,35.1685855 C13.4795123,35.9269523 14.0941433,36.5415832 14.85251,36.5415832 L14.8852259,36.5415832 C15.6435927,36.5415832 16.2582236,35.9269523 16.2582236,35.1685855 C16.2582236,34.4102189 15.6435927,33.7955878 14.8852259,33.7955878 L14.85251,33.7955878 Z" id="Shape" fill="#23374D"></path>
                    <path d="M26.2081664,16.9339961 L26.1920767,16.9055706 C25.812357,16.2491061 24.9724685,16.0238486 24.3160039,16.4035683 C23.6595394,16.7827517 23.4342821,17.6226401 23.8140016,18.2796411 L23.8300915,18.3075301 C24.0843106,18.7478547 24.5460884,18.9940289 25.0202017,18.9940289 C25.2535041,18.9940289 25.4894881,18.9344966 25.7056278,18.8100686 C26.3626286,18.430349 26.5873498,17.5909969 26.2081664,16.9339961 Z" id="Shape" fill="#23374D"></path>
                    <path d="M45.2815718,18.9967105 C45.7562213,18.9967105 46.2174629,18.7505363 46.4716819,18.3102117 L46.4877718,18.2817864 C46.8674914,17.6253218 46.6422341,16.7854333 45.9857695,16.4057136 C45.329305,16.0265303 44.4894165,16.2512514 44.1096968,16.9082524 L44.093607,16.9366777 C43.7144237,17.5931422 43.9391448,18.4330306 44.5961456,18.812214 C44.8122854,18.9371782 45.0482694,18.9967105 45.2815718,18.9967105 Z" id="Shape" fill="#23374D"></path>
                    <path d="M55.4449729,36.5464103 C56.2033395,36.5464103 56.8179706,35.9317792 56.8179706,35.1734125 C56.8179706,34.4150458 56.2033395,33.7998784 55.4449729,33.7998784 L55.4127932,33.7998784 C54.6544265,33.7998784 54.0392592,34.4150458 54.0392592,35.1734125 C54.0392592,35.9317792 54.6544265,36.5464103 55.4127932,36.5464103 L55.4449729,36.5464103 Z" id="Shape" fill="#23374D"></path>
                    <path d="M30.3748928,57.185891 L30.3427131,57.185891 C29.5843464,57.185891 28.9697154,57.8005221 28.9697154,58.5588887 C28.9697154,59.3172555 29.5843464,59.9318864 30.3427131,59.9318864 L30.3748928,59.9318864 C31.1332594,59.9318864 31.7484268,59.3172555 31.7484268,58.5588887 C31.7484268,57.8005221 31.1332594,57.185891 30.3748928,57.185891 Z" id="Shape" fill="#23374D"></path>
                    <path d="M39.955306,57.185891 L34.3201159,57.185891 C33.5622854,57.185891 32.9471182,57.8010584 32.9471182,58.559425 C32.9471182,59.3177918 33.5622854,59.9324227 34.3201159,59.9324227 L39.955306,59.9324227 C40.7131365,59.9324227 41.3283037,59.3177918 41.3283037,58.559425 C41.3283037,57.8010584 40.7136728,57.185891 39.955306,57.185891 Z" id="Shape" fill="#23374D"></path>
                </g>
            </g>
        </g>
    </g>
</svg>