<?xml version="1.0" encoding="utf-8"?>
<!-- Generator: Adobe Illustrator 23.0.1, SVG Export Plug-In . SVG Version: 6.00 Build 0)  -->
<svg version="1.1" id="Layer_1" xmlns="http://www.w3.org/2000/svg" xmlns:xlink="http://www.w3.org/1999/xlink" x="0px" y="0px"
	 viewBox="0 0 1366 371" style="enable-background:new 0 0 1366 371;" xml:space="preserve">
<style type="text/css">
	.st0{opacity:0.37;}
	.st1{opacity:0.15;fill:url(#Path_1_1_);enable-background:new    ;}
	.st2{opacity:0.15;fill:url(#Path_2_1_);enable-background:new    ;}
	.st3{opacity:0.15;fill:url(#Path_3_1_);enable-background:new    ;}
</style>
<g id="Group_1" transform="translate(0 -397)" class="st0">
	
		<linearGradient id="Path_1_1_" gradientUnits="userSpaceOnUse" x1="-67.7892" y1="879.2563" x2="-67.4502" y2="879.2563" gradientTransform="matrix(1366.0013 0 0 -371 92820.0938 326867.25)">
		<stop  offset="0" style="stop-color:#21E6C1"/>
		<stop  offset="0.318" style="stop-color:#149EF1"/>
		<stop  offset="1" style="stop-color:#1089FF"/>
	</linearGradient>
	<path id="Path_1" class="st1" d="M1028,703.7c341.5-52.4,338-145.4,338-145.4V768H0C0,768,686.5,756.1,1028,703.7z"/>
	
		<linearGradient id="Path_2_1_" gradientUnits="userSpaceOnUse" x1="-67.7792" y1="879.1954" x2="-67.4402" y2="879.1954" gradientTransform="matrix(1136.5901 0 0 -308.693 77449.5391 272082.25)">
		<stop  offset="0" style="stop-color:#21E6C1"/>
		<stop  offset="0.318" style="stop-color:#149EF1"/>
		<stop  offset="1" style="stop-color:#1089FF"/>
	</linearGradient>
	<path id="Path_2" class="st2" d="M1084.8,714.5c284.1-43.6,281.2-121,281.2-121V768H229.4C229.4,768,800.6,758.1,1084.8,714.5z"/>
	
		<linearGradient id="Path_3_1_" gradientUnits="userSpaceOnUse" x1="-67.7535" y1="879.04" x2="-67.4146" y2="879.04" gradientTransform="matrix(795.7797 0 0 -216.13 54615.2422 190693.8438)">
		<stop  offset="0" style="stop-color:#21E6C1"/>
		<stop  offset="0.318" style="stop-color:#149EF1"/>
		<stop  offset="1" style="stop-color:#1089FF"/>
	</linearGradient>
	<path id="Path_3" class="st3" d="M1169.1,730.5C1368,700,1366,645.8,1366,645.8V768H570.2C570.2,768,970.2,761.1,1169.1,730.5z"/>
</g>
</svg>
