<?xml version="1.0" encoding="UTF-8"?>
<svg width="90px" height="90px" viewBox="0 0 90 90" version="1.1" xmlns="http://www.w3.org/2000/svg" xmlns:xlink="http://www.w3.org/1999/xlink">
    <!-- Generator: Sketch 50 (54983) - http://www.bohemiancoding.com/sketch -->
    <title>linkedin-logo</title>
    <desc>Created with Sketch.</desc>
    <defs>
        <linearGradient x1="50%" y1="4.84555636%" x2="50%" y2="100%" id="linearGradient-1">
            <stop stop-color="#97DD19" offset="0%"></stop>
            <stop stop-color="#44EB00" offset="100%"></stop>
        </linearGradient>
        <path d="M87.4,68.6549603 L87.4,88 L76.1689833,88 L76.1689833,69.9505744 C76.1689833,65.4164116 74.5445379,62.3220228 70.4792821,62.3220228 C67.3759749,62.3220228 65.5291946,64.4074141 64.7167282,66.4246792 C64.4204442,67.1458436 64.3441803,68.14961 64.3441803,69.1590941 L64.3441803,88 L53.109387,88 C53.109387,88 53.2606965,57.4301974 53.109387,54.2629379 L64.3430839,54.2629379 L64.3430839,59.0450314 C64.3203022,59.0807977 64.2906981,59.1193619 64.2692565,59.1540333 L64.3430839,59.1540333 L64.3430839,59.0450314 C65.8355903,56.7495438 68.5010502,53.4703627 74.4671775,53.4703627 C81.8588063,53.470241 87.4,58.292237 87.4,68.6549603 Z M41.3573149,38 C37.5139067,38 35,40.5173843 35,43.8278305 C35,47.0661359 37.4411758,49.6599189 41.2081982,49.6599189 L41.2832439,49.6599189 C45.2010885,49.6599189 47.6376349,47.0666225 47.6376349,43.8278305 C47.5638075,40.5173843 45.2010885,38 41.3573149,38 Z M35.6672482,88 L46.8977776,88 L46.8977776,54.2629379 L35.6672482,54.2629379 L35.6672482,88 Z" id="path-2"></path>
        <filter x="-8.6%" y="-5.0%" width="117.2%" height="120.0%" filterUnits="objectBoundingBox" id="filter-3">
            <feOffset dx="0" dy="3" in="SourceAlpha" result="shadowOffsetOuter1"></feOffset>
            <feGaussianBlur stdDeviation="1" in="shadowOffsetOuter1" result="shadowBlurOuter1"></feGaussianBlur>
            <feColorMatrix values="0 0 0 0 0   0 0 0 0 0   0 0 0 0 0  0 0 0 0.15 0" type="matrix" in="shadowBlurOuter1"></feColorMatrix>
        </filter>
    </defs>
    <g id="Page-1" stroke="none" stroke-width="1" fill="none" fill-rule="evenodd">
        <g id="about-us" transform="translate(-1113.000000, -545.000000)">
            <g id="linkedin-logo" transform="translate(1102.000000, 530.000000)">
                <path d="M53.7935782,78.323374 C67.427849,81.3484181 70.6678272,101.980561 84.825737,97.8640504 C92.9430562,95.5038837 99.1735838,87.9488425 102.367919,81.28484 C105.562253,74.6208374 108.354032,62.4923668 102.367919,47.3547722 C98.8128601,38.3647935 92.7053019,30.7997672 77.4712281,25.6453244 C62.2371543,20.4908815 46.5858083,22.1246565 33.0816449,28.9271448 C19.5774815,35.7296332 11.4659368,46.9195258 11.4659368,60.0273221 C11.4659368,69.1790569 14.3814325,79.2589577 21.4170255,84.9714648 C28.4526184,90.6839718 40.1593075,75.2983299 53.7935782,78.323374 Z" id="Mask" fill="url(#linearGradient-1)" opacity="0.149999991" transform="translate(58.676386, 60.509824) rotate(127.000000) translate(-58.676386, -60.509824) "></path>
                <g id="LinkedIn" fill-rule="nonzero">
                    <use fill="black" fill-opacity="1" filter="url(#filter-3)" xlink:href="#path-2"></use>
                    <use fill="#4B9EFF" fill-rule="evenodd" xlink:href="#path-2"></use>
                </g>
            </g>
        </g>
    </g>
</svg>