<?xml version="1.0" encoding="UTF-8"?>
<svg width="142px" height="20px" viewBox="0 0 142 20" version="1.1" xmlns="http://www.w3.org/2000/svg" xmlns:xlink="http://www.w3.org/1999/xlink">
    <!-- Generator: sketchtool 50 (54983) - http://www.bohemiancoding.com/sketch -->
    <title>5AF6ECF9-F101-4D5B-8A21-9B71517D76FE</title>
    <desc>Created with sketchtool.</desc>
    <defs></defs>
    <g id="Page-1" stroke="none" stroke-width="1" fill="none" fill-rule="evenodd">
        <g id="Hom-Design" transform="translate(-1117.000000, -25.000000)" fill-rule="nonzero">
            <g id="header">
                <g id="Group-16-(1)" transform="translate(1117.000000, 25.000000)">
                    <g id="Group" transform="translate(0.000000, 0.714286)" fill="#939598">
                        <path d="M5,12.5714286 L3.07142857,18.2857143 L0.642857143,18.2857143 L6.92857143,0.142857143 L9.78571429,0.142857143 L15.8571429,18.3571429 L13.3571429,18.3571429 L11.4285714,12.6428571 L5,12.5714286 Z M10.9285714,10.7857143 L9.21428571,5.57142857 C8.78571429,4.35714286 8.57142857,3.28571429 8.28571429,2.21428571 L8.21428571,2.21428571 C7.92857143,3.28571429 7.64285714,4.35714286 7.28571429,5.5 L5.5,10.7142857 L10.9285714,10.7857143 Z" id="Shape"></path>
                        <polygon id="Shape" points="25.3571429 2.21428571 19.8571429 2.14285714 19.8571429 0.142857143 33.2857143 0.214285714 33.2857143 2.21428571 27.7142857 2.14285714 27.5714286 18.2857143 25.2142857 18.2857143"></polygon>
                        <path d="M40.7142857,0.642857143 C41.9285714,0.428571429 43.5714286,0.285714286 45.2142857,0.285714286 C47.7142857,0.285714286 49.3571429,0.785714286 50.4285714,1.78571429 C51.3571429,2.57142857 51.8571429,3.85714286 51.8571429,5.21428571 C51.8571429,7.64285714 50.2857143,9.21428571 48.4285714,9.85714286 L48.4285714,9.92857143 C49.8571429,10.4285714 50.6428571,11.7142857 51.0714286,13.6428571 C51.6428571,16.2142857 52.0714286,17.9285714 52.4285714,18.6428571 L50,18.5714286 C49.7142857,18.0714286 49.2857143,16.5 48.8571429,14.2142857 C48.3571429,11.7142857 47.3571429,10.7857143 45.2142857,10.6428571 L43,10.6428571 L42.9285714,18.5 L40.5714286,18.5 L40.7142857,0.642857143 Z M43,8.92857143 L45.4285714,8.92857143 C47.9285714,8.92857143 49.5,7.57142857 49.5714286,5.5 C49.5714286,3.14285714 47.9285714,2.14285714 45.4285714,2.07142857 C44.2857143,2.07142857 43.5,2.14285714 43.1428571,2.28571429 L43,8.92857143 Z" id="Shape"></path>
                        <path d="M90.5,18.9285714 L84.7142857,0.714285714 L87.2142857,0.714285714 L90,9.71428571 C90.7857143,12.1428571 91.4285714,14.3571429 91.8571429,16.5 L91.9285714,16.5 C92.4285714,14.4285714 93.2142857,12.1428571 94.0714286,9.78571429 L97.2142857,0.857142857 L99.7142857,0.857142857 L93.0714286,19 L90.5,18.9285714 Z" id="Shape"></path>
                        <path d="M108.428571,13.3571429 L106.5,19.0714286 L104.071429,19.0714286 L110.357143,0.928571429 L113.214286,0.928571429 L119.285714,19.1428571 L116.785714,19.1428571 L114.857143,13.4285714 L108.428571,13.3571429 Z M114.357143,11.5714286 L112.642857,6.35714286 C112.214286,5.14285714 112,4.07142857 111.714286,3.07142857 L111.642857,3.07142857 C111.357143,4.14285714 111.071429,5.21428571 110.714286,6.35714286 L108.928571,11.5714286 L114.357143,11.5714286 Z" id="Shape"></path>
                        <path d="M127.285714,19.2142857 L127.428571,1.07142857 L130,1.07142857 L135.714286,10.2857143 C137.071429,12.4285714 138.071429,14.3571429 138.928571,16.2142857 L139,16.2142857 C138.785714,13.7857143 138.785714,11.5714286 138.785714,8.71428571 L138.857143,1.14285714 L141.071429,1.14285714 L140.928571,19.2857143 L138.571429,19.2857143 L132.857143,10 C131.571429,8 130.428571,5.85714286 129.5,3.92857143 L129.428571,3.92857143 C129.571429,6.21428571 129.571429,8.42857143 129.571429,11.4285714 L129.5,19.2142857 L127.285714,19.2142857 Z" id="Shape"></path>
                    </g>
                    <path d="M81.8571429,7.57142857 C80.7857143,3.5 77.0714286,0.5 72.6428571,0.5 C68,0.5 64.1428571,3.85714286 63.2857143,8.21428571 C65.7142857,5.92857143 69.1428571,4.5 72.9285714,4.5 C76.3571429,4.5 79.4285714,5.64285714 81.8571429,7.57142857 Z" id="Shape" fill="#C4D82E"></path>
                    <path d="M72.9285714,17 C71.3571429,17 70.0714286,17.8571429 69.5714286,19 C70.5714286,19.3571429 71.5714286,19.5 72.6428571,19.5 C73.9285714,19.5 75.1428571,19.2142857 76.2142857,18.7857143 C75.6428571,17.7142857 74.3571429,17 72.9285714,17 Z" id="Shape" fill="#C4D82E"></path>
                    <path d="M72.9285714,12.0714286 C69.5714286,12.0714286 66.6428571,13.8571429 65.5,16.2857143 C66.0714286,16.9285714 66.6428571,17.4285714 67.3571429,17.9285714 C68.2857143,15.9285714 70.4285714,14.5714286 72.9285714,14.5714286 C75.2857143,14.5714286 77.3571429,15.8571429 78.3571429,17.6428571 C79,17.1428571 79.6428571,16.5714286 80.1428571,15.8571429 C78.8571429,13.5714286 76.0714286,12.0714286 72.9285714,12.0714286 Z" id="Shape" fill="#C4D82E"></path>
                    <path d="M72.9285714,6.92857143 C68.7857143,6.92857143 65.2142857,8.92857143 63.2857143,11.9285714 C63.4285714,12.6428571 63.6428571,13.2857143 63.9285714,13.9285714 C65.7857143,11.2857143 69.0714286,9.5 72.8571429,9.5 C76.3571429,9.5 79.5,11.0714286 81.4285714,13.4285714 C81.7142857,12.7142857 81.9285714,12 82,11.2142857 C80.0714286,8.64285714 76.7142857,6.92857143 72.9285714,6.92857143 Z" id="Shape" fill="#C4D82E"></path>
                </g>
            </g>
        </g>
    </g>
</svg>