<?xml version="1.0" encoding="utf-8"?>
<!-- Generator: Adobe Illustrator 23.0.1, SVG Export Plug-In . SVG Version: 6.00 Build 0)  -->
<svg version="1.1" id="Layer_1" xmlns="http://www.w3.org/2000/svg" xmlns:xlink="http://www.w3.org/1999/xlink" x="0px" y="0px"
	 viewBox="0 0 64 18" style="enable-background:new 0 0 64 18;" xml:space="preserve">
<style type="text/css">
	.st0{fill:#FF3838;}
</style>
<title>pich-text</title>
<desc>Created with Sketch.</desc>
<g>
	<path class="st0" d="M13,10.3c-0.4-0.3-1-0.5-1.9-0.7c-0.9-0.2-1.6-0.4-2.1-0.7c-1-0.5-1.5-1.2-1.5-2.2c0-0.8,0.3-1.5,1-2.1
		c0.7-0.6,1.6-0.8,2.7-0.8c1.1,0,2,0.3,2.8,0.9c0.7,0.6,1,1.3,1.1,2.2h-1.6c0-0.5-0.2-0.9-0.6-1.2c-0.4-0.3-0.9-0.5-1.5-0.5
		c-0.6,0-1.1,0.1-1.5,0.4C9.4,5.8,9.3,6.2,9.3,6.7c0,0.4,0.2,0.7,0.5,1c0.3,0.2,0.9,0.4,1.8,0.6c0.9,0.2,1.6,0.4,2.1,0.7
		c1,0.5,1.6,1.3,1.6,2.3c0,0.9-0.4,1.6-1.1,2.1c-0.7,0.5-1.6,0.8-2.8,0.8c-0.8,0-1.5-0.1-2.1-0.4c-0.6-0.3-1.1-0.7-1.5-1.2
		c-0.3-0.5-0.5-1-0.5-1.6h1.6c0,0.6,0.3,1,0.7,1.4c0.4,0.3,1,0.5,1.7,0.5c0.7,0,1.2-0.1,1.6-0.4c0.4-0.3,0.6-0.6,0.6-1.1
		C13.6,10.9,13.4,10.5,13,10.3z"/>
	<path class="st0" d="M23.2,12.3c0.5-0.4,0.7-0.8,0.8-1.4h1.5c0,0.5-0.2,1.1-0.6,1.6c-0.4,0.5-0.8,0.9-1.5,1.2
		c-0.6,0.3-1.2,0.5-1.9,0.5c-1.3,0-2.4-0.5-3.3-1.4c-0.8-1-1.2-2.2-1.2-3.8V8.8c0-1.5,0.4-2.7,1.2-3.6c0.8-0.9,1.9-1.4,3.3-1.4
		c1.1,0,2.1,0.3,2.8,1c0.7,0.7,1.1,1.5,1.2,2.6H24c-0.1-0.6-0.3-1.2-0.8-1.6c-0.5-0.4-1-0.6-1.7-0.6c-0.9,0-1.6,0.3-2.1,1
		c-0.5,0.6-0.7,1.6-0.7,2.8v0.3c0,1.2,0.2,2.1,0.7,2.7c0.5,0.6,1.2,1,2.1,1C22.2,12.9,22.8,12.7,23.2,12.3z"/>
	<path class="st0" d="M32.4,5.4c-0.2,0-0.5-0.1-0.9-0.1c-1.2,0-1.9,0.5-2.4,1.5V14h-1.6V4h1.6l0,1.3c0.6-1,1.4-1.5,2.5-1.5
		c0.3,0,0.5,0,0.7,0.1L32.4,5.4L32.4,5.4z"/>
	<path class="st0" d="M34.9,12.9c-0.9-0.9-1.3-2.1-1.3-3.6V9c0-1,0.2-1.9,0.6-2.7c0.4-0.8,0.9-1.4,1.6-1.8C36.5,4,37.2,3.8,38,3.8
		c1.3,0,2.3,0.4,3,1.3c0.7,0.9,1.1,2.1,1.1,3.7v0.7h-6.9c0,1,0.3,1.9,0.9,2.5c0.6,0.6,1.3,0.9,2.2,0.9c1.1,0,2-0.5,2.7-1.4l0.3,0.2
		l0.2,0.2l0.5,0.4c-0.8,1.3-2.1,1.9-3.7,1.9C36.9,14.2,35.8,13.8,34.9,12.9z M36.2,5.9c-0.5,0.5-0.8,1.2-0.9,2.2h5.2
		c-0.1-1-0.3-1.7-0.7-2.2c-0.4-0.5-1-0.8-1.8-0.8C37.3,5.1,36.7,5.4,36.2,5.9z"/>
	<path class="st0" d="M55.1,4h1.6l-2.9,10h-1.3L50,6.2L47.6,14h-1.3l-1.5-5l-1.5-5h1.6l2,7.7L49.4,4h1.3l2.4,7.9L55.1,4z"/>
</g>
</svg>
