<?xml version="1.0" encoding="utf-8"?>
<!-- Generator: Adobe Illustrator 23.0.1, SVG Export Plug-In . SVG Version: 6.00 Build 0)  -->
<svg version="1.1" id="Layer_1" xmlns="http://www.w3.org/2000/svg" xmlns:xlink="http://www.w3.org/1999/xlink" x="0px" y="0px"
	 viewBox="0 0 30 56" style="enable-background:new 0 0 30 56;" xml:space="preserve">
<style type="text/css">
	.st0{fill:#C5D82E;}
	.st1{fill:#1C2A44;}
</style>
<title>46DC62FC-CD9D-4ED7-8AAB-D0E877EED76F</title>
<desc>Created with sketchtool.</desc>
<g id="Page-1">
	<g id="web-design" transform="translate(-1048.000000, -1099.000000)">
		<g id="Group-2" transform="translate(177.000000, 1065.000000)">
			<g id="pin-2-1" transform="translate(871.000000, 34.000000)">
				<path id="Shape" class="st0" d="M24.7,5.3c2.6,2.6,4,6.1,4,9.7c0,7.6-6.1,13.7-13.6,13.7H15C7.4,28.7,1.3,22.5,1.3,15
					c0-5.5,3.3-10.6,8.5-12.7C14.9,0.2,20.8,1.3,24.7,5.3z"/>
				<g id="Group">
					<path class="st1" d="M29.9,15c0-8.1-6.4-14.7-14.5-15S0.5,6,0,14.1c-0.4,8.1,5.6,15.1,13.7,15.7v24c0,0.7,0.6,1.2,1.2,1.2
						s1.2-0.6,1.2-1.2v-24c3.5-0.3,6.9-1.8,9.4-4.3C28.4,22.7,30,18.9,29.9,15z M15.1,27.4L15.1,27.4c-6,0-11-4.2-12.2-10
						c-1.1-5.8,2-11.6,7.5-13.8c5.5-2.2,11.7-0.3,15,4.6c3.3,4.9,2.6,11.4-1.5,15.6C21.5,26.1,18.4,27.4,15.1,27.4z"/>
					<path class="st1" d="M10.4,8.3C9.8,7.9,9,8,8.6,8.5c-2.3,2.9-2.9,7-1.6,10.6c0.2,0.6,0.9,1,1.6,0.8c0.6-0.2,1-0.9,0.8-1.6
						c-1-2.8-0.5-5.9,1.2-8.2C11,9.5,10.9,8.7,10.4,8.3z"/>
				</g>
			</g>
		</g>
	</g>
</g>
</svg>
