<?xml version="1.0" encoding="UTF-8"?>
<svg width="30px" height="56px" viewBox="0 0 30 56" version="1.1" xmlns="http://www.w3.org/2000/svg" xmlns:xlink="http://www.w3.org/1999/xlink">
    <!-- Generator: sketchtool 50.2 (55047) - http://www.bohemiancoding.com/sketch -->
    <title>4CBFE076-E8D1-4591-83E7-E0C28A9D88B4</title>
    <desc>Created with sketchtool.</desc>
    <defs></defs>
    <g id="Page-1" stroke="none" stroke-width="1" fill="none" fill-rule="evenodd">
        <g id="web-design" transform="translate(-1048.000000, -1222.000000)" fill="#9B9B9B" fill-rule="nonzero">
            <g id="Group-2" transform="translate(177.000000, 1065.000000)">
                <g id="pin-1" transform="translate(871.000000, 157.000000)">
                    <path d="M29.9450532,14.9596408 C29.9450532,6.85960195 23.4982819,0.230971245 15.4011605,0.00583506224 C7.30403913,-0.21930112 0.498897759,6.04123444 0.0491117427,14.1291169 C-0.400674274,22.2165132 5.6687629,29.1933026 13.740599,29.8672524 L13.740599,53.8279629 C13.740599,54.5155277 14.2978475,55.0727762 14.9854123,55.0727762 C15.6729772,55.0727762 16.2302256,54.5155277 16.2302256,53.8279629 L16.2302256,29.8760049 C19.7419606,29.6168309 23.0436334,28.1065222 25.5366636,25.6193271 C28.3768802,22.8019644 29.9654759,18.9605485 29.9450532,14.9596408 Z M15.0802321,27.4301414 C15.051543,27.4301414 15.0223678,27.4301414 14.9941649,27.4301414 L14.9854123,27.4301414 C9.08276066,27.3858921 4.03300058,23.1797848 2.92190739,17.3826504 C1.81081432,11.585516 4.94813278,5.8102632 10.4160723,3.58661826 C15.8840119,1.36345954 22.1610802,3.31091154 25.4107235,8.23813544 C28.6608533,13.1658454 27.9786372,19.7025739 23.7817687,23.8532482 C21.4725428,26.1556666 18.3410594,27.4427839 15.0802321,27.4301414 Z" id="Shape"></path>
                    <path d="M10.3548042,8.27265946 C9.8097122,7.85350755 9.02830008,7.95562108 8.60914805,8.50071311 C6.34708892,11.4415845 5.72857232,15.4867414 6.99526705,19.0563408 C7.2247795,19.704519 7.9366571,20.0434388 8.58434913,19.8134401 C9.23252726,19.5834413 9.5714471,18.8720501 9.34144842,18.223872 C8.35435033,15.4410335 8.82990797,12.2969074 10.5828579,10.0183156 C11.0015236,9.47322349 10.89941,8.69181149 10.3548042,8.27265946 Z" id="Shape"></path>
                </g>
            </g>
        </g>
    </g>
</svg>