<?xml version="1.0" encoding="utf-8"?>
<!-- Generator: Adobe Illustrator 23.0.1, SVG Export Plug-In . SVG Version: 6.00 Build 0)  -->
<svg version="1.1" id="Layer_1" xmlns="http://www.w3.org/2000/svg" xmlns:xlink="http://www.w3.org/1999/xlink" x="0px" y="0px"
	 viewBox="0 0 30 44" style="enable-background:new 0 0 30 44;" xml:space="preserve">
<style type="text/css">
	.st0{fill:#C5D82E;}
	.st1{fill:#3A5A7D;}
</style>
<title>placeholder (1) copy</title>
<desc>Created with Sketch.</desc>
<g id="Page-1">
	<g id="web-design-copy" transform="translate(-1107.000000, -522.000000)">
		<g transform="translate(1107.000000, 522.000000)">
			<path id="Shape" class="st0" d="M15,43.6c5.7,0,14.3-17.9,14.3-25.8S22.9,3.5,15,3.5S0.7,9.9,0.7,17.8S9.3,43.6,15,43.6z M15,9.2
				c4.7,0,8.6,3.8,8.6,8.6s-3.8,8.6-8.6,8.6s-8.6-3.8-8.6-8.6C6.4,13.1,10.3,9.2,15,9.2z"/>
			<g id="Group">
				<path class="st1" d="M15,24.2c5.1,0,9.2-4.1,9.2-9.2S20.1,5.7,15,5.7S5.8,9.9,5.8,15S9.9,24.2,15,24.2z M15,7
					C19.4,7,23,10.6,23,15s-3.6,7.9-7.9,7.9S7.1,19.4,7.1,15S10.6,7,15,7z"/>
				<path class="st1" d="M15,41.4c6.3,0,15-18.4,15-26.4c0-8.3-6.7-15-15-15S0,6.7,0,15C0,23.1,8.7,41.4,15,41.4z M15,1.3
					c7.5,0,13.7,6.1,13.7,13.7c0,8-8.6,25.1-13.7,25.1S1.3,23,1.3,15C1.3,7.4,7.5,1.3,15,1.3z"/>
				<path class="st1" d="M15,37.3c-1.9,0-5.8-6.5-8-11.1c-0.2-0.3-0.5-0.5-0.9-0.3c-0.3,0.2-0.5,0.5-0.3,0.9
					c0.9,2,5.7,11.8,9.2,11.8c0.4,0,0.7-0.3,0.7-0.7S15.4,37.3,15,37.3z"/>
				<path class="st1" d="M15,4.2C21,4.2,25.8,9,25.8,15c0,0.4,0.3,0.7,0.7,0.7c0.4,0,0.7-0.3,0.7-0.7c0-6.7-5.4-12.1-12.1-12.1
					c-0.4,0-0.7,0.3-0.7,0.7S14.7,4.2,15,4.2z"/>
			</g>
		</g>
	</g>
</g>
</svg>
