<?xml version="1.0" standalone="no"?>
<!DOCTYPE svg PUBLIC "-//W3C//DTD SVG 20010904//EN"
 "http://www.w3.org/TR/2001/REC-SVG-20010904/DTD/svg10.dtd">
<svg version="1.0" xmlns="http://www.w3.org/2000/svg"
 width="700.000000pt" height="700.000000pt" viewBox="0 0 700.000000 700.000000"
 preserveAspectRatio="xMidYMid meet">
<metadata>
Created by potrace 1.11, written by Peter Selinger 2001-2013
</metadata>
<g transform="translate(0.000000,700.000000) scale(0.100000,-0.100000)"
fill="#000000" stroke="none">
<path d="M3297 6864 c-1 -1 -146 -5 -322 -8 -327 -7 -378 -9 -545 -20 -158
-11 -324 -28 -404 -41 -169 -29 -264 -51 -385 -92 -357 -119 -634 -302 -875
-579 -126 -144 -253 -339 -328 -504 -16 -36 -36 -78 -43 -95 -73 -159 -168
-469 -191 -620 -49 -330 -63 -636 -64 -1385 0 -532 8 -881 25 -1035 2 -22 7
-71 10 -110 18 -222 44 -351 115 -565 58 -177 68 -202 150 -365 102 -201 208
-354 328 -472 159 -157 358 -258 592 -302 19 -3 103 -6 185 -5 145 0 241 13
322 45 15 6 35 12 44 14 9 2 37 13 62 24 25 12 49 21 52 21 15 0 211 103 294
155 95 59 229 155 289 208 153 135 277 260 357 362 22 27 45 55 50 61 6 6 19
23 30 38 11 16 25 33 31 40 5 6 44 63 86 126 173 261 309 545 397 830 32 106
35 129 17 149 -15 16 -29 18 -124 13 -280 -14 -655 -3 -778 23 -11 2 -45 7
-75 11 -30 3 -57 8 -60 10 -3 2 -38 10 -78 18 -290 60 -600 207 -836 394 -154
122 -383 382 -459 522 -111 203 -170 380 -200 605 -13 102 -14 330 -1 420 73
519 361 929 810 1155 140 71 314 125 466 145 24 3 60 8 79 10 44 6 288 7 315
1 11 -2 47 -7 80 -11 241 -27 502 -132 716 -287 104 -75 308 -265 373 -348
123 -155 244 -366 311 -539 34 -89 100 -312 110 -376 3 -16 10 -52 15 -80 12
-65 25 -172 35 -290 11 -125 2 -655 -11 -676 -2 -4 5 -14 16 -24 25 -23 73
-17 201 25 309 103 614 257 865 436 285 204 533 455 715 725 32 48 59 91 59
95 0 4 6 15 14 23 23 27 127 239 151 311 1 3 6 16 12 30 19 46 52 165 67 241
19 98 15 329 -8 422 -55 225 -173 429 -330 574 -117 108 -324 236 -511 318
-22 9 -49 21 -60 26 -32 14 -255 86 -305 98 -71 17 -249 49 -315 56 -33 4 -76
8 -95 10 -40 5 -204 16 -300 21 -166 8 -1136 24 -1143 18z"/>
<path d="M2259 5490 c-189 -42 -337 -120 -467 -248 -189 -187 -282 -422 -276
-702 2 -132 6 -159 40 -290 64 -247 244 -487 499 -665 216 -150 507 -245 840
-272 156 -12 547 -6 720 12 57 6 85 41 86 108 0 29 2 60 4 70 13 67 19 474 10
602 -8 103 -28 246 -46 325 -6 25 -12 52 -14 60 -11 52 -64 199 -101 279 -73
156 -162 281 -288 406 -149 146 -302 241 -467 289 -122 35 -138 37 -304 42
-122 3 -166 0 -236 -16z m367 -554 c184 -49 308 -199 321 -391 9 -128 -35
-243 -129 -336 -166 -164 -436 -162 -603 5 -114 114 -155 286 -105 436 74 221
298 344 516 286z"/>
<path d="M6655 4048 c-11 -6 -90 -81 -175 -167 -469 -473 -995 -751 -1810
-958 -221 -56 -342 -85 -400 -97 -51 -10 -100 -62 -100 -106 0 -24 -101 -426
-120 -478 -11 -28 -20 -55 -20 -60 0 -15 -64 -201 -107 -312 -44 -111 -104
-247 -142 -320 -126 -240 -222 -395 -341 -551 -111 -145 -89 -118 -205 -246
-69 -76 -221 -221 -292 -280 -126 -104 -135 -117 -135 -186 1 -47 34 -102 75
-125 29 -16 83 -17 637 -17 537 0 864 7 940 19 14 3 59 7 100 10 121 10 209
22 315 42 150 29 404 116 583 200 40 19 74 34 76 34 11 0 248 137 301 174 268
184 491 414 639 660 198 327 319 699 351 1081 12 142 14 173 20 295 12 261 14
378 15 823 1 432 0 461 -18 495 -33 65 -131 101 -187 70z"/>
</g>
</svg>
