<?xml version="1.0" encoding="UTF-8"?>
<svg width="69px" height="69px" viewBox="0 0 69 69" version="1.1" xmlns="http://www.w3.org/2000/svg" xmlns:xlink="http://www.w3.org/1999/xlink">
    <!-- Generator: Sketch 50.2 (55047) - http://www.bohemiancoding.com/sketch -->
    <title>satellite</title>
    <desc>Created with Sketch.</desc>
    <defs></defs>
    <g id="Page-1" stroke="none" stroke-width="1" fill="none" fill-rule="evenodd">
        <g id="Artboard" transform="translate(-545.000000, -23.000000)" fill-rule="nonzero">
            <g id="ciry-animation" transform="translate(20.000000, 7.000000)">
                <g id="satellite" transform="translate(525.000000, 16.000000)">
                    <g id="Group" transform="translate(21.000000, 21.000000)" fill="#ACACAC">
                        <g transform="translate(5.692408, 0.000000)" id="Shape">
                            <polygon transform="translate(2.292691, 2.299079) rotate(-45.000000) translate(-2.292691, -2.299079) " points="1.29991291 0.150320864 3.28546896 0.150320864 3.28546896 4.44783662 1.29991291 4.44783662"></polygon>
                            <polygon transform="translate(18.608903, 18.618720) rotate(-45.000000) translate(-18.608903, -18.618720) " points="17.6161248 16.4699625 19.6016809 16.4699625 19.6016809 20.7674783 17.6161248 20.7674783"></polygon>
                        </g>
                        <g transform="translate(0.000000, 5.692408)" id="Shape">
                            <polygon transform="translate(2.296312, 2.294336) rotate(-45.000000) translate(-2.296312, -2.294336) " points="1.30353401 0.14551218 3.28909006 0.14551218 3.28909006 4.4431603 1.30353401 4.4431603"></polygon>
                            <polygon transform="translate(18.612345, 18.613986) rotate(-45.000000) translate(-18.612345, -18.613986) " points="17.6195667 16.465228 19.6051228 16.465228 19.6051228 20.7627438 17.6195667 20.7627438"></polygon>
                        </g>
                    </g>
                    <polygon id="Shape" fill="#5A5A5A" transform="translate(46.000000, 22.500000) rotate(-45.000000) translate(-46.000000, -22.500000) " points="44 15 48 15 48 30 44 30"></polygon>
                    <path d="M20,44.5670742 C20.7143851,44.9521922 21.3769206,45.4434233 21.9668669,46.0335582 C22.5632627,46.6300169 23.0517863,47.2937605 23.4339551,48 L26,45.4336847 L22.5666772,42 L20,44.5670742 Z" id="Shape" fill="#5A5A5A"></path>
                    <path d="M28.0916159,47.8269195 L20.1730805,39.9083841 C18.6089732,38.3442768 18.6089732,35.8083267 20.1730805,34.2442194 L35.8307095,18.5865903 C36.61283,17.8044699 37.8806715,17.8044699 38.6627919,18.5865903 L49.4134097,29.3372081 C50.1955301,30.1193285 50.1955301,31.38717 49.4134097,32.1692905 L33.7557806,47.8269195 C32.1916733,49.3910268 29.6557232,49.3910268 28.0916159,47.8269195 Z" id="Shape" fill="#FED402"></path>
                    <path d="M32.050061,47.8274827 L23.3337158,38.9648018 C22.3081707,37.9220393 22.3081707,36.2311884 23.3337158,35.1884258 L39,19.2591258 L38.3385825,18.586604 C37.5693581,17.8044653 36.3224213,17.8044653 35.5531969,18.586604 L20.1537382,34.2444653 C18.6154206,35.8086092 18.6154206,38.3446185 20.1537382,39.9087623 L27.9417091,47.8274827 C29.2549583,49.1627796 31.2641599,49.3571794 32.781205,48.4126848 C32.5212077,48.2507295 32.2752607,48.0563297 32.050061,47.8274827 Z" id="Shape" fill="#FAC600"></path>
                    <circle id="Oval" fill="#FFFFFF" cx="36" cy="33" r="4"></circle>
                    <path d="M36.3853949,35.8289384 C34.6434195,34.2664902 34.6434195,31.7333754 36.3853949,30.1710616 C36.8581632,29.7470165 37.4109501,29.4390966 38,29.2451514 C36.4189607,28.7247386 34.5756885,29.0326585 33.3064815,30.1710616 C31.5645062,31.7335098 31.5645062,34.2666246 33.3064815,35.8289384 C34.5755387,36.9673415 36.4189607,37.2752614 38,36.7548486 C37.4109501,36.5609034 36.8581632,36.2529835 36.3853949,35.8289384 Z" id="Shape" fill="#EAF6FF"></path>
                    <path d="M36,37 C34.7196447,37 33.4392895,36.5124602 32.4644323,35.5376491 C31.5200311,34.5930325 31,33.3370774 31,32.0011407 C31,30.6652039 31.5200311,29.4093831 32.4644323,28.4647664 C33.4088336,27.520284 34.6643679,27 36,27 C37.3356321,27 38.5911664,27.520284 39.5355677,28.4649006 C40.4798347,29.4093831 41,30.6652039 41,32.0011407 C41,33.3370774 40.4798347,34.5928983 39.5355677,35.5376491 C38.5605764,36.5125944 37.2802211,37 36,37 Z M36,29.0130977 C35.2021091,29.0130977 34.4518475,29.3238992 33.8875413,29.8882 C33.323235,30.452635 33.0126385,31.2030678 33.0126385,32.0011407 C33.0126385,32.7993478 33.3233692,33.5497806 33.8875413,34.1142155 C35.0525129,35.2791846 36.9476212,35.2793188 38.1123246,34.1140814 C38.6766308,33.5497806 38.9873615,32.7993478 38.9873615,32.0011407 C38.9873615,31.2030678 38.6766308,30.452635 38.1124587,29.8883342 C37.5481525,29.3238992 36.7978909,29.0130977 36,29.0130977 Z" id="Shape" fill="#FAC600"></path>
                    <g id="Group">
                        <g transform="translate(37.322424, 37.322424)" id="Shape">
                            <path d="M18.0679465,30.0739527 L1.26721712,13.2733576 C1.00502038,13.0111608 1.00502038,12.5862491 1.26721712,12.3240523 L12.3275429,1.26372653 C12.5897397,1.00166405 13.0146514,1.00166405 13.2768482,1.26372653 L30.0774433,18.0643217 C30.3396401,18.3265184 30.3396401,18.7514302 30.0774433,19.0136269 L19.0171175,30.0739527 C18.755055,30.3360152 18.330009,30.3360152 18.0679465,30.0739527 Z" fill="#D8ECFE"></path>
                            <path d="M5.43242648,13.2733576 C5.17036399,13.0111608 5.17036399,12.5862491 5.43242648,12.3240523 L14.8848002,2.87167859 L13.2768482,1.26372653 C13.0146514,1.00152979 12.5897397,1.00152979 12.3275429,1.26372653 L1.26721712,12.3240523 C1.00502038,12.5862491 1.00502038,13.0111608 1.26721712,13.2733576 L18.0678123,30.0739527 C18.330009,30.3360152 18.7549208,30.3360152 19.0171175,30.0739527 L20.6250696,28.4660007 L5.43242648,13.2733576 Z" fill="#C4E2FF"></path>
                            <path d="M30.7895229,17.3522421 L13.989062,0.551915413 C13.67209,0.234809063 13.2506688,0.0601454889 12.8022627,0.0601454889 C12.3538566,0.0601454889 11.9324354,0.234809063 11.6155975,0.551646906 L6.08610591,6.08113854 C6.0858374,6.08140705 6.08570315,6.0815413 6.08543464,6.0818098 C6.08516614,6.08207831 6.08503188,6.08221256 6.08476338,6.08248107 L0.555137492,11.6119727 C-0.0990789527,12.2663234 -0.0990789527,13.3309523 0.555137492,13.985303 L17.3558669,30.7860324 C17.6831765,31.1132077 18.1127871,31.276594 18.542532,31.276594 C18.9722769,31.276594 19.4018875,31.1130735 19.7291971,30.7860324 L25.2580175,25.2570777 C25.2584203,25.256675 25.2589573,25.2562722 25.25936,25.2558695 C25.2597628,25.2554667 25.2601656,25.2549297 25.2605683,25.2545269 L30.7891202,19.7258408 C31.1062265,19.4088687 31.2808901,18.9874475 31.2808901,18.5390414 C31.2808901,18.0906353 31.1063608,17.6690799 30.7895229,17.3522421 Z M24.7359063,14.1466755 L20.1551829,18.7273988 L17.0964895,15.6687054 L21.6772129,11.087982 L24.7359063,14.1466755 Z M20.2531879,9.66395698 L15.6724645,14.2446804 L12.613771,11.1859869 L17.1944944,6.60526351 L20.2531879,9.66395698 Z M12.8022627,2.21303178 L15.7703351,5.18110426 L11.1896117,9.76182765 L8.22140502,6.79362093 L12.8022627,2.21303178 Z M2.21665662,12.7986378 L6.79751427,8.21791443 L9.765721,11.1861212 L5.18486335,15.7669788 L2.21665662,12.7986378 Z M6.60888835,17.1908696 L11.189746,12.6100119 L14.2484395,15.6687054 L9.66758182,20.249563 L6.60888835,17.1908696 Z M11.0916068,21.673588 L15.6724645,17.0927304 L18.7311579,20.1514238 L14.1503003,24.7322815 L11.0916068,21.673588 Z M18.542532,29.1246475 L15.5743253,26.1564408 L20.1551829,21.5755831 L23.1233897,24.5437898 L18.542532,29.1246475 Z M24.5474147,23.1196306 L21.5792079,20.1514238 L26.1599313,15.5707005 L29.1280038,18.5387729 L24.5474147,23.1196306 Z" fill="#B3DAFE"></path>
                        </g>
                        <g id="Shape">
                            <path d="M18.0076668,30.0138072 L1.20707163,13.2130778 C0.94487489,12.9508811 0.94487489,12.5259693 1.20707163,12.2637726 L12.2675317,1.20344679 C12.5297284,0.941250051 12.9546402,0.941250051 13.2168369,1.20344679 L30.0174321,18.0040419 C30.2796288,18.2662387 30.2796288,18.6911504 30.0174321,18.9533472 L18.9571063,30.013673 C18.6949095,30.2758697 18.2698635,30.2758697 18.0076668,30.0138072 Z" fill="#D8ECFE"></path>
                            <path d="M5.43242648,13.2130778 C5.17036399,12.9510154 5.17036399,12.5259693 5.43242648,12.2637726 L14.8547275,2.84147159 L13.2167027,1.20344679 C12.9545059,0.941250051 12.5295942,0.941250051 12.2673974,1.20344679 L1.20707163,12.2639068 C0.94487489,12.5261036 0.94487489,12.9510154 1.20707163,13.2132121 L18.0076668,30.013673 C18.2697293,30.2758697 18.6947753,30.2758697 18.956972,30.013673 L20.5949968,28.3756482 L5.43242648,13.2130778 Z" fill="#C4E2FF"></path>
                            <path d="M30.7293775,17.2920966 L13.9287823,0.49163567 C13.6118102,0.174663574 13.190389,-7.99360578e-15 12.7421172,-7.99360578e-15 C12.2938453,-7.99360578e-15 11.8724242,0.174663574 11.5555863,0.491501417 L6.02596042,6.02099305 C6.02569192,6.02126156 6.02555766,6.02139581 6.02528916,6.02166432 C6.02502065,6.02193282 6.0248864,6.02206708 6.02461789,6.02233558 L0.495126257,11.5518272 C0.17815416,11.8686651 0.00349058641,12.2902205 0.00349058641,12.7384923 C0.00349058641,13.1867642 0.178019907,13.6083196 0.494992004,13.9251575 L17.2955872,30.7258869 C17.6227625,31.0530622 18.0523731,31.2164485 18.482118,31.2164485 C18.9118629,31.2164485 19.3416078,31.0527937 19.6687832,30.7258869 L30.7291089,19.6654268 C31.046081,19.348589 31.2207446,18.9270335 31.2207446,18.4787617 C31.2207446,18.0304898 31.0462153,17.6089344 30.7293775,17.2920966 Z M24.6757608,14.08653 L20.0949032,18.6673876 L17.0362097,15.6086941 L21.6169331,11.0278365 L24.6757608,14.08653 Z M20.1930424,9.60381149 L15.612319,14.1846691 L12.5534913,11.1258414 L17.1342147,6.54511802 L20.1930424,9.60381149 Z M12.7421172,2.15288629 L15.7101897,5.12095877 L11.1294663,9.70168216 L8.16139379,6.73360969 L12.7421172,2.15288629 Z M2.15637688,12.7384923 L6.73723453,8.15763469 L9.70544126,11.1258414 L5.12458361,15.7066991 L2.15637688,12.7384923 Z M6.54860861,17.1307241 L11.1294663,12.5498664 L14.188294,15.6086941 L9.60743633,20.1895518 L6.54860861,17.1307241 Z M11.0314613,21.6134425 L15.612319,17.0325849 L18.6710125,20.0912784 L14.0901548,24.672136 L11.0314613,21.6134425 Z M18.4822523,29.0643677 L15.5140455,26.096161 L20.0949032,21.5153034 L23.0631099,24.4835101 L18.4822523,29.0643677 Z M24.4871349,23.0594851 L21.5189282,20.0912784 L26.0997858,15.5104207 L29.0679926,18.4786274 L24.4871349,23.0594851 Z" fill="#B3DAFE"></path>
                        </g>
                    </g>
                    <g id="Group" transform="translate(0.000000, 59.000000)">
                        <path d="M8.88042857,10 C3.98371429,10 0,6.01614286 0,1.11957143 C0,0.527714286 0.479714286,0.0481428571 1.07142857,0.0481428571 C1.66314286,0.0481428571 2.14285714,0.527714286 2.14285714,1.11957143 C2.14285714,4.83471429 5.16528571,7.85714286 8.88042857,7.85714286 C9.47214286,7.85714286 9.95185714,8.33671429 9.95185714,8.92857143 C9.95185714,9.52042857 9.47214286,10 8.88042857,10 Z" id="Shape" fill="#00F2A6"></path>
                        <path d="M8.88042857,5.82314286 C6.287,5.82314286 4.177,3.71314286 4.177,1.11957143 C4.177,0.527714286 4.65671429,0.0481428571 5.24842857,0.0481428571 C5.84014286,0.0481428571 6.31985714,0.527714286 6.31985714,1.11957143 C6.31985714,2.53157143 7.46857143,3.68028571 8.88042857,3.68028571 C9.47214286,3.68028571 9.95185714,4.15985714 9.95185714,4.75171429 C9.95185714,5.34357143 9.47214286,5.82314286 8.88042857,5.82314286 Z" id="Shape" fill="#00C285"></path>
                    </g>
                    <path d="M14.5880505,52 L11,55.5873443 C11.3193727,55.7058088 11.6130518,55.8902939 11.8610682,56.1382707 C12.1132116,56.3903738 12.2949305,56.6857363 12.4111508,57 L16,53.4118571 L14.5880505,52 Z" id="Shape" fill="#5A5A5A"></path>
                    <path d="M22.3629323,46.6370502 C19.0605867,43.3347265 13.8311514,43.1340005 10.2946461,46.0347387 C9.92076298,46.3414887 9.90158266,46.90837 10.2434986,47.2504169 L21.7495615,58.7564034 C22.0916107,59.0984502 22.6584958,59.07927 22.9652477,58.7052562 C25.8660053,55.1687744 25.6652779,49.9393738 22.3629323,46.6370502 Z" id="Shape" fill="#ACACAC"></path>
                    <path d="M14.3624384,47.2498608 C14.0226021,46.9077978 14.0416584,46.3408897 14.4132551,46.0341252 C15.4913884,45.1440687 16.728059,44.5473232 18.018987,44.2412248 C15.3744042,43.6135765 12.5014112,44.2105883 10.29274,46.0341252 C9.92127559,46.3408897 9.90221934,46.9077978 10.2419233,47.2498608 L21.6735506,58.7563919 C22.0133869,59.0984549 22.5766047,59.0792738 22.8813722,58.7052423 C23.3285322,58.1565828 23.7011876,57.5670302 24,56.9503045 L14.3624384,47.2498608 Z" id="Shape" fill="#9C9C9C"></path>
                    <circle id="Oval" fill="#FE646F" cx="10.5" cy="58.5" r="2.5"></circle>
                    <path d="M11.2406154,60.2690414 C10.151822,59.292023 10.151822,57.708035 11.2406154,56.7310166 C11.4679909,56.5269833 11.7258592,56.3680715 12,56.2492822 C10.9617834,55.7991197 9.67801285,55.9580315 8.81659505,56.7310166 C7.72780165,57.708035 7.72780165,59.292023 8.81659505,60.2690414 C9.67801285,61.0420264 10.9617834,61.2008067 12,60.7507758 C11.7258592,60.6319865 11.4679909,60.4732062 11.2406154,60.2690414 Z" id="Shape" fill="#FD4755"></path>
                    <path d="M30.0691128,42.4988342 L25.5011658,37.9308872 C24.8329447,37.2626661 24.8329447,36.1692507 25.5011658,35.5011658 C26.1693868,34.8329447 27.2628023,34.8329447 27.9308872,35.5011658 L32.4988342,40.0691128 C33.1670553,40.7373339 33.1670553,41.8307493 32.4988342,42.4988342 C31.8307493,43.1670553 30.7373339,43.1670553 30.0691128,42.4988342 Z" id="Shape" fill="#FFFFFF"></path>
                    <path d="M27.9548802,38.1036373 L28.1093855,37.949318 C28.6184228,37.4408933 29.3778284,37.3281626 30,37.6075154 L27.8821797,35.4922439 C27.2250636,34.8359187 26.1498193,34.8359187 25.4928371,35.4922439 C24.835721,36.1485691 24.835721,37.2225194 25.4928371,37.8787109 L27.6166823,40 C27.332173,39.3772399 27.4437006,38.6143354 27.9548802,38.1036373 Z" id="Shape" fill="#EAF6FF"></path>
                    <g id="Group" transform="translate(38.000000, 23.000000)" fill="#FFFFFF">
                        <circle id="Oval" cx="1.1495098" cy="1.14745098" r="1.02941176"></circle>
                        <circle id="Oval" cx="3.50096078" cy="3.49903922" r="1.02941176"></circle>
                        <circle id="Oval" cx="5.85254902" cy="5.8504902" r="1.02941176"></circle>
                    </g>
                    <path d="M53.5395033,28.7975363 L40.2025662,15.4605178 C39.9324779,15.190428 39.9324779,14.7527247 40.2025662,14.4826348 L42.4826197,12.2025674 C42.7527079,11.9324775 43.1904085,11.9324775 43.4604967,12.2025674 L56.7974338,25.5395859 C57.0675221,25.8096758 57.0675221,26.247379 56.7974338,26.5174689 L54.5173803,28.7975363 C54.2472921,29.0674879 53.8095915,29.0674879 53.5395033,28.7975363 Z" id="Shape" fill="#ACACAC"></path>
                </g>
            </g>
        </g>
    </g>
</svg>