<?xml version="1.0" encoding="utf-8"?>
<!-- Generator: Adobe Illustrator 23.0.1, SVG Export Plug-In . SVG Version: 6.00 Build 0)  -->
<svg version="1.1" id="Layer_1" xmlns="http://www.w3.org/2000/svg" xmlns:xlink="http://www.w3.org/1999/xlink" x="0px" y="0px"
	 viewBox="0 0 71 15" style="enable-background:new 0 0 71 15;" xml:space="preserve">
<style type="text/css">
	.st0{fill:#FF3838;}
</style>
<title>shetab-text</title>
<desc>Created with Sketch.</desc>
<g>
	<path class="st0" d="M5.1,12.3L5,11.5h0c-0.4,0.5-1.1,1-2.1,1c-1.4,0-2.1-1-2.1-1.9c0-1.6,1.4-2.5,4-2.5V7.9c0-0.6-0.2-1.6-1.5-1.6
		c-0.6,0-1.3,0.2-1.7,0.5L1.3,6.1c0.6-0.4,1.4-0.6,2.2-0.6c2.1,0,2.5,1.4,2.5,2.7v2.5c0,0.6,0,1.1,0.1,1.6H5.1z M4.9,8.9
		c-1.3,0-2.8,0.2-2.8,1.5c0,0.8,0.5,1.2,1.2,1.2c0.9,0,1.4-0.6,1.6-1.1c0-0.1,0.1-0.3,0.1-0.4V8.9z"/>
	<path class="st0" d="M12.8,12.1c-0.3,0.2-1,0.4-1.9,0.4c-2,0-3.3-1.4-3.3-3.4C7.6,7,9,5.5,11.2,5.5c0.7,0,1.4,0.2,1.7,0.3l-0.3,0.9
		c-0.3-0.2-0.7-0.3-1.4-0.3C9.6,6.5,8.8,7.6,8.8,9c0,1.6,1,2.5,2.3,2.5c0.7,0,1.2-0.2,1.5-0.3L12.8,12.1z"/>
	<path class="st0" d="M19,12.1c-0.3,0.2-1,0.4-1.9,0.4c-2,0-3.3-1.4-3.3-3.4c0-2.1,1.4-3.6,3.6-3.6c0.7,0,1.4,0.2,1.7,0.3l-0.3,0.9
		c-0.3-0.2-0.7-0.3-1.4-0.3c-1.5,0-2.4,1.1-2.4,2.5c0,1.6,1,2.5,2.3,2.5c0.7,0,1.2-0.2,1.5-0.3L19,12.1z"/>
	<path class="st0" d="M21,9.2c0,1.6,1.1,2.3,2.3,2.3c0.9,0,1.4-0.2,1.9-0.3l0.2,0.9c-0.4,0.2-1.2,0.4-2.2,0.4
		c-2.1,0-3.3-1.4-3.3-3.4S21,5.5,23,5.5c2.2,0,2.8,1.9,2.8,3.2c0,0.2,0,0.4,0,0.6H21z M24.6,8.3c0-0.8-0.3-2-1.7-2
		c-1.2,0-1.8,1.1-1.9,2H24.6z"/>
	<path class="st0" d="M27.2,2.5h1.2v9.8h-1.2V2.5z"/>
	<path class="st0" d="M31.2,9.2c0,1.6,1.1,2.3,2.3,2.3c0.9,0,1.4-0.2,1.9-0.3l0.2,0.9c-0.4,0.2-1.2,0.4-2.2,0.4
		c-2.1,0-3.3-1.4-3.3-3.4s1.2-3.6,3.1-3.6c2.2,0,2.8,1.9,2.8,3.2c0,0.2,0,0.4,0,0.6H31.2z M34.8,8.3c0-0.8-0.3-2-1.7-2
		c-1.2,0-1.8,1.1-1.9,2H34.8z"/>
	<path class="st0" d="M37.5,7.7c0-0.8,0-1.5-0.1-2.1h1.1l0,1.3h0.1c0.3-0.9,1-1.5,1.9-1.5c0.1,0,0.2,0,0.3,0v1.2c-0.1,0-0.2,0-0.4,0
		c-0.9,0-1.5,0.7-1.6,1.6c0,0.2-0.1,0.4-0.1,0.6v3.6h-1.2V7.7z"/>
	<path class="st0" d="M45.6,12.3l-0.1-0.8h0c-0.4,0.5-1.1,1-2.1,1c-1.4,0-2-1-2-1.9c0-1.6,1.4-2.5,4-2.5V7.9c0-0.6-0.2-1.6-1.5-1.6
		c-0.6,0-1.3,0.2-1.7,0.5l-0.3-0.8c0.6-0.4,1.4-0.6,2.2-0.6c2.1,0,2.5,1.4,2.5,2.7v2.5c0,0.6,0,1.1,0.1,1.6H45.6z M45.5,8.9
		c-1.3,0-2.8,0.2-2.8,1.5c0,0.8,0.5,1.2,1.1,1.2c0.9,0,1.4-0.6,1.6-1.1c0-0.1,0.1-0.3,0.1-0.4V8.9z"/>
	<path class="st0" d="M50,3.7v1.9h1.7v0.9H50v3.6c0,0.8,0.2,1.3,0.9,1.3c0.3,0,0.6,0,0.7-0.1l0.1,0.9c-0.2,0.1-0.6,0.2-1.1,0.2
		c-0.6,0-1-0.2-1.3-0.5c-0.3-0.4-0.5-1-0.5-1.7V6.6h-1V5.6h1V4L50,3.7z"/>
	<path class="st0" d="M54.5,3.8c0,0.4-0.3,0.7-0.8,0.7c-0.4,0-0.7-0.3-0.7-0.7C53,3.3,53.3,3,53.8,3C54.2,3,54.5,3.3,54.5,3.8z
		 M53.1,12.3V5.6h1.2v6.7H53.1z"/>
	<path class="st0" d="M62.5,8.9c0,2.5-1.7,3.6-3.3,3.6c-1.8,0-3.2-1.3-3.2-3.4c0-2.2,1.5-3.6,3.3-3.6C61.2,5.5,62.5,6.9,62.5,8.9z
		 M57.1,9c0,1.5,0.8,2.6,2,2.6c1.2,0,2-1.1,2-2.6c0-1.1-0.6-2.6-2-2.6C57.8,6.4,57.1,7.7,57.1,9z"/>
	<path class="st0" d="M64,7.5c0-0.7,0-1.3-0.1-1.8H65l0.1,1.1h0c0.3-0.6,1.1-1.3,2.2-1.3c0.9,0,2.4,0.6,2.4,2.9v4h-1.2V8.5
		c0-1.1-0.4-2-1.6-2c-0.8,0-1.4,0.6-1.6,1.2c-0.1,0.2-0.1,0.4-0.1,0.6v4H64V7.5z"/>
</g>
</svg>
