<?xml version="1.0" encoding="utf-8"?>
<!-- Generator: Adobe Illustrator 23.0.1, SVG Export Plug-In . SVG Version: 6.00 Build 0)  -->
<svg version="1.1" id="Capa_1" xmlns="http://www.w3.org/2000/svg" xmlns:xlink="http://www.w3.org/1999/xlink" x="0px" y="0px"
	 viewBox="0 0 44.8 47.7" style="enable-background:new 0 0 44.8 47.7;" xml:space="preserve">
<style type="text/css">
	.st0{fill:#C5D82E;}
	.st1{fill:#3A5A7D;}
</style>
<g>
	<path class="st0" d="M39.7,34.4c-2.1-2.1-5.5-2.1-7.6,0c-1.4,1.4-3.5,1.7-5.3,0.9l0,0c-6-3-10.9-7.9-14-14
		c-0.9-1.8-0.5-3.9,0.9-5.3c2.1-2.1,2.1-5.5,0-7.6l-0.8-0.8C10.4,5,6.2,5,3.7,7.6c-1,1-1.5,2.5-1.3,3.9c0.7,4.2,3.1,13.2,12,22.1
		s18,11.4,22.1,12c1.4,0.2,2.9-0.3,3.9-1.3c2.5-2.5,2.5-6.7,0-9.2L39.7,34.4z"/>
	<g>
		<path class="st1" d="M1.7,8.6C2.4,13.2,5,22.2,13.9,31.2s18,11.5,22.6,12.2c0.3,0,0.5,0.1,0.8,0.1c1.4,0,2.8-0.6,3.8-1.6
			c2.8-2.8,2.8-7.4,0-10.3l-0.8-0.8c-2.4-2.4-6.3-2.4-8.7,0c-1.2,1.2-2.9,1.5-4.4,0.7c-5.9-2.9-10.7-7.8-13.6-13.6
			c-0.7-1.5-0.5-3.3,0.7-4.4c2.4-2.4,2.4-6.3,0-8.7L13.5,4C10.6,1.1,6,1.1,3.2,4C2,5.2,1.4,6.9,1.7,8.6z M8.3,3.4
			c1.5,0,2.9,0.6,4.1,1.7l0.8,0.8c1.8,1.8,1.8,4.7,0,6.5c-1.6,1.6-2,4.1-1,6.2c3.1,6.1,8.1,11.2,14.3,14.3c2.1,1,4.6,0.6,6.2-1
			c1.8-1.8,4.7-1.8,6.5,0l0.8,0.8c2.2,2.2,2.2,5.9,0,8.1c-0.9,0.9-2.1,1.3-3.3,1.1c-4.4-0.7-13-3.1-21.7-11.8S3.9,12.7,3.2,8.3
			C3,7.1,3.4,5.9,4.3,5C5.4,3.9,6.8,3.4,8.3,3.4z"/>
		<path class="st1" d="M8.3,19.1c0.1,0,0.2,0,0.3-0.1C9,18.8,9.2,18.3,9,18C4.7,9.2,5.8,6.6,5.9,6.4c0.2-0.3,0.1-0.8-0.2-1
			C5.3,5.2,4.9,5.2,4.6,5.6c-0.3,0.5-1.7,3.4,3,13C7.8,18.9,8,19.1,8.3,19.1z"/>
		<path class="st1" d="M23.6,17.5c-2.1,0-3.8,1.7-3.8,3.8s1.7,3.8,3.8,3.8s3.8-1.7,3.8-3.8S25.8,17.5,23.6,17.5z M23.6,23.7
			c-1.3,0-2.3-1-2.3-2.3s1-2.3,2.3-2.3s2.3,1,2.3,2.3C25.9,22.6,24.9,23.7,23.6,23.7z"/>
		<path class="st1" d="M29.8,22.1c0.4,0,0.8-0.3,0.8-0.8c0-3.8-3.1-6.9-6.9-6.9c-0.4,0-0.8,0.3-0.8,0.8s0.3,0.8,0.8,0.8
			c3,0,5.4,2.4,5.4,5.4C29,21.8,29.4,22.1,29.8,22.1z"/>
		<path class="st1" d="M32.8,22.1c0.4,0,0.8-0.3,0.8-0.8c0-5.5-4.5-10-10-10c-0.4,0-0.8,0.3-0.8,0.8s0.3,0.8,0.8,0.8
			c4.6,0,8.4,3.8,8.4,8.4C32.1,21.8,32.4,22.1,32.8,22.1z"/>
		<path class="st1" d="M35.9,22.1c0.4,0,0.8-0.3,0.8-0.8c0-7.2-5.8-13-13-13c-0.4,0-0.8,0.3-0.8,0.8c0,0.4,0.3,0.8,0.8,0.8
			c6.3,0,11.5,5.2,11.5,11.5C35.1,21.8,35.5,22.1,35.9,22.1z"/>
		<path class="st1" d="M39,22.1c0.4,0,0.8-0.3,0.8-0.8c0-8.9-7.2-16.1-16.1-16.1c-0.4,0-0.8,0.3-0.8,0.8s0.3,0.8,0.8,0.8
			c8,0,14.6,6.5,14.6,14.6C38.2,21.8,38.6,22.1,39,22.1z"/>
	</g>
</g>
</svg>
