<?xml version="1.0" encoding="utf-8"?>
<!-- Generator: Adobe Illustrator 23.0.1, SVG Export Plug-In . SVG Version: 6.00 Build 0)  -->
<svg version="1.1" id="Layer_1" xmlns="http://www.w3.org/2000/svg" xmlns:xlink="http://www.w3.org/1999/xlink" x="0px" y="0px"
	 viewBox="0 0 512 512" style="enable-background:new 0 0 512 512;" xml:space="preserve">
<style type="text/css">
	.st0{fill:#1089FF;}
	.st1{fill:#3A5A7D;}
</style>
<path class="st0" d="M483.6,42.9L18.8,222.2c-11.5,4.4-11.4,20.7,0.1,25l113.3,42.3l43.8,141c2.8,9,13.8,12.4,21.2,6.4l63.1-51.5
	c6.6-5.4,16-5.7,23-0.6l113.9,82.7c7.8,5.7,18.9,1.4,20.9-8.1l83.4-401.3C503.7,47.7,493.5,39.1,483.6,42.9z M395,136.4L221.3,297.9
	c-6.1,5.7-10,13.3-11.2,21.6l-5.9,43.9c-0.8,5.9-9,6.4-10.6,0.8l-22.8-80c-2.6-9.1,1.2-18.9,9.3-23.9l210.6-129.7
	C394.4,128.3,398.3,133.4,395,136.4z"/>
<g>
	<path class="st1" d="M405,480.2c-4.9,0-9.7-1.5-13.8-4.5L277.3,393c-3.2-2.3-7.5-2.2-10.5,0.3l-63.1,51.5c-6.1,5-14.2,6.6-21.7,4.3
		c-7.5-2.3-13.4-8.1-15.7-15.6l-42.4-136.2L15.3,256.8C6.1,253.3,0,244.7,0,234.8c0-9.9,5.9-18.5,15.1-22.1L480,33.4
		c8-3.1,17.1-1.6,23.7,4c6.6,5.6,9.6,14.3,7.8,22.8l-83.4,401.3c-1.6,7.9-7.1,14.3-14.6,17.2C410.8,479.7,407.9,480.2,405,480.2z
		 M272.2,371c6,0,12,1.8,17.1,5.5l113.9,82.7c1.2,0.9,2.4,0.6,3,0.4c0.6-0.2,1.6-0.8,1.9-2.3L491.5,56c0.3-1.6-0.5-2.6-1.1-3
		c-0.5-0.5-1.6-1.1-3.2-0.5c0,0,0,0,0,0L22.4,231.8c-1.7,0.6-2,2-2,3c0,1,0.4,2.3,2.1,3l113.3,42.3c3,1.1,5.2,3.5,6.2,6.5l43.8,141
		c0.4,1.4,1.5,1.9,2.1,2.1c0.6,0.2,1.8,0.3,2.9-0.6l63.2-51.5C259.2,373.2,265.7,371,272.2,371z M198.8,378.3c-7,0-13.1-4.5-15-11.4
		l-22.8-80c-3.8-13.4,1.8-28,13.7-35.3l210.6-129.7c6.1-3.8,14-2.3,18.3,3.4c4.3,5.7,3.6,13.7-1.6,18.5L228.2,305.4
		c-4.4,4.1-7.2,9.5-8,15.5l-5.9,43.9c-1,7.4-6.9,13-14.4,13.5C199.5,378.3,199.1,378.3,198.8,378.3z M339.7,174l-154.3,95
		c-4.2,2.6-6.1,7.7-4.8,12.4l16.5,58.1l2.9-21.3c1.4-10.6,6.5-20.4,14.3-27.7L339.7,174z"/>
	<path class="st1" d="M423.8,279.5c-0.7,0-1.4-0.1-2.2-0.2c-5.5-1.2-9-6.6-7.8-12.1l1.5-7.1c1.2-5.5,6.6-9,12.1-7.8
		c5.5,1.2,9,6.6,7.8,12.1l-1.5,7.1C432.7,276.2,428.5,279.5,423.8,279.5z"/>
	<path class="st1" d="M391.7,427.3c-0.7,0-1.4-0.1-2.2-0.2c-5.5-1.2-9-6.6-7.8-12.1l23.5-108.1c1.2-5.5,6.6-9,12.1-7.8
		c5.5,1.2,9,6.6,7.8,12.1l-23.5,108.1C400.6,424.1,396.4,427.3,391.7,427.3z"/>
</g>
</svg>
