<?xml version="1.0" encoding="UTF-8"?>
<svg width="138px" height="118px" viewBox="0 0 138 118" version="1.1" xmlns="http://www.w3.org/2000/svg" xmlns:xlink="http://www.w3.org/1999/xlink">
    <!-- Generator: sketchtool 50.2 (55047) - http://www.bohemiancoding.com/sketch -->
    <title>B5D10B08-F6D0-447D-8094-9F89D20EE1BD</title>
    <desc>Created with sketchtool.</desc>
    <defs>
        <filter x="-74.3%" y="-71.4%" width="248.6%" height="248.6%" filterUnits="objectBoundingBox" id="filter-1">
            <feOffset dx="0" dy="2" in="SourceAlpha" result="shadowOffsetOuter1"></feOffset>
            <feGaussianBlur stdDeviation="17" in="shadowOffsetOuter1" result="shadowBlurOuter1"></feGaussianBlur>
            <feColorMatrix values="0 0 0 0 1   0 0 0 0 0.219607843   0 0 0 0 0.219607843  0 0 0 0.7 0" type="matrix" in="shadowBlurOuter1" result="shadowMatrixOuter1"></feColorMatrix>
            <feMerge>
                <feMergeNode in="shadowMatrixOuter1"></feMergeNode>
                <feMergeNode in="SourceGraphic"></feMergeNode>
            </feMerge>
        </filter>
    </defs>
    <g id="Page-1" stroke="none" stroke-width="1" fill="none" fill-rule="evenodd">
        <g id="web-design" transform="translate(-419.000000, -1892.000000)" fill-rule="nonzero">
            <g id="Group-4" transform="translate(153.000000, 1871.000000)">
                <g id="tires-2" filter="url(#filter-1)" transform="translate(333.000000, 78.000000) rotate(135.000000) translate(-333.000000, -78.000000) translate(298.000000, 43.000000)">
                    <path d="M49.360625,25.741875 C49.3634698,25.0310785 49.6845272,24.358922 50.235625,23.91 C50.0944616,22.0054589 49.7320212,20.1238312 49.155625,18.303125 C48.4735676,18.094671 47.9224506,17.5888057 47.6564656,16.9270601 C47.3904805,16.2653144 47.4381915,15.5187535 47.78625,14.89625 C46.8680021,13.0319123 45.7157951,11.2922604 44.3575,9.719375 C43.6503843,9.79309682 42.9477375,9.54394517 42.4450212,9.04122882 C41.9423048,8.53851246 41.6931532,7.83586567 41.766875,7.12875 C40.3228809,5.88004931 38.7377266,4.80461111 37.04375,3.924375 C36.4139476,4.26180655 35.6651401,4.29557566 35.0075215,4.01620317 C34.349903,3.73683068 33.8543622,3.17443189 33.66,2.486875 C31.6916753,1.81902449 29.6466197,1.40341913 27.57375,1.25 C27.1258735,1.80215491 26.452838,2.12283764 25.741875,2.12283764 C25.030912,2.12283764 24.3578765,1.80215491 23.91,1.25 C22.0054567,1.39114651 20.1238271,1.75358726 18.303125,2.33 C18.094671,3.01205741 17.5888057,3.56317435 16.9270601,3.82915944 C16.2653144,4.09514453 15.5187535,4.04743352 14.89625,3.699375 C13.0319123,4.61762289 11.2922604,5.76982987 9.719375,7.128125 C9.79309682,7.83524067 9.54394517,8.53788746 9.04122882,9.04060382 C8.53851246,9.54332017 7.83586567,9.79247182 7.12875,9.71875 C5.88005386,11.1627475 4.80461604,12.7479014 3.924375,14.441875 C4.26180655,15.0716774 4.29557566,15.8204849 4.01620317,16.4781035 C3.73683068,17.135722 3.17443189,17.6312628 2.486875,17.825625 C1.81918593,19.7933494 1.40358271,21.8377644 1.25,23.91 C1.80215491,24.3578765 2.12283764,25.030912 2.12283764,25.741875 C2.12283764,26.452838 1.80215491,27.1258735 1.25,27.57375 C1.39114651,29.4782933 1.75358726,31.3599229 2.33,33.180625 C3.01205741,33.389079 3.56317435,33.8949443 3.82915944,34.5566899 C4.09514453,35.2184356 4.04743352,35.9649965 3.699375,36.5875 C4.61759924,38.4518513 5.76980814,40.1915061 7.128125,41.764375 C7.83524067,41.6906532 8.53788746,41.9398048 9.04060382,42.4425212 C9.54332017,42.9452375 9.79247182,43.6478843 9.71875,44.355 C11.162751,45.6036916 12.7479043,46.679129 14.441875,47.559375 C15.0730099,47.224049 15.8215942,47.1907633 16.48,47.46875 C17.1359212,47.7509333 17.6300748,48.313254 17.825625,49 C19.7934641,49.6668256 21.8378748,50.0815879 23.91,50.234375 C24.3578765,49.6822201 25.030912,49.3615374 25.741875,49.3615374 C26.452838,49.3615374 27.1258735,49.6822201 27.57375,50.234375 C29.4782926,50.0932229 31.3599215,49.7307822 33.180625,49.154375 C33.389079,48.4723176 33.8949443,47.9212006 34.5566899,47.6552156 C35.2184356,47.3892305 35.9649965,47.4369415 36.5875,47.785 C38.4518377,46.8667521 40.1914896,45.7145451 41.764375,44.35625 C41.6906532,43.6491343 41.9398048,42.9464875 42.4425212,42.4437712 C42.9452375,41.9410548 43.6478843,41.6919032 44.355,41.765625 C45.6036961,40.3216275 46.679134,38.7364736 47.559375,37.0425 C47.2219435,36.4126976 47.1881743,35.6638901 47.4675468,35.0062715 C47.7469193,34.348653 48.3093181,33.8531122 48.996875,33.65875 C49.6636941,31.6909092 50.0784562,29.6464993 50.23125,27.574375 C49.6816193,27.1244628 49.3622092,26.4521653 49.360625,25.741875 Z M29.695,29.695 C28.0959523,31.2941879 25.6910175,31.7726414 23.6016504,30.9072508 C21.5122833,30.0418603 20.1499659,28.0030566 20.1499659,25.7415625 C20.1499659,23.4800684 21.5122833,21.4412647 23.6016504,20.5758742 C25.6910175,19.7104836 28.0959523,20.1889371 29.695,21.788125 C31.8782879,23.9716043 31.8782879,27.5115207 29.695,29.695 Z" id="Shape" fill="#FF3838"></path>
                    <path d="M36.671875,14.8125 C30.6352846,8.77614095 20.8482446,8.77626597 14.8118085,14.8127792 C8.77537232,20.8492925 8.77537232,30.6363325 14.8118085,36.6728458 C20.8482446,42.709359 30.6352846,42.709484 36.671875,36.673125 C39.5708467,33.7742644 41.1994814,29.842499 41.1994814,25.7428125 C41.1994814,21.643126 39.5708467,17.7113606 36.671875,14.8125 Z M29.695,29.695 C28.0959523,31.2941879 25.6910175,31.7726414 23.6016504,30.9072508 C21.5122833,30.0418603 20.1499659,28.0030566 20.1499659,25.7415625 C20.1499659,23.4800684 21.5122833,21.4412647 23.6016504,20.5758742 C25.6910175,19.7104836 28.0959523,20.1889371 29.695,21.788125 C31.8782879,23.9716043 31.8782879,27.5115207 29.695,29.695 Z" id="Shape" fill="#FFFFFF"></path>
                    <path d="M47.559375,37.041875 C47.2219435,36.4120726 47.1881743,35.6632651 47.4675468,35.0056465 C47.7469193,34.348028 48.3093181,33.8524872 48.996875,33.658125 C49.6636941,31.6902842 50.0784562,29.6458743 50.23125,27.57375 C49.6790951,27.1258735 49.3584124,26.452838 49.3584124,25.741875 C49.3584124,25.030912 49.6790951,24.3578765 50.23125,23.91 C50.0900866,22.0054589 49.7276462,20.1238312 49.15125,18.303125 C48.4691926,18.094671 47.9180756,17.5888057 47.6520906,16.9270601 C47.3861055,16.2653144 47.4338165,15.5187535 47.781875,14.89625 C46.8636271,13.0319123 45.7114201,11.2922604 44.353125,9.719375 C43.6460093,9.79309682 42.9433625,9.54394517 42.4406462,9.04122882 C41.9379298,8.53851246 41.6887782,7.83586567 41.7625,7.12875 C40.3185059,5.88004931 38.7333516,4.80461111 37.039375,3.924375 C36.4095726,4.26180655 35.6607651,4.29557566 35.0031465,4.01620317 C34.345528,3.73683068 33.8499872,3.17443189 33.655625,2.486875 C31.6887051,1.81938594 29.6451422,1.40378519 27.57375,1.25 C27.1258735,1.80215491 26.452838,2.12283764 25.741875,2.12283764 C25.030912,2.12283764 24.3578765,1.80215491 23.91,1.25 C22.0054567,1.39114651 20.1238271,1.75358726 18.303125,2.33 C18.094671,3.01205741 17.5888057,3.56317435 16.9270601,3.82915944 C16.2653144,4.09514453 15.5187535,4.04743352 14.89625,3.699375 C13.0319123,4.61762289 11.2922604,5.76982987 9.719375,7.128125 C9.79075269,7.83496215 9.54195697,8.53663486 9.04125,9.040625 L21.79125,21.790625 C23.9909631,19.7120526 27.4452258,19.7610153 29.5851413,21.9011 C31.7250568,24.0411847 31.7737463,27.4954512 29.695,29.695 L42.445,42.445 C42.9489901,41.944293 43.6506629,41.6954973 44.3575,41.766875 C45.6054434,40.3221606 46.6800426,38.736377 47.559375,37.041875 Z" id="Shape" fill="#D0021B"></path>
                    <path d="M14.8125,14.8125 L21.788125,21.788125 C23.9774152,19.6394516 27.48908,19.6558912 29.6581569,21.8249681 C31.8272338,23.994045 31.8436734,27.5057098 29.695,29.695 L36.671875,36.671875 C42.618673,30.6204475 42.5763199,20.9067367 36.5769791,14.9073959 C30.5776383,8.90805506 20.8639275,8.86570204 14.8125,14.8125 Z" id="Shape" fill="#FFFFFF"></path>
                    <path d="M38.056875,24.648125 L32.3275,24.648125 C32.1621162,23.6416108 31.7671131,22.6867169 31.173125,21.8575 L35.223125,17.8075 C35.6502827,17.3803423 35.6502827,16.6877828 35.223125,16.260625 C34.7959672,15.8334673 34.1034077,15.8334673 33.67625,16.260625 L29.625,20.3125 C28.7961924,19.716047 27.840293,19.3200376 26.8325,19.155625 L26.8325,13.426875 C26.8325,12.8228136 26.3428114,12.333125 25.73875,12.333125 C25.1346886,12.333125 24.645,12.8228136 24.645,13.426875 L24.645,19.1525 C23.637485,19.3168402 22.6818183,19.7126279 21.853125,20.30875 L17.804375,16.26 C17.3772173,15.8328423 16.6846577,15.8328423 16.2575,16.26 C15.8303423,16.6871577 15.8303423,17.3797173 16.2575,17.806875 L20.3075,21.856875 C19.7135119,22.6860919 19.3185088,23.6409858 19.153125,24.6475 L13.426875,24.6475 C12.8228136,24.6475 12.333125,25.1371886 12.333125,25.74125 C12.333125,26.3453114 12.8228136,26.835 13.426875,26.835 L19.15625,26.835 C19.3222878,27.8414556 19.7179335,28.796138 20.3125,29.625 L16.2625,33.675 C15.9861774,33.9513226 15.8782611,34.3540716 15.9794022,34.7315353 C16.0805433,35.108999 16.375376,35.4038317 16.7528397,35.5049728 C17.1303034,35.6061139 17.5330524,35.4981976 17.809375,35.221875 L21.858125,31.173125 C22.6868183,31.7692471 23.642485,32.1650348 24.65,32.329375 L24.65,38.055625 C24.65,38.6596864 25.1396886,39.149375 25.74375,39.149375 C26.3478114,39.149375 26.8375,38.6596864 26.8375,38.055625 L26.8375,32.330625 C27.8435475,32.1654709 28.7976569,31.7694941 29.625,31.17375 L33.67375,35.2225 C34.1009077,35.6496577 34.7934672,35.6496577 35.220625,35.2225 C35.6477827,34.7953422 35.6477827,34.1027827 35.220625,33.675625 L31.173125,29.625 C31.7671328,28.795794 32.1621379,27.8408954 32.3275,26.834375 L38.05625,26.834375 C38.6603114,26.834375 39.15,26.3446864 39.15,25.740625 C39.15,25.1365636 38.6603114,24.646875 38.05625,24.646875 L38.056875,24.648125 Z M25.744375,30.23875 C23.5973687,30.2388505 21.7493272,28.7221896 21.3305825,26.6164145 C20.9118378,24.5106393 22.0390357,22.4023361 24.0227395,21.5810227 C26.0064432,20.7597093 28.2940708,21.4541715 29.4864228,23.2396498 C30.6787748,25.0251281 30.4437088,27.4042585 28.925,28.921875 C28.0825805,29.7685838 26.936266,30.24282 25.741875,30.23875 L25.744375,30.23875 Z" id="Shape" fill="#444444"></path>
                    <g id="Group">
                        <path d="M12.345,25.625 C12.3291913,25.7027462 12.3291913,25.7828788 12.345,25.860625 C12.399262,33.2170639 18.3789862,39.1515738 25.735625,39.15 L25.75,39.15 C33.1468409,39.1559595 39.153029,33.1740168 39.1769888,25.7772123 C39.2009487,18.3804077 33.2336399,12.3596803 25.8369156,12.3177202 C18.4401912,12.2757601 12.40496,18.2283997 12.345,25.625 Z M36.9075,24.64875 L32.3275,24.64875 C32.1621162,23.6422358 31.7671131,22.6873419 31.173125,21.858125 L34.411875,18.619375 C35.8289549,20.3337303 36.6989752,22.4338844 36.909375,24.648125 L36.9075,24.64875 Z M34.4075,32.865625 L31.173125,29.625 C31.7671328,28.795794 32.1621379,27.8408954 32.3275,26.834375 L36.909375,26.834375 C36.6994163,29.0492895 35.8293663,31.1501685 34.411875,32.865 L34.4075,32.865625 Z M14.579375,26.835625 L19.15625,26.835625 C19.3223799,27.8418625 19.7180215,28.7963213 20.3125,29.625 L17.075,32.8625 C15.6619193,31.1466443 14.7929752,29.0481649 14.579375,26.835625 Z M25.74125,21.244375 C27.8883833,21.2427827 29.7375507,22.7583351 30.1576247,24.8639756 C30.5776986,26.969616 29.4516483,29.0787226 27.4682739,29.9011639 C25.4848995,30.7236052 23.1967601,30.0302529 22.0035005,28.2452276 C20.810241,26.4602023 21.044298,24.0808038 22.5625,22.5625 C23.4038772,21.7163763 24.5486298,21.2417777 25.741875,21.244375 L25.74125,21.244375 Z M21.855625,31.174375 C22.6843183,31.7704971 23.639985,32.1662848 24.6475,32.330625 L24.6475,36.909375 C22.4325667,36.6984273 20.3319371,35.8275195 18.6175,34.409375 L21.855625,31.174375 Z M26.835,32.330625 C27.8419203,32.1658415 28.7969247,31.7698484 29.625,31.17375 L32.8625,34.41125 C31.1481231,35.8294944 29.0474615,36.7004155 26.8325,36.91125 L26.835,32.330625 Z M29.625,20.3125 C28.7961924,19.716047 27.840293,19.3200376 26.8325,19.155625 L26.8325,14.574375 C29.0474615,14.7852095 31.1481231,15.6561306 32.8625,17.074375 L29.625,20.3125 Z M24.645,19.155625 C23.637485,19.3199652 22.6818183,19.7157529 21.853125,20.311875 L18.615,17.074375 C20.3294371,15.6562305 22.4300667,14.7853227 24.645,14.574375 L24.645,19.155625 Z M20.3125,21.8575 C19.7185119,22.6867169 19.3235088,23.6416108 19.158125,24.648125 L14.579375,24.648125 C14.792053,22.4354307 15.6601247,20.3365208 17.0725,18.62 L20.3125,21.8575 Z" id="Shape" fill="#2D2D2D"></path>
                        <path d="M14.038125,14.038125 C8.17404835,19.9072738 7.56411058,29.212197 12.6118558,35.7966158 C17.6596011,42.3810346 26.8037064,44.2083161 33.9942926,40.069503 C41.1848787,35.9306899 44.1978186,27.1059625 41.0397053,19.4338948 C37.881592,11.7618271 29.5292645,7.61547362 21.50875,9.738125 C20.9245363,9.89224696 20.575878,10.4907863 20.73,11.075 C20.884122,11.6592137 21.4826613,12.007872 22.066875,11.85375 C27.0129408,10.5580053 32.2753493,11.9775787 35.89875,15.585 C40.0070206,19.6929025 41.2361579,25.8711084 39.0129978,31.2386319 C36.7898376,36.6061554 31.5522117,40.10591 25.7425,40.10591 C19.9327883,40.10591 14.6951624,36.6061554 12.4720022,31.2386319 C10.2488421,25.8711084 11.4779794,19.6929025 15.58625,15.585 C16.0134077,15.1578423 16.0134077,14.4652827 15.58625,14.038125 C15.1590923,13.6109673 14.4665327,13.6109673 14.039375,14.038125 L14.038125,14.038125 Z" id="Shape" fill="#2D2D2D"></path>
                        <path d="M17.7,13.63125 C17.9004858,13.6311798 18.0970683,13.5758166 18.268125,13.47125 C18.405625,13.3879167 18.5439583,13.3066667 18.683125,13.2275 C19.2090036,12.9301292 19.3942458,12.2627536 19.096875,11.736875 C18.7995042,11.2109964 18.1321286,11.0257542 17.60625,11.323125 C17.44625,11.4135417 17.2870833,11.506875 17.12875,11.603125 C16.7095078,11.8582175 16.5114967,12.3613248 16.6444116,12.8337333 C16.7773266,13.3061419 17.2086253,13.6321891 17.699375,13.63125 L17.7,13.63125 Z" id="Shape" fill="#2D2D2D"></path>
                        <path d="M16.05125,48.475 C16.4053007,48.6292242 16.6712694,48.9344343 16.775625,49.30625 C16.8755811,49.648608 17.1360942,49.9207825 17.47375,50.035625 C19.3967896,50.6835884 21.3898638,51.1012948 23.41125,51.28 L31.22375,59.0925 C31.5000726,59.3688226 31.9028216,59.4767389 32.2802853,59.3755978 C32.657749,59.2744567 32.9525817,58.979624 33.0537228,58.6021603 C33.1548639,58.2246966 33.0469476,57.8219476 32.770625,57.545625 L24.683125,49.46 C24.66875,49.445625 24.651875,49.435625 24.636875,49.4225 C24.6080315,49.3960904 24.5777789,49.3712624 24.54625,49.348125 C24.518125,49.328125 24.49,49.31 24.460625,49.293125 C24.3984909,49.255847 24.3324754,49.2254589 24.26375,49.2025 C24.23125,49.19125 24.20125,49.18125 24.165625,49.173125 C24.1274845,49.1641651 24.0888861,49.15728 24.05,49.1525 C24.03,49.1525 24.011875,49.14375 23.99125,49.141875 C22.1783362,49.0081139 20.387021,48.6647837 18.653125,48.11875 C17.9009719,46.5787543 16.1308571,45.8262224 14.5,46.353125 C13.1940966,45.6370822 11.9593554,44.7982953 10.8125,43.848125 C10.6860387,42.1489569 9.33539314,40.7980457 7.63625,40.67125 C6.58330048,39.398092 5.66838902,38.0168208 4.906875,36.550625 C5.46043165,34.9348697 4.74562241,33.1575565 3.2275,32.375 C2.80764002,30.9435951 2.52470251,29.4755428 2.3825,27.990625 C3.49391255,26.6995787 3.49391255,24.7897963 2.3825,23.49875 C2.53849667,21.8543806 2.8673973,20.231036 3.36375,18.655625 C4.90226877,17.9036898 5.65473537,16.1356862 5.13,14.505625 C5.84614071,13.1996344 6.68514375,11.9648832 7.635625,10.818125 C9.33664589,10.6910499 10.6881001,9.33746863 10.8125,7.63625 C12.0862472,6.58361498 13.4676681,5.66853358 14.93375,4.90625 C16.550067,5.46116655 18.3287577,4.74612438 19.11125,3.226875 C20.7023926,2.76048011 22.338339,2.46341622 23.991875,2.340625 C24.5877736,2.2880117 25.03085,1.76641937 24.9864068,1.16985579 C24.9419637,0.573292223 24.4264915,0.123110379 23.829375,0.159375 C21.8401819,0.307291193 19.8749169,0.685872131 17.973125,1.2875 C17.6337975,1.39484945 17.3679745,1.66067251 17.260625,2 C17.1509443,2.37064556 16.877824,2.67080499 16.5191472,2.81488466 C16.1604704,2.95896433 15.7556041,2.93115066 15.42,2.739375 C15.1076353,2.56941213 14.7321878,2.5617214 14.413125,2.71875 C12.46614,3.67851333 10.6490725,4.88191097 9.005625,6.3 C8.73714764,6.5310712 8.59736427,6.87796693 8.630625,7.230625 C8.67350425,7.6133077 8.53991469,7.99470786 8.26762377,8.26699877 C7.99533286,8.53928969 7.6139327,8.67287925 7.23125,8.63 C6.87861669,8.59565895 6.53142887,8.73565404 6.30125,9.005 C4.99724544,10.5134123 3.87361335,12.1687613 2.953125,13.9375 C2.78826899,14.2539854 2.78826899,14.6310146 2.953125,14.9475 C3.1386397,15.2874592 3.15837849,15.6936224 3.00670298,16.0499684 C2.85502747,16.4063145 2.54861772,16.6736555 2.175,16.775625 C1.83306461,16.8758381 1.56137774,17.136331 1.446875,17.47375 C0.750954607,19.5291841 0.318341093,21.6645309 0.159375,23.82875 C0.133801672,24.181192 0.279980982,24.5242944 0.551875,24.75 C0.853356594,24.9900042 1.02900213,25.3543394 1.02900213,25.7396875 C1.02900213,26.1250356 0.853356594,26.4893708 0.551875,26.729375 C0.278912546,26.9554149 0.132392544,27.299702 0.15875,27.653125 C0.306543599,29.6423863 0.685341597,31.6076893 1.2875,33.509375 C1.39494236,33.848646 1.66072896,34.1144326 2,34.221875 C2.37049478,34.3317624 2.67048301,34.6048979 2.81453067,34.963495 C2.95857834,35.3220921 2.93089882,35.726851 2.739375,36.0625 C2.5696272,36.3746988 2.56193761,36.7498577 2.71875,37.06875 C3.67809205,39.0163615 4.88151947,40.833894 6.3,42.4775 C6.52966412,42.7475608 6.87724159,42.887713 7.23,42.8525 C7.61247897,42.8092745 7.99384243,42.942456 8.26626068,43.2143878 C8.53867894,43.4863196 8.67254186,43.8674444 8.63,44.25 L8.63,44.29 C8.62698664,44.34711 8.62844944,44.4043683 8.634375,44.46125 C8.634375,44.485 8.634375,44.508125 8.64125,44.53125 C8.66754548,44.6883558 8.72815013,44.8377334 8.81875,44.96875 C8.833125,44.989375 8.850625,45.006875 8.86625,45.026875 C8.8904499,45.0602114 8.91653404,45.0921384 8.944375,45.1225 L29.025,65.208125 C29.3013226,65.4844476 29.7040716,65.5923639 30.0815353,65.4912228 C30.458999,65.3900817 30.7538317,65.095249 30.8549728,64.7177853 C30.9561139,64.3403216 30.8481976,63.9375726 30.571875,63.66125 L15.316875,48.406875 C15.5629626,48.3554799 15.8188158,48.3792144 16.05125,48.475 Z" id="Shape" fill="#23374D"></path>
                        <path d="M33.5075,66.5975 C33.0803423,66.1703423 32.3877828,66.1703423 31.960625,66.5975 C31.5334673,67.0246578 31.5334673,67.7172173 31.960625,68.144375 L33.34,69.52375 C33.7671577,69.9509077 34.4597173,69.9509077 34.886875,69.52375 C35.3140327,69.0965923 35.3140327,68.4040327 34.886875,67.976875 L33.5075,66.5975 Z" id="Shape" fill="#23374D"></path>
                        <path d="M38.099375,52.525625 C37.8230524,52.2493024 37.4203034,52.1413861 37.0428397,52.2425272 C36.665376,52.3436683 36.3705433,52.638501 36.2694022,53.0159647 C36.1682611,53.3934284 36.2761774,53.7961774 36.5525,54.0725 L46.455625,63.975 C46.8827827,64.4021577 47.5753422,64.4021577 48.0025,63.975 C48.4296577,63.5478422 48.4296577,62.8552827 48.0025,62.428125 L38.099375,52.525625 Z" id="Shape" fill="#23374D"></path>
                        <path d="M50.3875,64.8125 C49.9605148,64.3849971 49.2678154,64.3845774 48.8403125,64.8115625 C48.4128096,65.2385477 48.4123899,65.9312471 48.839375,66.35875 L49.249375,66.769375 C49.6763601,67.1968779 50.3690596,67.1972976 50.7965625,66.7703125 C51.2240654,66.3433274 51.2244851,65.6506279 50.7975,65.223125 L50.3875,64.8125 Z" id="Shape" fill="#23374D"></path>
                        <path d="M64.4375,30.8925 C64.879711,30.8922793 65.278281,30.6257983 65.447478,30.2172362 C65.6166749,29.8086742 65.5232051,29.3384257 65.210625,29.025625 L45.128125,8.945625 C45.100427,8.92037861 45.0714291,8.89659621 45.04125,8.874375 C45.018125,8.855625 44.99625,8.834375 44.971875,8.8175 C44.9166678,8.7798582 44.8580827,8.74742715 44.796875,8.720625 C44.7725,8.71 44.748125,8.700625 44.7225,8.691875 C44.6636083,8.67025797 44.6029688,8.65373894 44.54125,8.6425 C44.513125,8.6375 44.484375,8.636875 44.455,8.634375 C44.4014161,8.62914898 44.3475189,8.62789556 44.29375,8.630625 C44.28,8.630625 44.266875,8.630625 44.2525,8.630625 C43.8697599,8.67375048 43.4882103,8.54024106 43.2158596,8.26789038 C42.9435089,7.99553969 42.8099995,7.6139901 42.853125,7.23125 C42.8860664,6.87863847 42.74634,6.53188408 42.478125,6.300625 C40.9682762,4.99648503 39.3112059,3.87324308 37.540625,2.95375 C37.2242297,2.78942865 36.8476453,2.78942865 36.53125,2.95375 C36.1914231,3.13952819 35.7852184,3.15939882 35.4288817,3.00767543 C35.072545,2.85595203 34.8053458,2.54935504 34.70375,2.175625 C34.6033487,1.83379863 34.3429272,1.56218625 34.005625,1.4475 C31.9515745,0.751910045 29.8177432,0.319095714 27.655,0.159375 C27.0578835,0.123110379 26.5424113,0.573292223 26.4979682,1.16985579 C26.453525,1.76641937 26.8966014,2.2880117 27.4925,2.340625 C29.3054422,2.47456135 31.0967611,2.81810196 32.830625,3.364375 C33.5821645,4.90331069 35.3505377,5.65593462 36.980625,5.130625 C38.2865324,5.84666132 39.5212741,6.68544859 40.668125,7.635625 C40.7952616,9.33543169 42.1469936,10.6863664 43.846875,10.8125 C44.8999484,12.0854739 45.8150649,13.4665288 46.576875,14.9325 C46.0221726,16.5489869 46.7371186,18.3277045 48.25625,19.110625 C48.6761136,20.5420291 48.9590512,22.0100816 49.10125,23.495 C47.989745,24.786249 47.989745,26.696251 49.10125,27.9875 C48.9448366,29.6316559 48.6157304,31.2547715 48.119375,32.83 C46.5804724,33.5815561 45.8280596,35.3500591 46.35375,36.98 C45.6377163,38.2860561 44.7987066,39.5208172 43.848125,40.6675 C43.0394307,40.7296392 42.2784564,41.0746113 41.69875,41.641875 C41.691875,41.648125 41.68375,41.6525 41.6775,41.659375 L41.67125,41.664375 C41.088561,42.247488 40.7338333,43.0199075 40.67125,43.841875 C39.7703178,44.5898602 38.8147394,45.2694615 37.8125,45.875 C37.400625,46.125 36.978125,46.35875 36.55125,46.58 C34.9361029,46.0258809 33.1588409,46.7392327 32.375,48.25625 C31.2124762,48.5970662 30.0254218,48.8478082 28.824375,49.00625 C28.4355641,49.055667 28.1029163,49.3093502 27.9523987,49.6712347 C27.801881,50.0331191 27.8565051,50.4478792 28.0955857,50.7584535 C28.3346664,51.0690278 28.7216524,51.2279349 29.11,51.175 C30.6035245,50.9782436 32.07689,50.6507361 33.513125,50.19625 C33.8524525,50.0889005 34.1182755,49.8230775 34.225625,49.48375 C34.3356449,49.1142493 34.608085,48.8150441 34.9656892,48.6709804 C35.3232933,48.5269166 35.7270628,48.5537053 36.0625,48.74375 C36.3746509,48.9143306 36.7503051,48.9222587 37.069375,48.765 C37.701875,48.4525 38.33,48.11125 38.936875,47.746875 C40.1879547,46.9948756 41.3726595,46.137606 42.478125,45.184375 C42.7000482,44.9900651 42.8335775,44.7139843 42.848125,44.419375 L57.64375,59.495 C58.0667656,59.9264725 58.759465,59.9333281 59.1909375,59.5103125 C59.62241,59.0872969 59.6292656,58.3945975 59.20625,57.963125 L44.375,42.850625 C44.6850646,42.8481075 44.9792186,42.7129741 45.183125,42.479375 C46.4872487,40.9706452 47.6104994,39.3146109 48.53,37.545 C48.6947453,37.2287084 48.6947453,36.8519166 48.53,36.535625 C48.3534093,36.217392 48.324283,35.837998 48.450229,35.4965392 C48.576175,35.1550803 48.8446849,34.8854684 49.185625,34.758125 L62.42875,48 C62.8559077,48.4271577 63.5484673,48.4271577 63.975625,48 C64.4027827,47.5728423 64.4027827,46.8802827 63.975625,46.453125 L50.383125,32.86375 C50.8751506,31.1642726 51.1905697,29.418577 51.324375,27.654375 C51.3507325,27.300952 51.2042125,26.9566649 50.93125,26.730625 C50.6300012,26.4906109 50.4545153,26.1264222 50.4545153,25.74125 C50.4545153,25.3560778 50.6300012,24.9918891 50.93125,24.751875 C51.2042125,24.5258351 51.3507325,24.181548 51.324375,23.828125 C51.1765814,21.8388637 50.7977834,19.8735607 50.195625,17.971875 C50.0881826,17.632604 49.822396,17.3668174 49.483125,17.259375 C49.1424672,17.1606381 48.859792,16.9218331 48.7055293,16.6024591 C48.5512665,16.2830851 48.5399412,15.9132138 48.674375,15.585 L63.660625,30.57125 C63.86617,30.7779645 64.1459897,30.8936743 64.4375,30.8925 Z" id="Shape" fill="#23374D"></path>
                        <path d="M69.523125,33.340625 L68.14375,31.96125 C67.8674274,31.6849274 67.4646784,31.5770111 67.0872147,31.6781522 C66.709751,31.7792933 66.4149183,32.074126 66.3137772,32.4515897 C66.2126361,32.8290534 66.3205524,33.2318024 66.596875,33.508125 L67.97625,34.8875 C68.4034077,35.3146577 69.0959673,35.3146577 69.523125,34.8875 C69.9502827,34.4603423 69.9502827,33.7677827 69.523125,33.340625 Z" id="Shape" fill="#23374D"></path>
                        <path d="M52.59875,26.275625 C52.3934546,26.4806647 52.2780994,26.7589117 52.2780994,27.0490625 C52.2780994,27.3392133 52.3934546,27.6174603 52.59875,27.8225 L57.548125,32.771875 C57.8244476,33.0481976 58.2271966,33.1561139 58.6046603,33.0549728 C58.982124,32.9538317 59.2769567,32.658999 59.3780978,32.2815353 C59.4792389,31.9040716 59.3713226,31.5013226 59.095,31.225 L54.145625,26.275625 C53.9405853,26.0703296 53.6623383,25.9549744 53.3721875,25.9549744 C53.0820367,25.9549744 52.8037897,26.0703296 52.59875,26.275625 Z" id="Shape" fill="#23374D"></path>
                        <path d="M66.360625,48.840625 C66.084414,48.5640791 65.6816491,48.455897 65.3040479,48.5568297 C64.9264466,48.6577625 64.6313757,48.9524761 64.5299854,49.3299547 C64.4285951,49.7074334 64.536289,50.1103291 64.8125,50.386875 L65.2225,50.7975 C65.6494852,51.2250029 66.3421846,51.2254226 66.7696875,50.7984375 C67.1971904,50.3714523 67.1976101,49.6787529 66.770625,49.25125 L66.360625,48.840625 Z" id="Shape" fill="#23374D"></path>
                        <path d="M61.875,60.665625 C61.6012452,60.3865112 61.19938,60.2746459 60.820783,60.3721676 C60.442186,60.4696893 60.1443752,60.7617822 60.039533,61.1384176 C59.9346908,61.5150531 60.0387452,61.9190113 60.3125,62.198125 L62.135,64.05375 C62.4087548,64.3328638 62.81062,64.4447291 63.189217,64.3472074 C63.567814,64.2496857 63.8656248,63.9575928 63.970467,63.5809574 C64.0753092,63.2043219 63.9712548,62.8003637 63.6975,62.52125 L61.875,60.665625 Z" id="Shape" fill="#23374D"></path>
                    </g>
                </g>
            </g>
        </g>
    </g>
</svg>