<?xml version="1.0" encoding="UTF-8"?>
<svg width="152px" height="65px" viewBox="0 0 152 65" version="1.1" xmlns="http://www.w3.org/2000/svg" xmlns:xlink="http://www.w3.org/1999/xlink">
    <!-- Generator: Sketch 50.2 (55047) - http://www.bohemiancoding.com/sketch -->
    <title>Group</title>
    <desc>Created with Sketch.</desc>
    <defs></defs>
    <g id="Page-1" stroke="none" stroke-width="1" fill="none" fill-rule="evenodd">
        <g id="Artboard" transform="translate(-242.000000, -362.000000)" fill-rule="nonzero">
            <g id="ciry-animation" transform="translate(20.000000, 7.000000)">
                <g id="car" transform="translate(222.000000, 282.000000)">
                    <g id="Group" transform="translate(0.000000, 73.000000)">
                        <g transform="translate(33.000000, 43.000000)" fill="#131313" id="Shape">
                            <path d="M12,0 C5.9,0 0.9,4.6 0.3,10.6 L2.7,10.6 C2.7,11 2.6,11.4 2.6,11.8 C2.6,17 6.8,21.1 11.9,21.1 C17.1,21.1 21.2,16.9 21.2,11.8 C21.2,11.4 21.2,11 21.1,10.6 L23.5,10.6 C23.1,4.6 18.1,0 12,0 Z"></path>
                            <path d="M91.4,10.6 C90.8,4.7 85.8,0 79.7,0 C73.6,0 68.6,4.6 68,10.6 L70.4,10.6 C70.4,11 70.3,11.4 70.3,11.8 C70.3,17 74.5,21.1 79.6,21.1 C84.7,21.1 88.9,16.9 88.9,11.8 C88.9,11.4 88.9,11 88.8,10.6 L91.4,10.6 Z"></path>
                        </g>
                        <polygon id="Shape" fill="#0060AF" points="152 4.7 152 0.9 84.4 0.9 84.4 53.6 152 53.6 152 46.2"></polygon>
                        <path d="M34.8,8.8 C33.3,8.8 31.9,9.6 31.2,11 L23.3,25.7 L12.2,30.9 C7.4,33.1 4.4,37.9 4.4,43.2 L4.4,53.5 L50.9,53.5 L50.9,8.7 L34.8,8.7 L34.8,8.8 Z" id="Shape" fill="#FFFFFF"></path>
                        <polygon id="Shape" fill="#1089FF" points="122.1 4.7 118.1 4.7 118.1 0.9 50.4 0.9 50.4 53.6 118.1 53.6 118.1 46.2 122.1 46.2"></polygon>
                        <polygon id="Shape" fill="#0060AF" points="50.4 0.9 50.4 53.6 118.1 0.9"></polygon>
                        <g transform="translate(81.000000, 43.000000)">
                            <path d="M0.6,10.6 L24,10.6 C23.4,4.7 18.4,0 12.3,0 C6.2,0 1.2,4.6 0.6,10.6 Z" id="Shape" fill="#131313"></path>
                            <circle id="Oval" fill="#4C4C4C" cx="12.3" cy="11.7" r="9.3"></circle>
                            <circle id="Oval" fill="#606060" transform="translate(12.281450, 11.693990) rotate(-20.096675) translate(-12.281450, -11.693990) " cx="12.28145" cy="11.69399" r="5.09992291"></circle>
                            <path d="M15.6,11.7 C15.6,13.6 14.1,15.1 12.2,15.1 C10.3,15.1 8.8,13.6 8.8,11.7 C8.8,9.8 10.3,8.3 12.2,8.3 C14.1,8.3 15.6,9.9 15.6,11.7 Z" id="Shape" fill="#B3B3B3"></path>
                        </g>
                        <rect id="Rectangle-path" fill="#635C63" x="107.1" y="49.6" width="15" height="6.1"></rect>
                        <rect id="Rectangle-path" fill="#CCCCCC" x="118.5" y="49.6" width="5" height="6.1"></rect>
                        <rect id="Rectangle-path" fill="#635C63" x="41.7" y="49.6" width="39.8" height="6.1"></rect>
                        <g transform="translate(18.000000, 43.000000)">
                            <path d="M0.4,10.6 L23.8,10.6 C23.2,4.7 18.2,0 12.1,0 C6,0 0.9,4.6 0.4,10.6 Z" id="Shape" fill="#131313"></path>
                            <circle id="Oval" fill="#4C4C4C" cx="12" cy="11.7" r="9.3"></circle>
                            <circle id="Oval" fill="#606060" transform="translate(12.003870, 11.733330) rotate(-22.649394) translate(-12.003870, -11.733330) " cx="12.00387" cy="11.73333" r="5.10011837"></circle>
                            <path d="M15.4,11.7 C15.4,13.6 13.9,15.1 12,15.1 C10.1,15.1 8.6,13.6 8.6,11.7 C8.6,9.8 10.1,8.3 12,8.3 C13.9,8.3 15.4,9.9 15.4,11.7 Z" id="Shape" fill="#B3B3B3"></path>
                        </g>
                        <rect id="Rectangle-path" fill="#635C63" x="3.2" y="49.6" width="16" height="6.1"></rect>
                        <rect id="Rectangle-path" fill="#CCCCCC" x="0.2" y="49.6" width="7.7" height="6.1"></rect>
                        <g transform="translate(27.000000, 11.000000)" id="Shape">
                            <path d="M18.6,0.7 L7.9,0.7 C7.8,0.7 7.6,0.7 7.5,0.8 C7.1,0.9 6.8,1.2 6.6,1.5 L0.8,12.7 C0.6,13.1 0.6,13.6 0.8,14 C0.8,14.1 0.9,14.2 0.9,14.2 C1,14.3 1.1,14.5 1.3,14.6 C1.4,14.7 1.5,14.7 1.6,14.7 C1.7,14.7 1.9,14.8 2,14.8 L18.5,14.8 C19.3,14.8 20,14.1 20,13.3 L20,2.1 C20.1,1.4 19.4,0.7 18.6,0.7 Z" fill="#69C8EE"></path>
                            <path d="M0.9,12.4 L12.6,0.7 L9.7,0.7 C8.2,2.2 6,4.4 4,6.4 L0.9,12.4 Z" fill="#FFFFFF"></path>
                            <path d="M20.1,9.1 C18.6,10.6 16.3,12.9 14.4,14.8 L17.3,14.8 L20.1,12 L20.1,9.1 Z" fill="#FFFFFF"></path>
                            <path d="M20.1,2.2 C20.1,1.6 19.7,1 19.1,0.8 L18.7,0.8 C18,1.4 9.3,10.2 4.6,14.9 L9.3,14.9 L20.1,4.1 L20.1,2.2 Z" fill="#FFFFFF"></path>
                        </g>
                        <path d="M37.3,27.7 L37.3,29.2 C37.3,30.3 38.2,31.2 39.3,31.2 L45.1,31.2 C46.2,31.2 47.1,30.3 47.1,29.2 L47.1,27.7 L37.3,27.7 Z" id="Shape" fill="#0060AF"></path>
                        <path d="M24.4,31.8 L21.7,31.8 C20.6,31.8 19.7,32.7 19.7,33.8 C19.7,34.9 20.6,35.8 21.7,35.8 L24.4,35.8 C25.5,35.8 26.4,34.9 26.4,33.8 C26.4,32.7 25.5,31.8 24.4,31.8 Z" id="Shape" fill="#FFD500"></path>
                        <g transform="translate(104.000000, 38.000000)">
                            <rect id="Rectangle-path" fill="#FFFFFF" x="0.5" y="0.8" width="11.9" height="8.1"></rect>
                            <polygon id="Shape" fill="#E6E6E6" points="0.5 9 0.5 0.8 12.4 0.8"></polygon>
                        </g>
                    </g>
                </g>
            </g>
        </g>
    </g>
</svg>