<?xml version="1.0" encoding="UTF-8"?>
<svg width="114px" height="122px" viewBox="0 0 114 122" version="1.1" xmlns="http://www.w3.org/2000/svg" xmlns:xlink="http://www.w3.org/1999/xlink">
    <!-- Generator: sketchtool 50.2 (55047) - http://www.bohemiancoding.com/sketch -->
    <title>2FC70709-9AC1-4213-B5D5-F5E6011F95D4</title>
    <desc>Created with sketchtool.</desc>
    <defs>
        <filter x="-100.0%" y="-83.3%" width="300.0%" height="273.3%" filterUnits="objectBoundingBox" id="filter-1">
            <feOffset dx="0" dy="2" in="SourceAlpha" result="shadowOffsetOuter1"></feOffset>
            <feGaussianBlur stdDeviation="17" in="shadowOffsetOuter1" result="shadowBlurOuter1"></feGaussianBlur>
            <feColorMatrix values="0 0 0 0 1   0 0 0 0 0.219607843   0 0 0 0 0.219607843  0 0 0 0.7 0" type="matrix" in="shadowBlurOuter1" result="shadowMatrixOuter1"></feColorMatrix>
            <feMerge>
                <feMergeNode in="shadowMatrixOuter1"></feMergeNode>
                <feMergeNode in="SourceGraphic"></feMergeNode>
            </feMerge>
        </filter>
    </defs>
    <g id="Page-1" stroke="none" stroke-width="1" fill="none" fill-rule="evenodd">
        <g id="web-design" transform="translate(-546.000000, -1698.000000)" fill-rule="nonzero">
            <g id="Group-3" transform="translate(262.000000, 1681.000000)">
                <g id="turn-left" filter="url(#filter-1)" transform="translate(314.000000, 45.000000)">
                    <path d="M25.546875,50.37375 L25.546875,59.0668359 C39.2695312,59.0668359 50.3842969,47.9520703 50.3842969,34.2294141 C50.3842969,20.5067578 39.2695312,9.39210937 25.546875,9.39210937 L15.6118359,9.39210937 L18.7166016,6.28734375 L13.7491406,1.31988281 L1.33054688,13.7385937 L13.7491406,26.1571875 L18.7166016,21.1897266 L15.6118359,18.0849609 L25.546875,18.0849609 C34.4634375,18.0849609 41.6912109,25.3126172 41.6912109,34.2292969 C41.6912109,43.1459766 34.4634375,50.37375 25.546875,50.37375 Z" id="Shape" fill="#FF3838"></path>
                    <g id="Group" transform="translate(10.546875, 14.296875)" fill="#D0021B">
                        <path d="M0.0350390625,0.062578125 L15,0.062578125 C23.9165625,0.062578125 31.1443359,7.29023438 31.1443359,16.2069141 C31.1443359,16.8379687 31.0989844,17.4576562 31.0285547,18.0697266 C30.1038281,10.0320703 23.285625,3.78832031 15,3.78832031 L3.7453125,3.78832031 L0.0350390625,0.062578125 Z" id="Shape"></path>
                        <path d="M15,41.0443359 C28.0937109,41.0443359 38.7883594,30.9183984 39.7434375,18.0697266 C39.7892578,18.6868359 39.8374219,19.3037109 39.8374219,19.9325391 C39.8374219,33.6551953 28.7226562,44.7699609 15,44.7699609 L15,41.0443359 Z" id="Shape"></path>
                    </g>
                    <path d="M25.546875,60 L24.6135937,60 L24.6135937,49.4403516 L25.546875,49.4403516 C33.9342187,49.4403516 40.7578125,42.6166406 40.7578125,34.2292969 C40.7578125,25.8419531 33.9342187,19.0183594 25.546875,19.0183594 L17.8651172,19.0183594 L20.0364844,21.1898437 L13.7492578,27.4771875 L0.010546875,13.7385937 L13.7492578,0 L20.0364844,6.28734375 L17.8651172,8.45882813 L25.546875,8.45882813 C32.4330469,8.45882813 38.9054297,11.1386719 43.7715234,16.0048828 C48.6375,20.8709766 51.3175781,27.3432422 51.3175781,34.2295313 C51.3175781,41.1158203 48.6377344,47.5880859 43.7715234,52.4541797 C38.9054297,57.3201563 32.4330469,60 25.546875,60 Z M26.4801562,51.2817187 L26.4801562,58.1157422 C32.5177734,57.8859375 38.1584766,55.4273437 42.4516406,51.1341797 C46.9652344,46.6205859 49.4510156,40.6169531 49.4510156,34.2294141 C49.4510156,27.841875 46.9652344,21.8382422 42.4516406,17.3246484 C37.9381641,12.8110547 31.9345312,10.3253906 25.546875,10.3253906 L13.3589063,10.3253906 L17.3968359,6.28734375 L13.7491406,2.63964844 L2.6503125,13.7384766 L13.7491406,24.8373047 L17.3968359,21.1896094 L13.3589063,17.1515625 L25.546875,17.1515625 C34.9634766,17.1515625 42.624375,24.8124609 42.624375,34.2291797 C42.6244922,43.3327734 35.4643359,50.7953906 26.4801562,51.2817187 Z" id="Shape" fill="#23374D"></path>
                    <rect id="Rectangle-path" fill="#FFFFFF" transform="translate(9.401806, 10.633242) rotate(-135.000000) translate(-9.401806, -10.633242) " x="8.46853389" y="6.24256188" width="1.8665446" height="8.7813611"></rect>
                </g>
            </g>
        </g>
    </g>
</svg>